<svg version="1.1" id="Layer_1" xmlns="http://www.w3.org/2000/svg" xmlns:xlink="http://www.w3.org/1999/xlink" x="0px" y="0px"
	 width="100%" viewBox="0 0 1553 423" enable-background="new 0 0 1553 423" xml:space="preserve">
<path fill="#000000" opacity="1.000000" stroke="none" 
	d="
M1554.000000,301.000031 
	C1554.000000,341.967712 1554.000000,382.935425 1554.000000,424.000000 
	C1416.307495,424.000000 1278.614990,424.000000 1140.203369,423.651825 
	C1146.615723,421.203796 1153.713257,418.979309 1160.886353,417.033508 
	C1171.524048,414.147919 1182.215332,411.459747 1192.589844,408.763947 
	C1192.589844,378.238525 1192.589844,348.212433 1192.589844,318.018677 
	C1198.432373,320.191986 1204.116211,322.582245 1209.970825,324.432098 
	C1227.251587,329.892273 1244.725830,330.404022 1262.411377,326.291260 
	C1291.712402,319.477417 1309.869751,299.487244 1323.113647,274.274445 
	C1332.989990,255.472488 1334.893066,234.570084 1335.867065,213.757263 
	C1336.314819,204.193634 1335.335938,194.563110 1335.001953,184.962997 
	C1334.339233,165.911743 1329.938477,147.876663 1321.036377,130.902237 
	C1312.578979,114.776245 1300.236206,102.455605 1284.269653,94.240959 
	C1268.336182,86.043228 1251.268188,83.358864 1233.181885,85.796715 
	C1219.063477,87.699738 1206.265747,92.172783 1194.591309,100.135811 
	C1192.672729,101.444519 1190.924927,103.003769 1188.872681,104.625534 
	C1187.453735,97.562744 1186.212891,91.386803 1184.879517,84.749794 
	C1166.099487,88.027054 1147.858643,91.210205 1130.772583,94.191841 
	C1131.533081,114.298714 1132.851440,133.690430 1132.899902,153.085312 
	C1133.125610,243.389725 1133.000000,333.695007 1133.000000,424.000000 
	C755.788940,424.000000 378.577850,424.000000 1.000000,424.000000 
	C1.000000,366.974701 1.000000,309.948608 1.357709,252.470520 
	C7.243082,257.062653 13.870176,259.597534 21.226137,259.955566 
	C35.797634,260.664764 50.091484,258.426697 64.274857,255.347870 
	C70.640457,253.966064 76.991127,252.515457 81.942215,251.410049 
	C71.336075,266.603546 60.175652,282.323578 49.318432,298.250366 
	C43.362648,306.987091 39.776382,316.796967 38.061497,327.246521 
	C36.991314,333.767639 42.129307,341.820587 48.013988,341.847778 
	C53.864178,341.874756 59.979382,341.610718 65.525757,339.956635 
	C84.555519,334.281433 101.131401,323.754852 117.178215,312.348236 
	C119.042274,311.023193 121.036400,309.881134 123.017708,308.624146 
	C119.728813,322.546631 116.216553,335.725311 113.582222,349.077179 
	C111.292465,360.682526 109.608810,372.463318 112.015129,384.353546 
	C114.458702,396.427795 121.896339,404.518982 135.636322,397.930878 
	C142.005951,394.876770 148.711365,391.082153 153.215027,385.856812 
	C165.074005,372.097504 175.891129,357.432434 186.943039,342.990234 
	C190.141678,338.810394 192.730972,334.164276 195.990616,329.127747 
	C197.004547,330.782532 197.755371,331.510376 197.922043,332.353668 
	C200.988861,347.871063 203.168411,363.622681 207.275665,378.855591 
	C210.169998,389.590118 214.919632,400.023193 220.204208,409.858368 
	C225.466080,419.651306 233.844467,421.465790 241.380905,415.726593 
	C243.757812,413.916504 245.499207,411.094940 247.101044,408.473328 
	C256.174805,393.623016 260.488220,377.051636 263.946716,360.247223 
	C266.132996,349.624329 267.757355,338.885773 269.780670,327.362305 
	C272.465576,331.863495 274.494141,335.896179 277.097870,339.515106 
	C286.171478,352.126434 294.917023,365.031738 304.818512,376.969940 
	C311.922791,385.535614 319.725586,393.890503 330.607086,398.184631 
	C343.623322,403.321228 351.209442,398.649536 353.799316,386.535431 
	C356.692780,373.001099 355.342255,359.272186 352.350586,345.826080 
	C349.710327,333.959198 346.586273,322.199951 343.526245,309.786377 
	C344.985626,310.298920 346.612732,310.487061 347.756683,311.330505 
	C361.757019,321.653076 376.594025,330.492920 392.644684,337.269775 
	C400.293671,340.499359 408.101349,342.562439 416.515656,342.040192 
	C422.369751,341.676910 425.191833,339.780640 427.017334,334.251404 
	C430.130707,324.821411 426.188873,316.385132 422.528809,308.311066 
	C414.770752,291.196838 403.608246,276.217163 391.478363,261.945801 
	C388.926727,258.943604 386.607178,255.744080 383.717224,252.041733 
	C385.810181,252.041733 386.834351,251.884033 387.794128,252.065979 
	C398.207611,254.040054 408.623108,256.007507 419.013855,258.096985 
	C429.605194,260.226807 440.199432,260.825317 450.913239,259.018921 
	C461.194244,257.285492 466.224701,252.566132 464.861176,244.875702 
	C464.283478,241.617233 462.829315,238.221863 460.868286,235.554108 
	C454.176392,226.450760 445.930176,218.878860 436.397980,212.771881 
	C426.243408,206.266129 416.045959,199.827316 405.560333,193.164246 
	C411.275299,192.086334 416.842743,191.239975 422.309448,189.962601 
	C433.546570,187.336884 445.288574,185.859100 454.572174,178.068405 
	C460.908295,172.751236 463.956482,167.646011 456.498291,160.198959 
	C452.849335,156.555481 448.419830,153.364746 443.791870,151.092941 
	C430.394073,144.516068 416.030243,140.758606 401.402008,137.992371 
	C396.736755,137.110153 392.084229,136.160492 386.521484,135.063324 
	C389.085266,133.391861 390.692017,132.301361 392.339844,131.276993 
	C403.164001,124.548210 414.363281,118.355370 421.523712,107.109627 
	C427.361725,97.940811 425.315430,90.378754 415.038696,87.204895 
	C409.178772,85.395134 402.881378,84.214935 396.770752,84.170921 
	C384.751190,84.084366 372.724457,84.988052 360.403687,85.494278 
	C360.970673,84.484230 361.611328,83.394051 362.204071,82.278397 
	C365.566620,75.949814 369.371948,69.809303 372.178955,63.242466 
	C378.178253,49.207359 370.451721,37.611969 356.623444,40.197582 
	C347.239380,41.952221 338.054565,45.032578 328.986145,48.123123 
	C322.975891,50.171436 317.329193,53.286423 312.011414,55.700672 
	C312.011414,45.606838 312.819031,35.744484 311.819458,26.068830 
	C310.370941,12.047500 300.545807,7.385203 287.796692,13.629086 
	C278.935913,17.968662 271.439148,23.894218 265.510925,31.834133 
	C264.427216,33.285572 262.675720,34.238392 260.780548,35.791824 
	C259.939453,33.136410 259.407410,31.294588 258.775391,29.487728 
	C254.922913,18.474138 250.225586,8.072274 239.045212,2.369808 
	C238.848450,2.269450 239.007156,1.472114 239.000000,1.000000 
	C677.218384,1.000000 1115.436768,1.000000 1554.000000,1.000000 
	C1554.000000,99.358894 1554.000000,197.718185 1553.645752,296.529785 
	C1540.334595,287.628204 1532.234131,275.754242 1532.943237,258.993317 
	C1533.275024,251.149811 1532.894043,243.278885 1533.022339,235.423416 
	C1533.279663,219.655334 1534.075073,203.884521 1533.889526,188.123749 
	C1533.675415,169.925659 1535.755737,151.617172 1531.990356,133.545364 
	C1527.974609,114.271461 1516.517334,100.651779 1498.656250,93.281616 
	C1489.455078,89.484856 1479.277710,87.163612 1469.349731,86.242996 
	C1456.931030,85.091393 1444.107788,84.673180 1431.840942,86.501068 
	C1418.755859,88.450874 1405.886963,92.744316 1393.341919,97.193504 
	C1378.765503,102.363129 1364.803955,109.127426 1351.650513,118.069626 
	C1360.387085,132.862808 1368.988525,147.427185 1377.649414,162.092102 
	C1385.554321,157.647202 1393.189819,153.260925 1400.911377,149.031708 
	C1416.527588,140.478516 1432.937378,135.027328 1451.077515,135.949249 
	C1459.428467,136.373642 1468.627319,141.272873 1469.695190,147.787506 
	C1471.356201,157.919922 1471.866577,168.240936 1473.011719,179.990723 
	C1459.168091,179.990723 1446.927856,179.734207 1434.702637,180.055878 
	C1419.531982,180.455032 1404.977539,183.877167 1390.839966,189.509750 
	C1374.625854,195.969757 1361.958496,206.373260 1354.100952,221.954636 
	C1345.663452,238.685867 1345.276733,256.591736 1347.989014,274.727051 
	C1351.902344,300.892761 1365.886963,318.661896 1391.326538,327.150330 
	C1404.717407,331.618408 1418.336426,333.422394 1432.344238,331.968109 
	C1439.487671,331.226471 1446.654297,330.404846 1453.692627,329.020660 
	C1465.774170,326.644684 1475.539185,319.716858 1484.558960,311.799438 
	C1487.855591,308.905640 1489.411987,310.046082 1491.451660,312.939056 
	C1499.046509,323.712097 1509.508423,330.775848 1521.311646,336.031738 
	C1530.660034,325.382477 1539.740479,314.949493 1548.956909,304.638123 
	C1550.305908,303.128662 1552.302856,302.198303 1554.000000,301.000031 
M875.924622,134.642700 
	C872.630005,130.157608 869.475891,125.560753 866.013550,121.209122 
	C856.862366,109.707428 845.767090,100.199799 832.381531,94.378052 
	C810.518066,84.869049 787.598938,82.502754 763.952576,86.916588 
	C740.613770,91.272987 721.474731,102.618629 706.744324,120.933258 
	C688.632690,143.451706 681.132385,170.081268 680.242920,198.434769 
	C679.822021,211.852722 681.228760,225.461655 683.150818,238.790329 
	C686.646545,263.032288 696.458679,284.449188 714.282227,301.822906 
	C732.568420,319.647552 754.813904,327.829132 779.902222,328.904510 
	C786.807373,329.200470 793.842041,328.875793 800.674011,327.866302 
	C809.187866,326.608276 817.904175,325.290588 825.908081,322.316589 
	C841.500610,316.522919 854.288391,306.684357 865.074768,293.692078 
	C882.845642,272.286865 890.030273,247.250046 891.811279,220.350128 
	C892.596313,208.493271 891.658264,196.481537 890.931152,184.574997 
	C889.861694,167.061371 885.433655,150.442871 875.924622,134.642700 
M971.996399,256.581238 
	C971.664246,252.814240 971.047607,249.047592 971.042969,245.280197 
	C970.979309,193.625351 971.000000,141.970398 971.000000,90.315483 
	C971.000000,88.354256 971.000000,86.393028 971.000000,84.167976 
	C968.906677,84.167976 967.242737,83.918800 965.677429,84.206490 
	C949.949463,87.097244 934.160706,89.726151 918.551147,93.164757 
	C909.547852,95.148079 908.861023,92.439613 908.959473,104.098549 
	C909.387329,154.760620 909.581238,205.424789 910.081665,256.085999 
	C910.167603,264.788330 910.993347,273.521606 912.064819,282.167786 
	C914.175903,299.203339 924.233032,310.968018 938.745605,318.825317 
	C956.037964,328.187561 974.561646,331.339874 994.339478,329.195740 
	C1012.260132,327.252991 1028.412720,321.972290 1042.333984,310.323730 
	C1043.061401,309.715149 1045.474243,309.809845 1045.977783,310.454956 
	C1049.591675,315.085876 1052.860962,319.983429 1056.344727,324.719055 
	C1059.936523,329.601654 1063.561157,330.493500 1068.740112,327.640594 
	C1076.469238,323.382782 1084.135742,319.009338 1091.784180,314.607452 
	C1097.236572,311.469513 1102.615601,308.203918 1107.848389,305.101410 
	C1099.235840,293.872650 1094.181519,281.804596 1094.119507,268.406128 
	C1093.843872,208.920929 1094.000000,149.433731 1094.000000,89.947266 
	C1094.000000,88.028526 1094.000000,86.109779 1094.000000,83.802322 
	C1073.564941,88.121353 1053.855591,92.286987 1034.000000,96.483528 
	C1034.000000,98.790771 1034.000000,100.779900 1034.000000,102.769020 
	C1034.000000,153.424164 1033.929810,204.079559 1034.111206,254.734070 
	C1034.128784,259.667969 1033.218506,263.844543 1029.870361,267.341675 
	C1027.949951,269.347504 1025.812988,271.184204 1023.593140,272.858002 
	C1015.122314,279.245300 1005.246216,283.912109 994.979858,282.627075 
	C978.239197,280.531677 973.436401,273.367004 971.996399,256.581238 
M655.645508,95.920158 
	C650.061523,93.278915 644.668945,90.071564 638.856384,88.106552 
	C623.691406,82.979897 608.102905,81.789833 592.167603,83.930176 
	C577.218140,85.938118 563.129883,90.506187 550.354919,98.298782 
	C529.117981,111.253113 516.074585,130.786316 507.960205,153.903702 
	C498.627563,180.491653 498.348328,207.966003 501.241364,235.449326 
	C503.074097,252.859940 508.358215,269.594940 517.412720,284.843872 
	C527.727844,302.215820 542.111572,314.743256 561.093811,322.138092 
	C580.207703,329.584137 599.840637,330.340332 619.855530,328.016693 
	C642.493042,325.388550 661.823120,316.029022 677.827454,299.749878 
	C679.932129,297.609070 680.451233,296.265106 678.337708,293.558167 
	C669.532288,282.280304 661.056458,270.745148 652.596069,259.485748 
	C645.676147,264.507660 639.231812,269.920624 632.099731,274.182800 
	C622.105164,280.155701 611.177856,283.469025 599.335205,280.922119 
	C587.819214,278.445526 579.593811,271.533020 575.111328,260.758484 
	C569.620728,247.560822 568.405273,233.442276 568.113037,219.351044 
	C567.883057,208.263123 568.412292,197.139160 569.065918,186.058441 
	C569.841003,172.917648 572.317139,160.118896 578.908264,148.459076 
	C586.030151,135.860443 597.019653,131.371643 609.145142,132.195969 
	C618.741272,132.848373 627.157349,137.559402 634.830017,143.336197 
	C637.917053,145.660431 640.985596,148.009140 644.168030,150.426834 
	C654.458374,136.567505 664.362427,123.228432 674.778259,109.200058 
	C668.344971,104.613159 662.358459,100.344864 655.645508,95.920158 
z"/>
<path fill="#1976D2" opacity="1.000000" stroke="none" 
	d="
M238.541931,1.000000 
	C239.007156,1.472114 238.848450,2.269450 239.045212,2.369808 
	C250.225586,8.072274 254.922913,18.474138 258.775391,29.487728 
	C259.407410,31.294588 259.939453,33.136410 260.780548,35.791824 
	C262.675720,34.238392 264.427216,33.285572 265.510925,31.834133 
	C271.439148,23.894218 278.935913,17.968662 287.796692,13.629086 
	C300.545807,7.385203 310.370941,12.047500 311.819458,26.068830 
	C312.819031,35.744484 312.011414,45.606838 312.011414,55.700672 
	C317.329193,53.286423 322.975891,50.171436 328.986145,48.123123 
	C338.054565,45.032578 347.239380,41.952221 356.623444,40.197582 
	C370.451721,37.611969 378.178253,49.207359 372.178955,63.242466 
	C369.371948,69.809303 365.566620,75.949814 362.204071,82.278397 
	C361.611328,83.394051 360.970673,84.484230 360.403687,85.494278 
	C372.724457,84.988052 384.751190,84.084366 396.770752,84.170921 
	C402.881378,84.214935 409.178772,85.395134 415.038696,87.204895 
	C425.315430,90.378754 427.361725,97.940811 421.523712,107.109627 
	C414.363281,118.355370 403.164001,124.548210 392.339844,131.276993 
	C390.692017,132.301361 389.085266,133.391861 386.521484,135.063324 
	C392.084229,136.160492 396.736755,137.110153 401.402008,137.992371 
	C416.030243,140.758606 430.394073,144.516068 443.791870,151.092941 
	C448.419830,153.364746 452.849335,156.555481 456.498291,160.198959 
	C463.956482,167.646011 460.908295,172.751236 454.572174,178.068405 
	C445.288574,185.859100 433.546570,187.336884 422.309448,189.962601 
	C416.842743,191.239975 411.275299,192.086334 405.560333,193.164246 
	C416.045959,199.827316 426.243408,206.266129 436.397980,212.771881 
	C445.930176,218.878860 454.176392,226.450760 460.868286,235.554108 
	C462.829315,238.221863 464.283478,241.617233 464.861176,244.875702 
	C466.224701,252.566132 461.194244,257.285492 450.913239,259.018921 
	C440.199432,260.825317 429.605194,260.226807 419.013855,258.096985 
	C408.623108,256.007507 398.207611,254.040054 387.794128,252.065979 
	C386.834351,251.884033 385.810181,252.041733 383.717224,252.041733 
	C386.607178,255.744080 388.926727,258.943604 391.478363,261.945801 
	C403.608246,276.217163 414.770752,291.196838 422.528809,308.311066 
	C426.188873,316.385132 430.130707,324.821411 427.017334,334.251404 
	C425.191833,339.780640 422.369751,341.676910 416.515656,342.040192 
	C408.101349,342.562439 400.293671,340.499359 392.644684,337.269775 
	C376.594025,330.492920 361.757019,321.653076 347.756683,311.330505 
	C346.612732,310.487061 344.985626,310.298920 343.526245,309.786377 
	C346.586273,322.199951 349.710327,333.959198 352.350586,345.826080 
	C355.342255,359.272186 356.692780,373.001099 353.799316,386.535431 
	C351.209442,398.649536 343.623322,403.321228 330.607086,398.184631 
	C319.725586,393.890503 311.922791,385.535614 304.818512,376.969940 
	C294.917023,365.031738 286.171478,352.126434 277.097870,339.515106 
	C274.494141,335.896179 272.465576,331.863495 269.780670,327.362305 
	C267.757355,338.885773 266.132996,349.624329 263.946716,360.247223 
	C260.488220,377.051636 256.174805,393.623016 247.101044,408.473328 
	C245.499207,411.094940 243.757812,413.916504 241.380905,415.726593 
	C233.844467,421.465790 225.466080,419.651306 220.204208,409.858368 
	C214.919632,400.023193 210.169998,389.590118 207.275665,378.855591 
	C203.168411,363.622681 200.988861,347.871063 197.922043,332.353668 
	C197.755371,331.510376 197.004547,330.782532 195.990616,329.127747 
	C192.730972,334.164276 190.141678,338.810394 186.943039,342.990234 
	C175.891129,357.432434 165.074005,372.097504 153.215027,385.856812 
	C148.711365,391.082153 142.005951,394.876770 135.636322,397.930878 
	C121.896339,404.518982 114.458702,396.427795 112.015129,384.353546 
	C109.608810,372.463318 111.292465,360.682526 113.582222,349.077179 
	C116.216553,335.725311 119.728813,322.546631 123.017708,308.624146 
	C121.036400,309.881134 119.042274,311.023193 117.178215,312.348236 
	C101.131401,323.754852 84.555519,334.281433 65.525757,339.956635 
	C59.979382,341.610718 53.864178,341.874756 48.013988,341.847778 
	C42.129307,341.820587 36.991314,333.767639 38.061497,327.246521 
	C39.776382,316.796967 43.362648,306.987091 49.318432,298.250366 
	C60.175652,282.323578 71.336075,266.603546 81.942215,251.410049 
	C76.991127,252.515457 70.640457,253.966064 64.274857,255.347870 
	C50.091484,258.426697 35.797634,260.664764 21.226137,259.955566 
	C13.870176,259.597534 7.243082,257.062653 1.357709,252.009277 
	C1.000000,247.975449 1.000000,243.950912 1.262976,239.791473 
	C2.327059,239.141617 3.450622,238.816040 3.881017,238.083313 
	C10.575013,226.687332 20.849035,219.039032 31.509232,211.898544 
	C40.798840,205.676117 50.373825,199.879730 60.860760,193.237640 
	C56.242523,192.381821 52.495892,191.761993 48.781998,190.985596 
	C36.817451,188.484329 24.469889,186.725876 14.061578,179.870926 
	C4.110244,173.316940 2.982729,166.028839 11.424993,158.190582 
	C13.665866,156.110031 16.427742,154.520416 19.120537,153.008392 
	C34.874058,144.162766 52.333302,140.650452 69.740074,136.996552 
	C72.718918,136.371231 75.700417,135.758575 79.997940,134.866699 
	C77.930870,133.688263 77.244537,133.320831 76.581436,132.915405 
	C66.350677,126.660294 55.910667,120.625214 47.966404,111.395554 
	C39.190876,101.200134 38.298237,91.748337 53.113197,86.565788 
	C65.032677,82.396133 77.584953,83.716759 89.938889,84.496864 
	C95.203163,84.829285 100.440590,85.586823 105.400749,86.120049 
	C101.343636,77.498581 97.435997,69.500877 93.811729,61.376755 
	C91.683479,56.606075 91.432068,51.454502 93.871460,46.805161 
	C97.289749,40.290092 104.090317,39.361633 110.071808,40.276413 
	C118.525208,41.569237 126.838287,44.281895 134.953751,47.123356 
	C141.470947,49.405224 147.605316,52.780479 154.668686,56.018555 
	C154.668686,53.947956 154.653809,52.578434 154.671082,51.209320 
	C154.793411,41.516518 154.036469,31.705824 155.307053,22.165407 
	C156.494217,13.251234 165.372131,9.289711 174.253326,11.938282 
	C181.348633,14.054257 187.396011,17.776711 192.487289,23.039164 
	C196.504517,27.191481 200.301224,31.557161 205.013443,36.724655 
	C207.083069,31.385942 208.546158,27.709045 209.936874,24.004990 
	C213.298798,15.050940 217.644745,6.927258 227.091751,2.894869 
	C227.575897,2.688219 227.705399,1.650688 228.000000,1.000002 
	C231.361282,1.000000 234.722580,1.000000 238.541931,1.000000 
M99.350807,100.882851 
	C98.352402,100.923698 97.317345,100.807915 96.361717,101.031548 
	C91.264267,102.224541 85.422745,103.246910 83.458763,108.572021 
	C81.564102,113.709160 85.449554,117.805779 88.921677,121.410683 
	C100.574379,133.509048 115.490662,140.413391 130.528473,146.883163 
	C141.065002,151.416321 152.058380,154.887619 163.913467,159.222870 
	C161.336441,160.368515 159.550797,161.218231 157.723434,161.965927 
	C141.905716,168.438141 125.647758,174.023102 110.391800,181.621002 
	C97.746391,187.918762 85.917229,196.083694 74.444305,204.410492 
	C68.772263,208.527145 64.308853,214.571747 60.071392,220.314301 
	C57.003963,224.471268 59.397427,230.262787 64.326302,231.889008 
	C67.691299,232.999252 71.294357,233.755066 74.827263,233.928055 
	C93.814308,234.857697 111.986153,230.274323 129.761642,224.475555 
	C146.727631,218.940903 163.319412,212.259155 180.725143,205.842209 
	C180.371582,207.116409 180.259262,208.594666 179.594772,209.757339 
	C166.569321,232.548721 156.056152,256.445435 149.229477,281.789764 
	C145.644501,295.099121 142.688446,308.848907 146.139328,322.653961 
	C148.688095,332.850128 151.999344,337.144806 163.051849,331.289948 
	C168.038864,328.648193 173.128479,325.377350 176.764893,321.174774 
	C185.130325,311.506958 193.189087,301.469757 200.358246,290.894989 
	C211.384598,274.630676 220.518646,257.268951 227.167603,238.677109 
	C228.928375,233.753555 231.213898,229.017670 233.435623,223.777893 
	C234.182846,224.836823 234.713364,225.311890 234.903183,225.897415 
	C243.410370,252.139206 256.056183,276.309601 271.576141,299.024811 
	C280.057312,311.437958 289.360504,323.059113 302.495453,331.045502 
	C308.474274,334.680756 312.371765,334.842590 316.218109,331.354095 
	C321.430756,326.626404 321.817413,320.162628 321.835449,314.109344 
	C321.879150,299.445526 318.586426,285.222107 314.066406,271.327545 
	C308.050293,252.834152 300.935150,234.792145 291.409058,217.766159 
	C289.170074,213.764404 287.335083,209.536667 284.686371,204.131729 
	C287.372528,205.353714 288.769409,206.086563 290.233978,206.640533 
	C306.525238,212.802643 322.617126,219.597580 339.193939,224.864777 
	C351.877960,228.895035 365.064392,231.823074 378.248322,233.619705 
	C386.016541,234.678284 394.250977,232.837112 402.206268,231.778366 
	C406.090240,231.261475 408.695190,226.485825 407.141602,221.805847 
	C404.562469,214.036453 398.468994,209.129135 392.680817,204.546432 
	C372.271698,188.387772 349.172577,176.926010 324.819397,167.909561 
	C317.888580,165.343536 311.019623,162.610504 302.909546,159.486969 
	C305.738373,158.301224 307.343079,157.613586 308.959045,156.953598 
	C323.599121,150.974335 338.389618,145.333801 352.833923,138.914291 
	C363.632538,134.115051 373.279572,127.285110 380.586517,117.809235 
	C385.809662,111.035660 384.714020,107.359474 378.009277,103.541885 
	C376.756592,102.828629 375.317780,102.362923 373.907257,102.019287 
	C365.192749,99.896210 356.503326,100.038651 347.519226,100.771477 
	C329.763184,102.219818 312.724792,106.421120 295.840424,111.626839 
	C290.442261,113.291168 285.150360,115.300026 279.105042,117.395554 
	C282.111206,110.797256 284.985657,105.025703 287.405365,99.069427 
	C293.106812,85.035042 297.544739,70.638702 296.923126,55.267025 
	C296.618195,47.726166 293.187469,40.776558 287.278381,39.744537 
	C281.132050,38.671082 275.878113,41.769020 272.080444,45.711842 
	C263.878601,54.227184 255.881531,63.094090 248.993820,72.674927 
	C242.800629,81.289696 238.200882,91.050003 232.779205,100.512856 
	C231.789017,98.212097 230.752228,95.683647 229.622330,93.197517 
	C223.549835,79.836136 215.563904,67.642029 205.940308,56.647999 
	C200.441315,50.365894 194.808914,43.946468 186.517960,40.839111 
	C181.249481,38.864548 176.068390,39.136150 173.822311,42.910389 
	C171.959991,46.039795 170.528839,49.765987 170.129135,53.363602 
	C168.777573,65.528969 171.528473,77.283188 175.428680,88.661102 
	C178.676941,98.137154 182.834045,107.301666 186.994888,117.610786 
	C183.868851,116.227272 181.512833,114.800171 178.957901,114.116997 
	C163.865982,110.081535 148.876678,105.418556 133.554871,102.568909 
	C122.650970,100.540924 111.278366,101.033012 99.350807,100.882851 
z"/>
<path fill="#1976D2" opacity="1.000000" stroke="none" 
	d="
M1133.437500,424.000000 
	C1133.000000,333.695007 1133.125610,243.389725 1132.899902,153.085312 
	C1132.851440,133.690430 1131.533081,114.298714 1130.772583,94.191841 
	C1147.858643,91.210205 1166.099487,88.027054 1184.879517,84.749794 
	C1186.212891,91.386803 1187.453735,97.562744 1188.872681,104.625534 
	C1190.924927,103.003769 1192.672729,101.444519 1194.591309,100.135811 
	C1206.265747,92.172783 1219.063477,87.699738 1233.181885,85.796715 
	C1251.268188,83.358864 1268.336182,86.043228 1284.269653,94.240959 
	C1300.236206,102.455605 1312.578979,114.776245 1321.036377,130.902237 
	C1329.938477,147.876663 1334.339233,165.911743 1335.001953,184.962997 
	C1335.335938,194.563110 1336.314819,204.193634 1335.867065,213.757263 
	C1334.893066,234.570084 1332.989990,255.472488 1323.113647,274.274445 
	C1309.869751,299.487244 1291.712402,319.477417 1262.411377,326.291260 
	C1244.725830,330.404022 1227.251587,329.892273 1209.970825,324.432098 
	C1204.116211,322.582245 1198.432373,320.191986 1192.589844,318.018677 
	C1192.589844,348.212433 1192.589844,378.238525 1192.589844,408.763947 
	C1182.215332,411.459747 1171.524048,414.147919 1160.886353,417.033508 
	C1153.713257,418.979309 1146.615723,421.203796 1139.742188,423.651825 
	C1137.958374,424.000000 1135.916626,424.000000 1133.437500,424.000000 
M1194.000000,243.499969 
	C1194.000122,249.994629 1193.787231,256.500702 1194.134033,262.976776 
	C1194.234131,264.845551 1195.500366,267.194366 1196.987183,268.359711 
	C1207.975342,276.971985 1220.468872,281.031433 1234.418579,278.912231 
	C1243.698608,277.502502 1251.645752,273.666351 1257.054199,265.198486 
	C1265.044678,252.688141 1267.364746,238.571533 1267.722534,224.450211 
	C1268.186890,206.125809 1267.082520,187.721817 1265.807251,169.411011 
	C1265.222534,161.017273 1262.782104,152.681534 1257.278198,145.799713 
	C1248.371582,134.663086 1236.221802,134.823730 1223.828857,136.671829 
	C1214.257324,138.099167 1206.097412,142.647903 1198.453613,148.604370 
	C1195.154785,151.175034 1193.907349,153.553757 1193.926880,157.569504 
	C1194.064697,185.879120 1194.000000,214.189713 1194.000000,243.499969 
z"/>
<path fill="#1976D2" opacity="1.000000" stroke="none" 
	d="
M1554.000000,300.600037 
	C1552.302856,302.198303 1550.305908,303.128662 1548.956909,304.638123 
	C1539.740479,314.949493 1530.660034,325.382477 1521.311646,336.031738 
	C1509.508423,330.775848 1499.046509,323.712097 1491.451660,312.939056 
	C1489.411987,310.046082 1487.855591,308.905640 1484.558960,311.799438 
	C1475.539185,319.716858 1465.774170,326.644684 1453.692627,329.020660 
	C1446.654297,330.404846 1439.487671,331.226471 1432.344238,331.968109 
	C1418.336426,333.422394 1404.717407,331.618408 1391.326538,327.150330 
	C1365.886963,318.661896 1351.902344,300.892761 1347.989014,274.727051 
	C1345.276733,256.591736 1345.663452,238.685867 1354.100952,221.954636 
	C1361.958496,206.373260 1374.625854,195.969757 1390.839966,189.509750 
	C1404.977539,183.877167 1419.531982,180.455032 1434.702637,180.055878 
	C1446.927856,179.734207 1459.168091,179.990723 1473.011719,179.990723 
	C1471.866577,168.240936 1471.356201,157.919922 1469.695190,147.787506 
	C1468.627319,141.272873 1459.428467,136.373642 1451.077515,135.949249 
	C1432.937378,135.027328 1416.527588,140.478516 1400.911377,149.031708 
	C1393.189819,153.260925 1385.554321,157.647202 1377.649414,162.092102 
	C1368.988525,147.427185 1360.387085,132.862808 1351.650513,118.069626 
	C1364.803955,109.127426 1378.765503,102.363129 1393.341919,97.193504 
	C1405.886963,92.744316 1418.755859,88.450874 1431.840942,86.501068 
	C1444.107788,84.673180 1456.931030,85.091393 1469.349731,86.242996 
	C1479.277710,87.163612 1489.455078,89.484856 1498.656250,93.281616 
	C1516.517334,100.651779 1527.974609,114.271461 1531.990356,133.545364 
	C1535.755737,151.617172 1533.675415,169.925659 1533.889526,188.123749 
	C1534.075073,203.884521 1533.279663,219.655334 1533.022339,235.423416 
	C1532.894043,243.278885 1533.275024,251.149811 1532.943237,258.993317 
	C1532.234131,275.754242 1540.334595,287.628204 1553.645752,296.991028 
	C1554.000000,298.066681 1554.000000,299.133331 1554.000000,300.600037 
M1466.336426,222.000153 
	C1457.308472,222.668304 1448.234497,222.971817 1439.265747,224.108154 
	C1430.462402,225.223572 1422.218750,228.541321 1417.398071,236.425201 
	C1410.533813,247.651382 1411.081665,260.074371 1415.592163,271.702209 
	C1419.651611,282.167267 1433.336304,289.264709 1442.312256,286.684174 
	C1448.957764,284.773651 1455.491333,282.104004 1461.632568,278.919861 
	C1466.977539,276.148529 1470.995605,271.712433 1470.997437,264.979645 
	C1471.000977,251.819321 1470.912842,238.658020 1471.062988,225.499420 
	C1471.096924,222.518555 1469.986206,221.624649 1466.336426,222.000153 
z"/>
<path fill="#000000" opacity="1.000000" stroke="none" 
	d="
M227.531342,1.000002 
	C227.705399,1.650688 227.575897,2.688219 227.091751,2.894869 
	C217.644745,6.927258 213.298798,15.050940 209.936874,24.004990 
	C208.546158,27.709045 207.083069,31.385942 205.013443,36.724655 
	C200.301224,31.557161 196.504517,27.191481 192.487289,23.039164 
	C187.396011,17.776711 181.348633,14.054257 174.253326,11.938282 
	C165.372131,9.289711 156.494217,13.251234 155.307053,22.165407 
	C154.036469,31.705824 154.793411,41.516518 154.671082,51.209320 
	C154.653809,52.578434 154.668686,53.947956 154.668686,56.018555 
	C147.605316,52.780479 141.470947,49.405224 134.953751,47.123356 
	C126.838287,44.281895 118.525208,41.569237 110.071808,40.276413 
	C104.090317,39.361633 97.289749,40.290092 93.871460,46.805161 
	C91.432068,51.454502 91.683479,56.606075 93.811729,61.376755 
	C97.435997,69.500877 101.343636,77.498581 105.400749,86.120049 
	C100.440590,85.586823 95.203163,84.829285 89.938889,84.496864 
	C77.584953,83.716759 65.032677,82.396133 53.113197,86.565788 
	C38.298237,91.748337 39.190876,101.200134 47.966404,111.395554 
	C55.910667,120.625214 66.350677,126.660294 76.581436,132.915405 
	C77.244537,133.320831 77.930870,133.688263 79.997940,134.866699 
	C75.700417,135.758575 72.718918,136.371231 69.740074,136.996552 
	C52.333302,140.650452 34.874058,144.162766 19.120537,153.008392 
	C16.427742,154.520416 13.665866,156.110031 11.424993,158.190582 
	C2.982729,166.028839 4.110244,173.316940 14.061578,179.870926 
	C24.469889,186.725876 36.817451,188.484329 48.781998,190.985596 
	C52.495892,191.761993 56.242523,192.381821 60.860760,193.237640 
	C50.373825,199.879730 40.798840,205.676117 31.509232,211.898544 
	C20.849035,219.039032 10.575013,226.687332 3.881017,238.083313 
	C3.450622,238.816040 2.327059,239.141617 1.262976,239.328308 
	C1.000000,159.741348 1.000000,80.482689 1.000000,1.000000 
	C76.354080,1.000000 151.708374,1.000000 227.531342,1.000002 
z"/>
<path fill="#1976D2" opacity="1.000000" stroke="none" 
	d="
M876.001648,135.007431 
	C885.433655,150.442871 889.861694,167.061371 890.931152,184.574997 
	C891.658264,196.481537 892.596313,208.493271 891.811279,220.350128 
	C890.030273,247.250046 882.845642,272.286865 865.074768,293.692078 
	C854.288391,306.684357 841.500610,316.522919 825.908081,322.316589 
	C817.904175,325.290588 809.187866,326.608276 800.674011,327.866302 
	C793.842041,328.875793 786.807373,329.200470 779.902222,328.904510 
	C754.813904,327.829132 732.568420,319.647552 714.282227,301.822906 
	C696.458679,284.449188 686.646545,263.032288 683.150818,238.790329 
	C681.228760,225.461655 679.822021,211.852722 680.242920,198.434769 
	C681.132385,170.081268 688.632690,143.451706 706.744324,120.933258 
	C721.474731,102.618629 740.613770,91.272987 763.952576,86.916588 
	C787.598938,82.502754 810.518066,84.869049 832.381531,94.378052 
	C845.767090,100.199799 856.862366,109.707428 866.013550,121.209122 
	C869.475891,125.560753 872.630005,130.157608 876.001648,135.007431 
M748.999939,203.506546 
	C750.003052,218.298157 750.278015,233.190399 752.302979,247.840775 
	C753.386658,255.680771 756.175720,263.977051 760.531311,270.509766 
	C766.977356,280.177856 777.253845,283.752960 789.221802,283.158051 
	C799.220276,282.661041 806.521484,278.729858 812.173767,270.594879 
	C820.671631,258.364502 822.594543,244.210464 823.789124,230.106171 
	C824.800842,218.161484 823.879822,206.061737 824.035706,194.033493 
	C824.200684,181.294449 822.353394,168.867722 818.994507,156.617615 
	C814.678528,140.877090 803.328735,132.217590 789.052551,131.105286 
	C773.646423,129.904968 760.840881,138.971710 755.800598,153.510147 
	C750.289856,169.405716 749.282227,185.902237 748.999939,203.506546 
z"/>
<path fill="#1976D2" opacity="1.000000" stroke="none" 
	d="
M971.997925,257.033691 
	C973.436401,273.367004 978.239197,280.531677 994.979858,282.627075 
	C1005.246216,283.912109 1015.122314,279.245300 1023.593140,272.858002 
	C1025.812988,271.184204 1027.949951,269.347504 1029.870361,267.341675 
	C1033.218506,263.844543 1034.128784,259.667969 1034.111206,254.734070 
	C1033.929810,204.079559 1034.000000,153.424164 1034.000000,102.769020 
	C1034.000000,100.779900 1034.000000,98.790771 1034.000000,96.483528 
	C1053.855591,92.286987 1073.564941,88.121353 1094.000000,83.802322 
	C1094.000000,86.109779 1094.000000,88.028526 1094.000000,89.947266 
	C1094.000000,149.433731 1093.843872,208.920929 1094.119507,268.406128 
	C1094.181519,281.804596 1099.235840,293.872650 1107.848389,305.101410 
	C1102.615601,308.203918 1097.236572,311.469513 1091.784180,314.607452 
	C1084.135742,319.009338 1076.469238,323.382782 1068.740112,327.640594 
	C1063.561157,330.493500 1059.936523,329.601654 1056.344727,324.719055 
	C1052.860962,319.983429 1049.591675,315.085876 1045.977783,310.454956 
	C1045.474243,309.809845 1043.061401,309.715149 1042.333984,310.323730 
	C1028.412720,321.972290 1012.260132,327.252991 994.339478,329.195740 
	C974.561646,331.339874 956.037964,328.187561 938.745605,318.825317 
	C924.233032,310.968018 914.175903,299.203339 912.064819,282.167786 
	C910.993347,273.521606 910.167603,264.788330 910.081665,256.085999 
	C909.581238,205.424789 909.387329,154.760620 908.959473,104.098549 
	C908.861023,92.439613 909.547852,95.148079 918.551147,93.164757 
	C934.160706,89.726151 949.949463,87.097244 965.677429,84.206490 
	C967.242737,83.918800 968.906677,84.167976 971.000000,84.167976 
	C971.000000,86.393028 971.000000,88.354256 971.000000,90.315483 
	C971.000000,141.970398 970.979309,193.625351 971.042969,245.280197 
	C971.047607,249.047592 971.664246,252.814240 971.997925,257.033691 
z"/>
<path fill="#1976D2" opacity="1.000000" stroke="none" 
	d="
M656.008789,95.998360 
	C662.358459,100.344864 668.344971,104.613159 674.778259,109.200058 
	C664.362427,123.228432 654.458374,136.567505 644.168030,150.426834 
	C640.985596,148.009140 637.917053,145.660431 634.830017,143.336197 
	C627.157349,137.559402 618.741272,132.848373 609.145142,132.195969 
	C597.019653,131.371643 586.030151,135.860443 578.908264,148.459076 
	C572.317139,160.118896 569.841003,172.917648 569.065918,186.058441 
	C568.412292,197.139160 567.883057,208.263123 568.113037,219.351044 
	C568.405273,233.442276 569.620728,247.560822 575.111328,260.758484 
	C579.593811,271.533020 587.819214,278.445526 599.335205,280.922119 
	C611.177856,283.469025 622.105164,280.155701 632.099731,274.182800 
	C639.231812,269.920624 645.676147,264.507660 652.596069,259.485748 
	C661.056458,270.745148 669.532288,282.280304 678.337708,293.558167 
	C680.451233,296.265106 679.932129,297.609070 677.827454,299.749878 
	C661.823120,316.029022 642.493042,325.388550 619.855530,328.016693 
	C599.840637,330.340332 580.207703,329.584137 561.093811,322.138092 
	C542.111572,314.743256 527.727844,302.215820 517.412720,284.843872 
	C508.358215,269.594940 503.074097,252.859940 501.241364,235.449326 
	C498.348328,207.966003 498.627563,180.491653 507.960205,153.903702 
	C516.074585,130.786316 529.117981,111.253113 550.354919,98.298782 
	C563.129883,90.506187 577.218140,85.938118 592.167603,83.930176 
	C608.102905,81.789833 623.691406,82.979897 638.856384,88.106552 
	C644.668945,90.071564 650.061523,93.278915 656.008789,95.998360 
z"/>
<path fill="#000000" opacity="1.000000" stroke="none" 
	d="
M99.732872,100.641632 
	C111.278366,101.033012 122.650970,100.540924 133.554871,102.568909 
	C148.876678,105.418556 163.865982,110.081535 178.957901,114.116997 
	C181.512833,114.800171 183.868851,116.227272 186.994888,117.610786 
	C182.834045,107.301666 178.676941,98.137154 175.428680,88.661102 
	C171.528473,77.283188 168.777573,65.528969 170.129135,53.363602 
	C170.528839,49.765987 171.959991,46.039795 173.822311,42.910389 
	C176.068390,39.136150 181.249481,38.864548 186.517960,40.839111 
	C194.808914,43.946468 200.441315,50.365894 205.940308,56.647999 
	C215.563904,67.642029 223.549835,79.836136 229.622330,93.197517 
	C230.752228,95.683647 231.789017,98.212097 232.779205,100.512856 
	C238.200882,91.050003 242.800629,81.289696 248.993820,72.674927 
	C255.881531,63.094090 263.878601,54.227184 272.080444,45.711842 
	C275.878113,41.769020 281.132050,38.671082 287.278381,39.744537 
	C293.187469,40.776558 296.618195,47.726166 296.923126,55.267025 
	C297.544739,70.638702 293.106812,85.035042 287.405365,99.069427 
	C284.985657,105.025703 282.111206,110.797256 279.105042,117.395554 
	C285.150360,115.300026 290.442261,113.291168 295.840424,111.626839 
	C312.724792,106.421120 329.763184,102.219818 347.519226,100.771477 
	C356.503326,100.038651 365.192749,99.896210 373.907257,102.019287 
	C375.317780,102.362923 376.756592,102.828629 378.009277,103.541885 
	C384.714020,107.359474 385.809662,111.035660 380.586517,117.809235 
	C373.279572,127.285110 363.632538,134.115051 352.833923,138.914291 
	C338.389618,145.333801 323.599121,150.974335 308.959045,156.953598 
	C307.343079,157.613586 305.738373,158.301224 302.909546,159.486969 
	C311.019623,162.610504 317.888580,165.343536 324.819397,167.909561 
	C349.172577,176.926010 372.271698,188.387772 392.680817,204.546432 
	C398.468994,209.129135 404.562469,214.036453 407.141602,221.805847 
	C408.695190,226.485825 406.090240,231.261475 402.206268,231.778366 
	C394.250977,232.837112 386.016541,234.678284 378.248322,233.619705 
	C365.064392,231.823074 351.877960,228.895035 339.193939,224.864777 
	C322.617126,219.597580 306.525238,212.802643 290.233978,206.640533 
	C288.769409,206.086563 287.372528,205.353714 284.686371,204.131729 
	C287.335083,209.536667 289.170074,213.764404 291.409058,217.766159 
	C300.935150,234.792145 308.050293,252.834152 314.066406,271.327545 
	C318.586426,285.222107 321.879150,299.445526 321.835449,314.109344 
	C321.817413,320.162628 321.430756,326.626404 316.218109,331.354095 
	C312.371765,334.842590 308.474274,334.680756 302.495453,331.045502 
	C289.360504,323.059113 280.057312,311.437958 271.576141,299.024811 
	C256.056183,276.309601 243.410370,252.139206 234.903183,225.897415 
	C234.713364,225.311890 234.182846,224.836823 233.435623,223.777893 
	C231.213898,229.017670 228.928375,233.753555 227.167603,238.677109 
	C220.518646,257.268951 211.384598,274.630676 200.358246,290.894989 
	C193.189087,301.469757 185.130325,311.506958 176.764893,321.174774 
	C173.128479,325.377350 168.038864,328.648193 163.051849,331.289948 
	C151.999344,337.144806 148.688095,332.850128 146.139328,322.653961 
	C142.688446,308.848907 145.644501,295.099121 149.229477,281.789764 
	C156.056152,256.445435 166.569321,232.548721 179.594772,209.757339 
	C180.259262,208.594666 180.371582,207.116409 180.725143,205.842209 
	C163.319412,212.259155 146.727631,218.940903 129.761642,224.475555 
	C111.986153,230.274323 93.814308,234.857697 74.827263,233.928055 
	C71.294357,233.755066 67.691299,232.999252 64.326302,231.889008 
	C59.397427,230.262787 57.003963,224.471268 60.071392,220.314301 
	C64.308853,214.571747 68.772263,208.527145 74.444305,204.410492 
	C85.917229,196.083694 97.746391,187.918762 110.391800,181.621002 
	C125.647758,174.023102 141.905716,168.438141 157.723434,161.965927 
	C159.550797,161.218231 161.336441,160.368515 163.913467,159.222870 
	C152.058380,154.887619 141.065002,151.416321 130.528473,146.883163 
	C115.490662,140.413391 100.574379,133.509048 88.921677,121.410683 
	C85.449554,117.805779 81.564102,113.709160 83.458763,108.572021 
	C85.422745,103.246910 91.264267,102.224541 96.361717,101.031548 
	C97.317345,100.807915 98.352402,100.923698 99.732872,100.641632 
z"/>
<path fill="#000000" opacity="1.000000" stroke="none" 
	d="
M1194.000000,242.999985 
	C1194.000000,214.189713 1194.064697,185.879120 1193.926880,157.569504 
	C1193.907349,153.553757 1195.154785,151.175034 1198.453613,148.604370 
	C1206.097412,142.647903 1214.257324,138.099167 1223.828857,136.671829 
	C1236.221802,134.823730 1248.371582,134.663086 1257.278198,145.799713 
	C1262.782104,152.681534 1265.222534,161.017273 1265.807251,169.411011 
	C1267.082520,187.721817 1268.186890,206.125809 1267.722534,224.450211 
	C1267.364746,238.571533 1265.044678,252.688141 1257.054199,265.198486 
	C1251.645752,273.666351 1243.698608,277.502502 1234.418579,278.912231 
	C1220.468872,281.031433 1207.975342,276.971985 1196.987183,268.359711 
	C1195.500366,267.194366 1194.234131,264.845551 1194.134033,262.976776 
	C1193.787231,256.500702 1194.000122,249.994629 1194.000000,242.999985 
z"/>
<path fill="#000000" opacity="1.000000" stroke="none" 
	d="
M1466.815796,222.000580 
	C1469.986206,221.624649 1471.096924,222.518555 1471.062988,225.499420 
	C1470.912842,238.658020 1471.000977,251.819321 1470.997437,264.979645 
	C1470.995605,271.712433 1466.977539,276.148529 1461.632568,278.919861 
	C1455.491333,282.104004 1448.957764,284.773651 1442.312256,286.684174 
	C1433.336304,289.264709 1419.651611,282.167267 1415.592163,271.702209 
	C1411.081665,260.074371 1410.533813,247.651382 1417.398071,236.425201 
	C1422.218750,228.541321 1430.462402,225.223572 1439.265747,224.108154 
	C1448.234497,222.971817 1457.308472,222.668304 1466.815796,222.000580 
z"/>
<path fill="#000000" opacity="1.000000" stroke="none" 
	d="
M749.000000,203.008667 
	C749.282227,185.902237 750.289856,169.405716 755.800598,153.510147 
	C760.840881,138.971710 773.646423,129.904968 789.052551,131.105286 
	C803.328735,132.217590 814.678528,140.877090 818.994507,156.617615 
	C822.353394,168.867722 824.200684,181.294449 824.035706,194.033493 
	C823.879822,206.061737 824.800842,218.161484 823.789124,230.106171 
	C822.594543,244.210464 820.671631,258.364502 812.173767,270.594879 
	C806.521484,278.729858 799.220276,282.661041 789.221802,283.158051 
	C777.253845,283.752960 766.977356,280.177856 760.531311,270.509766 
	C756.175720,263.977051 753.386658,255.680771 752.302979,247.840775 
	C750.278015,233.190399 750.003052,218.298157 749.000000,203.008667 
z"/>
</svg>