<svg version="1.1" id="Layer_1" xmlns="http://www.w3.org/2000/svg" xmlns:xlink="http://www.w3.org/1999/xlink" x="0px" y="0px"
	 width="100%" viewBox="0 0 512 512" enable-background="new 0 0 512 512" xml:space="preserve">
<path fill="#FEDAA9" opacity="1.000000" stroke="none" 
	d="
M134.000000,1.000000 
	C200.687561,1.000000 267.375122,1.000000 334.209778,1.278727 
	C336.274567,2.684520 338.192261,3.811587 340.077515,5.408288 
	C340.028717,23.527731 339.943237,41.177864 340.025757,58.827209 
	C340.066071,67.448029 346.220032,73.937187 354.653870,73.997643 
	C371.801605,74.120567 388.951416,73.951973 406.441406,74.096275 
	C409.602203,83.134125 410.130859,92.202072 410.051270,101.444427 
	C409.846100,125.268097 410.000977,149.094864 409.543213,172.945282 
	C374.672791,172.980026 340.266022,172.678055 305.873779,173.249466 
	C298.546692,173.371201 291.272369,176.670120 283.631714,178.654968 
	C262.589722,189.389908 251.375793,206.362350 251.123169,229.535934 
	C250.679962,270.189423 251.012955,310.851196 250.987411,351.509521 
	C250.976227,369.336121 250.882828,387.162689 250.370239,404.992126 
	C241.301468,404.984772 232.689194,404.974609 223.909821,404.655914 
	C221.134094,397.448334 216.872818,392.329651 209.247192,390.533081 
	C210.071594,389.706573 210.822113,389.108704 211.671173,388.734344 
	C220.856552,384.684570 225.199066,377.179382 224.059677,367.246765 
	C223.100540,358.885773 216.607727,352.609467 207.389023,350.653870 
	C214.863846,348.721497 220.432571,344.877808 222.989929,337.689819 
	C227.774734,324.241150 218.190353,311.199066 203.459915,311.125610 
	C180.304291,311.010132 157.147949,311.041077 133.981903,310.540771 
	C133.981247,207.047714 133.990631,104.023857 134.000000,1.000000 
M219.864883,246.844788 
	C219.154556,239.682571 217.287186,232.721878 211.381699,228.301483 
	C206.403152,224.574951 200.536743,221.990646 194.933594,219.157318 
	C190.942184,217.139008 186.563843,215.854370 182.669678,213.683502 
	C178.145401,211.161331 176.503357,206.865936 177.272156,201.754822 
	C178.029587,196.719513 181.096603,193.767456 185.960739,192.647385 
	C193.389023,190.936829 200.496063,191.809982 207.227478,195.468033 
	C211.162338,197.606339 214.379868,196.714691 216.496124,192.840088 
	C218.574905,189.034103 217.714218,185.465271 214.014847,183.357819 
	C210.886688,181.575790 207.359802,179.918091 203.857437,179.510239 
	C199.193924,178.967178 197.229675,177.576614 197.453125,172.517960 
	C197.643967,168.197189 193.977859,165.193298 190.130157,165.221756 
	C186.054398,165.251907 183.132843,168.458862 182.916046,173.169434 
	C182.870148,174.166687 183.210129,175.308212 182.831314,176.135513 
	C182.179153,177.559692 181.374863,179.542648 180.160385,179.982681 
	C169.232285,183.942093 163.460129,191.487656 162.898727,203.156601 
	C162.301407,215.571640 168.209885,223.713104 179.204468,228.589645 
	C183.000946,230.273514 186.990570,231.528366 190.758469,233.268280 
	C194.059525,234.792618 197.482483,236.329788 200.305984,238.553925 
	C206.206665,243.201950 206.389908,249.795517 204.765167,256.353088 
	C203.298355,262.273224 198.648102,264.633240 192.864487,265.326324 
	C184.908157,266.279816 178.026871,264.488525 172.613525,258.229431 
	C170.113083,255.338287 167.247406,253.562637 163.572891,256.466217 
	C160.331177,259.027832 159.388855,263.739044 162.160858,267.171722 
	C164.509674,270.080353 167.471924,272.755157 170.688568,274.632385 
	C174.348953,276.768585 178.592941,277.904816 182.984375,279.633575 
	C182.984375,281.455688 182.791611,283.460968 183.025360,285.415283 
	C183.481842,289.231689 185.925629,291.462738 189.604446,291.806946 
	C193.335388,292.156097 196.039017,290.254944 197.116272,286.593628 
	C197.576324,285.030060 197.246384,283.220306 197.773148,281.694244 
	C198.231277,280.367035 199.187485,278.486938 200.270386,278.210724 
	C213.193069,274.914490 220.698730,263.192383 219.864883,246.844788 
M266.499939,114.633957 
	C271.498657,114.634010 276.497375,114.638420 281.496094,114.633003 
	C287.327728,114.626678 293.166962,114.792053 298.988800,114.547325 
	C304.279663,114.324928 307.303802,111.046219 307.097961,106.365700 
	C306.904663,101.970345 303.753082,99.197243 298.708099,98.995026 
	C298.042633,98.968346 297.375275,98.988022 296.708771,98.988014 
	C252.553482,98.987846 208.398193,98.987686 164.242905,98.989029 
	C163.243286,98.989059 162.237076,98.935532 161.245178,99.027725 
	C156.945312,99.427376 153.983795,102.350159 153.909653,106.399498 
	C153.827042,110.911705 156.165070,113.600960 160.549042,114.368256 
	C162.335312,114.680901 164.197723,114.623573 166.025543,114.624290 
	C199.183670,114.637413 232.341782,114.633698 266.499939,114.633957 
M357.677094,147.010559 
	C357.711243,140.444962 355.303925,137.736496 348.891266,137.729172 
	C305.448242,137.679474 262.005096,137.681778 218.562073,137.725372 
	C212.773697,137.731186 209.644379,140.681931 209.759018,145.574310 
	C209.866852,150.175842 213.050415,153.046494 218.472794,153.051132 
	C261.915863,153.088379 305.358978,153.056992 348.802032,153.096909 
	C352.891052,153.100677 355.923737,151.746719 357.677094,147.010559 
M177.477417,137.692886 
	C171.984680,137.715729 166.483368,137.558395 161.001907,137.818604 
	C156.644531,138.025452 153.927917,141.143753 153.897705,145.290710 
	C153.867722,149.404648 156.631012,152.824188 160.847534,152.941895 
	C169.496292,153.183289 178.159988,153.177994 186.809875,152.964157 
	C190.998627,152.860611 193.938507,149.425201 193.984421,145.442413 
	C194.030365,141.458176 191.133484,138.171982 186.948792,137.814056 
	C184.137909,137.573624 181.293961,137.719543 177.477417,137.692886 
M357.274017,109.513657 
	C358.572632,102.901512 355.716217,99.132652 349.130554,99.011261 
	C343.303314,98.903854 337.471710,98.927971 331.643555,99.006683 
	C326.258392,99.079422 323.025513,101.926926 322.900116,106.509628 
	C322.772491,111.174187 325.821991,114.372063 331.150787,114.561157 
	C337.305084,114.779549 343.516144,115.028587 349.615021,114.406296 
	C352.185303,114.144051 354.531555,111.686348 357.274017,109.513657 
z"/>
<path fill="#7CCC92" opacity="1.000000" stroke="none" 
	d="
M283.973755,178.505310 
	C291.272369,176.670120 298.546692,173.371201 305.873779,173.249466 
	C340.266022,172.678055 374.672791,172.980026 410.011353,172.980042 
	C426.442841,172.997543 441.939545,173.164017 457.430908,172.946793 
	C465.347748,172.835800 472.704132,174.703613 479.711914,178.025665 
	C495.720062,185.614365 506.077515,198.065308 511.025330,215.076035 
	C511.248657,215.843842 512.322388,216.364319 513.000000,217.000000 
	C513.000000,218.714355 513.000000,220.428711 512.727539,222.885361 
	C512.302917,225.102173 512.017944,226.576660 512.017517,228.051224 
	C511.995972,304.628204 511.991974,381.205200 512.040466,457.782166 
	C512.041565,459.521637 512.666199,461.260742 513.000000,463.000000 
	C513.000000,464.714355 513.000000,466.428711 512.685181,468.247345 
	C511.904694,469.161652 511.386017,469.946136 510.981720,470.785736 
	C507.911652,477.161469 504.864014,483.547974 501.434326,489.964050 
	C492.566895,493.345276 483.747437,494.142944 474.662262,494.114838 
	C427.022156,493.967529 379.379883,494.232117 331.742310,493.854218 
	C324.105255,493.793640 316.126923,492.170685 308.978394,489.482697 
	C303.447754,487.403046 298.967560,482.529877 294.434326,478.967163 
	C305.453003,479.231476 316.069092,479.791443 326.657349,479.460602 
	C331.534637,479.308197 333.470062,474.999146 333.689636,470.505920 
	C333.908112,466.034943 333.603943,461.538391 333.636719,456.595581 
	C333.811127,452.477600 334.045837,448.810608 333.904449,445.158203 
	C333.700775,439.896149 330.258606,436.187592 325.173065,436.075195 
	C316.351624,435.880280 307.519928,435.884430 298.698151,436.070862 
	C293.483582,436.181061 290.098999,439.854187 290.021423,445.038116 
	C289.961639,449.030731 290.098572,453.026306 290.097900,457.484253 
	C290.399231,463.957764 290.750671,469.967560 290.748596,475.962830 
	C289.198822,474.862701 287.861847,473.896057 286.828125,472.673096 
	C276.933075,460.966217 274.178406,446.847382 274.144501,432.183441 
	C273.977875,360.132324 273.970978,288.080353 274.163971,216.029373 
	C274.196564,203.857208 275.944794,191.814941 283.067749,181.294418 
	C283.594299,180.516754 283.682037,179.441971 283.973755,178.505310 
M290.046112,391.947388 
	C290.031555,395.928192 289.949219,399.910156 290.017853,403.889526 
	C290.128815,410.317627 293.347137,413.697205 299.853088,413.835419 
	C307.811523,414.004517 315.777893,413.977936 323.737701,413.845978 
	C330.037354,413.741516 333.301270,410.745544 333.688843,404.459442 
	C333.963196,400.010559 333.604065,395.522675 333.742371,390.137146 
	C333.804993,386.329132 334.073273,382.510620 333.879028,378.715759 
	C333.626495,373.781281 330.134277,370.166260 325.333740,370.067688 
	C316.389648,369.883972 307.435822,369.870361 298.492401,370.070190 
	C293.257660,370.187134 290.089783,373.762695 290.019592,379.096069 
	C289.967316,383.069336 290.096558,387.045044 290.046112,391.947388 
M359.996216,391.942657 
	C359.987915,396.254333 359.860565,400.569916 360.001678,404.876678 
	C360.175079,410.169159 363.429688,413.667297 368.732727,413.800446 
	C377.350800,414.016724 385.983490,414.039734 394.599915,413.792450 
	C400.164948,413.632751 403.051941,410.443878 403.206177,404.894928 
	C403.325836,400.588257 403.180023,396.274261 403.435089,391.196533 
	C403.582794,387.222717 404.005676,383.235474 403.812714,379.278290 
	C403.533417,373.550110 400.125610,370.122437 394.759125,370.040070 
	C385.958130,369.904968 377.151581,369.895203 368.351105,370.047516 
	C363.149902,370.137543 360.132874,373.289886 359.981995,378.564056 
	C359.863403,382.709473 360.044434,386.863495 359.996216,391.942657 
M359.994049,458.941101 
	C359.986298,462.925781 359.862671,466.914429 359.999298,470.894165 
	C360.182037,476.216949 363.427185,479.713196 368.720306,479.838715 
	C377.349121,480.043335 385.990936,480.063873 394.618347,479.830811 
	C400.149841,479.681366 403.057373,476.472382 403.207520,470.909393 
	C403.323944,466.597534 403.179626,462.278564 403.435272,457.196198 
	C403.583160,453.230896 403.996185,449.253448 403.814545,445.303284 
	C403.563995,439.852936 400.245544,436.208710 395.266968,436.087769 
	C386.322021,435.870483 377.363831,435.856964 368.419495,436.085724 
	C362.974762,436.225006 360.061768,439.534851 359.960541,445.092194 
	C359.882141,449.396942 360.035889,453.705902 359.994049,458.941101 
M430.785034,321.930359 
	C430.776672,326.405396 430.646820,330.884308 430.790710,335.354462 
	C430.971313,340.963043 433.895874,343.996429 439.442535,344.095306 
	C448.058929,344.248871 456.681732,344.245636 465.298401,344.101990 
	C470.858063,344.009277 473.915314,340.947662 474.045868,335.447113 
	C474.167633,330.316772 473.972351,325.178864 474.073273,319.117798 
	C474.118103,316.138519 474.262665,313.156738 474.186890,310.180511 
	C474.030762,304.045593 471.307922,300.703766 465.302673,300.458588 
	C456.708252,300.107635 448.079498,300.137207 439.483002,300.465179 
	C434.034698,300.673004 430.772095,303.903259 430.409912,309.178864 
	C430.141418,313.089966 430.727722,317.059784 430.785034,321.930359 
M403.437744,321.196838 
	C403.581299,317.225189 404.058075,313.230133 403.780853,309.288086 
	C403.461670,304.749054 401.050568,300.950653 396.225403,300.787659 
	C386.317963,300.452942 376.369934,300.498260 366.473816,301.035583 
	C362.226837,301.266144 359.930695,304.604065 359.960907,309.069946 
	C359.990112,313.384949 360.044312,317.699799 359.996857,322.943970 
	C359.993896,327.254028 359.844543,331.570251 360.026398,335.872498 
	C360.236938,340.854370 363.226624,343.939209 368.210175,344.037506 
	C377.158661,344.214111 386.115631,344.220398 395.063965,344.041351 
	C400.104156,343.940460 403.010071,340.909393 403.175934,335.881317 
	C403.328827,331.246521 403.168610,326.601379 403.437744,321.196838 
M333.558685,322.173676 
	C333.687164,318.034790 334.038330,313.887726 333.885864,309.759186 
	C333.707947,304.940430 331.331360,301.015228 326.302368,300.799469 
	C316.569519,300.381958 306.788696,300.436401 297.057251,300.906281 
	C292.221649,301.139771 290.016205,304.810333 290.009216,309.584259 
	C290.003174,313.730255 290.094696,317.876373 290.046478,322.948700 
	C290.039001,327.093079 289.871368,331.244934 290.063446,335.380035 
	C290.320801,340.919983 293.409088,343.992798 298.865509,344.072845 
	C307.484497,344.199371 316.107880,344.193909 324.727112,344.075378 
	C330.302216,343.998749 333.134644,341.072876 333.302887,335.357239 
	C333.424744,331.218140 333.277771,327.071075 333.558685,322.173676 
M474.065002,450.087952 
	C474.109741,427.932739 474.241852,405.777191 474.155762,383.622498 
	C474.121887,374.903687 469.067139,370.100952 460.427643,370.010010 
	C455.597107,369.959167 450.765625,369.993652 445.934570,370.001251 
	C435.337219,370.017883 430.313019,374.936432 430.247253,385.522644 
	C430.181000,396.183899 430.139404,406.846832 430.256165,417.507202 
	C430.381897,428.986450 430.704041,440.463501 430.785980,452.878784 
	C430.778198,457.031952 430.640991,461.189789 430.789734,465.337341 
	C431.094177,473.825073 436.854675,479.570801 445.377991,479.854340 
	C450.190735,480.014465 455.020966,480.052094 459.829712,479.838379 
	C468.029755,479.473938 473.853424,473.569641 474.057831,465.460480 
	C474.179047,460.650574 473.976868,455.832550 474.065002,450.087952 
M333.967743,206.159134 
	C325.980011,206.143051 317.991058,206.031021 310.004822,206.133118 
	C297.716827,206.290207 290.054596,214.006989 290.008942,226.146683 
	C289.975159,235.133057 289.872620,244.122192 290.042542,253.105530 
	C290.238129,263.446869 297.844208,271.015900 308.110596,271.140472 
	C316.761108,271.245453 325.414764,271.093933 334.871277,271.235474 
	C336.348022,271.450409 337.824615,271.851715 339.301575,271.853088 
	C377.425629,271.888489 415.550079,271.977173 453.673553,271.824554 
	C464.937042,271.779449 472.460938,265.386810 473.471344,254.071945 
	C474.370087,244.007721 474.368958,233.729477 473.432281,223.669800 
	C472.332184,211.855576 464.752441,206.019943 452.732941,206.013962 
	C426.428986,206.000839 400.124969,205.982086 373.821075,206.020782 
	C360.840240,206.039886 347.859589,206.181458 333.967743,206.159134 
z"/>
<path fill="#000000" opacity="1.000000" stroke="none" 
	d="
M0.999998,433.000000 
	C1.000000,289.112366 1.000000,145.224731 1.000000,1.000000 
	C43.686970,1.000000 86.374825,1.000000 129.850281,1.295934 
	C130.175674,2.038192 129.786026,2.737681 129.240692,2.893976 
	C113.794502,7.320879 101.852341,24.713339 101.893311,42.174831 
	C102.103477,131.755844 101.959785,221.337692 101.474594,310.955017 
	C95.016510,310.994110 89.010101,311.254120 83.033737,310.940826 
	C73.947548,310.464508 64.299133,319.646759 63.954792,329.565186 
	C63.572704,340.570801 69.321693,347.039001 78.539169,350.975220 
	C64.776474,354.879150 60.189514,369.909058 66.466125,381.987366 
	C62.093781,382.325562 58.129902,382.378387 54.266918,383.029602 
	C36.047123,386.101288 21.768482,395.269592 11.528563,411.138123 
	C9.138665,416.169586 7.048855,421.034760 4.639257,426.109680 
	C3.212979,428.546295 2.106488,430.773132 0.999998,433.000000 
z"/>
<path fill="#000000" opacity="1.000000" stroke="none" 
	d="
M513.000000,216.531342 
	C512.322388,216.364319 511.248657,215.843842 511.025330,215.076035 
	C506.077515,198.065308 495.720062,185.614365 479.711914,178.025665 
	C472.704132,174.703613 465.347748,172.835800 457.430908,172.946793 
	C441.939545,173.164017 426.442841,172.997543 410.480164,172.955139 
	C410.000977,149.094864 409.846100,125.268097 410.051270,101.444427 
	C410.130859,92.202072 409.602203,83.134125 406.403015,73.735855 
	C403.872437,69.793724 402.199738,65.952171 399.492004,63.089714 
	C382.688873,45.326550 365.720978,27.716976 348.614014,10.246150 
	C346.342102,7.925923 342.971680,6.681356 340.109985,4.938647 
	C338.192261,3.811587 336.274567,2.684520 334.678406,1.278727 
	C394.267395,1.000000 453.534790,1.000000 513.000000,1.000000 
	C513.000000,72.687439 513.000000,144.375061 513.000000,216.531342 
z"/>
<path fill="#4CBA68" opacity="1.000000" stroke="none" 
	d="
M283.631714,178.654953 
	C283.682037,179.441971 283.594299,180.516754 283.067749,181.294418 
	C275.944794,191.814941 274.196564,203.857208 274.163971,216.029373 
	C273.970978,288.080353 273.977875,360.132324 274.144501,432.183441 
	C274.178406,446.847382 276.933075,460.966217 286.828125,472.673096 
	C287.861847,473.896057 289.198822,474.862701 290.717743,475.975128 
	C291.040405,476.001984 291.015198,475.941162 291.032715,476.246643 
	C291.385315,477.036499 291.720428,477.520905 292.023560,478.006897 
	C291.991547,478.008514 291.994568,477.944458 292.177643,478.187805 
	C292.926056,478.615204 293.491394,478.799316 294.025635,478.971710 
	C293.994537,478.959991 294.020355,478.898621 294.020355,478.898621 
	C298.967560,482.529877 303.447754,487.403046 308.978394,489.482697 
	C316.126923,492.170685 324.105255,493.793640 331.742310,493.854218 
	C379.379883,494.232117 427.022156,493.967529 474.662262,494.114838 
	C483.747437,494.142944 492.566895,493.345276 501.414032,490.302399 
	C493.888550,500.271790 484.342621,507.516418 472.232422,511.111145 
	C471.683136,511.274200 471.404633,512.349548 471.000000,513.000000 
	C411.979095,513.000000 352.958221,513.000000 293.657043,512.631958 
	C292.717743,511.849152 292.110870,511.253906 291.392029,511.046234 
	C274.400696,506.137299 262.493835,495.225555 255.303162,479.384003 
	C250.111618,467.946686 249.916122,455.501404 250.283875,442.869141 
	C250.686813,430.055450 250.756775,417.522369 250.826752,404.989258 
	C250.882828,387.162689 250.976227,369.336121 250.987411,351.509521 
	C251.012955,310.851196 250.679962,270.189423 251.123169,229.535934 
	C251.375793,206.362350 262.589722,189.389908 283.631714,178.654953 
z"/>
<path fill="#FFC477" opacity="1.000000" stroke="none" 
	d="
M101.939728,310.919250 
	C101.959785,221.337692 102.103477,131.755844 101.893311,42.174831 
	C101.852341,24.713339 113.794502,7.320879 129.240692,2.893976 
	C129.786026,2.737681 130.175674,2.038192 130.318939,1.295934 
	C131.066666,1.000000 132.133347,1.000000 133.600006,1.000000 
	C133.990631,104.023857 133.981247,207.047714 133.514252,310.558350 
	C122.684334,311.003174 112.312035,310.961212 101.939728,310.919250 
z"/>
<path fill="#000000" opacity="1.000000" stroke="none" 
	d="
M249.950912,443.149719 
	C249.916122,455.501404 250.111618,467.946686 255.303162,479.384003 
	C262.493835,495.225555 274.400696,506.137299 291.392029,511.046234 
	C292.110870,511.253906 292.717743,511.849152 293.188416,512.631958 
	C195.790558,513.000000 98.581131,513.000000 1.000000,513.000000 
	C1.000000,495.980896 1.000000,478.959106 1.357734,461.260345 
	C3.132093,463.763733 4.548718,466.944092 5.962575,470.499603 
	C8.256793,474.925385 10.553781,478.976044 12.935989,483.367065 
	C19.617254,493.155457 28.233324,500.088959 38.634872,505.062531 
	C52.873646,511.870880 67.939415,511.403107 83.533867,510.848022 
	C92.293571,510.190063 100.595139,509.463654 109.362366,508.837280 
	C141.276260,508.957977 172.724670,509.048096 204.172623,508.964294 
	C216.351471,508.931824 225.939987,498.755005 224.920105,486.808594 
	C224.178711,478.124207 218.774841,472.571350 211.243103,468.627991 
	C222.121902,464.493561 227.384537,453.471130 224.525482,443.045593 
	C233.309647,443.056305 241.630280,443.102997 249.950912,443.149719 
z"/>
<path fill="#000000" opacity="1.000000" stroke="none" 
	d="
M471.468628,513.000000 
	C471.404633,512.349548 471.683136,511.274200 472.232422,511.111145 
	C484.342621,507.516418 493.888550,500.271790 501.789062,490.269440 
	C504.864014,483.547974 507.911652,477.161469 510.981720,470.785736 
	C511.386017,469.946136 511.904694,469.161652 512.685181,468.675812 
	C513.000000,483.591644 513.000000,498.183319 513.000000,513.000000 
	C499.313263,513.000000 485.625275,513.000000 471.468628,513.000000 
z"/>
<path fill="#AA6100" opacity="1.000000" stroke="none" 
	d="
M1.000000,454.000000 
	C1.000000,449.310760 1.000000,444.621490 1.464081,439.389160 
	C10.276787,438.900085 18.625414,438.954071 27.019808,439.457703 
	C27.101974,442.900726 27.138374,445.894073 27.117039,449.310364 
	C27.019999,451.156219 26.980690,452.579132 26.476429,454.007385 
	C17.674318,454.008484 9.337159,454.004242 1.000000,454.000000 
z"/>
<path fill="#CA7300" opacity="1.000000" stroke="none" 
	d="
M1.000000,454.437500 
	C9.337159,454.004242 17.674318,454.008484 26.509586,454.414001 
	C28.052673,459.170563 29.097651,463.525879 29.661905,467.911285 
	C22.888971,467.954193 16.591709,467.835541 10.308289,468.077087 
	C8.836583,468.133667 7.411744,469.409546 5.965343,470.124451 
	C4.548718,466.944092 3.132093,463.763733 1.357734,460.791687 
	C1.000000,458.958344 1.000000,456.916656 1.000000,454.437500 
z"/>
<path fill="#CC7401" opacity="1.000000" stroke="none" 
	d="
M26.974041,439.008026 
	C18.625414,438.954071 10.276787,438.900085 1.464081,438.923035 
	C1.000000,437.285645 1.000000,435.571289 0.999998,433.428467 
	C2.106488,430.773132 3.212979,428.546295 4.951941,426.390381 
	C13.553848,426.707001 21.523285,426.952606 29.395733,427.595093 
	C28.523844,431.664001 27.748945,435.335999 26.974041,439.008026 
z"/>
<path fill="#6BC683" opacity="1.000000" stroke="none" 
	d="
M513.000000,462.531342 
	C512.666199,461.260742 512.041565,459.521637 512.040466,457.782166 
	C511.991974,381.205200 511.995972,304.628204 512.017517,228.051224 
	C512.017944,226.576660 512.302917,225.102173 512.727539,223.313828 
	C513.000000,302.687561 513.000000,382.375122 513.000000,462.531342 
z"/>
<path fill="#FFA734" opacity="1.000000" stroke="none" 
	d="
M101.474594,310.955017 
	C112.312035,310.961212 122.684334,311.003174 133.524277,311.027588 
	C157.147949,311.041077 180.304291,311.010132 203.459915,311.125610 
	C218.190353,311.199066 227.774734,324.241150 222.989929,337.689819 
	C220.432571,344.877808 214.863846,348.721497 206.909439,350.696716 
	C163.764648,350.972076 121.337898,350.956879 78.911148,350.941681 
	C69.321693,347.039001 63.572704,340.570801 63.954792,329.565186 
	C64.299133,319.646759 73.947548,310.464508 83.033737,310.940826 
	C89.010101,311.254120 95.016510,310.994110 101.474594,310.955017 
z"/>
<path fill="#FF9811" opacity="1.000000" stroke="none" 
	d="
M78.539169,350.975220 
	C121.337898,350.956879 163.764648,350.972076 206.670990,350.944427 
	C216.607727,352.609467 223.100540,358.885773 224.059677,367.246765 
	C225.199066,377.179382 220.856552,384.684570 211.671173,388.734344 
	C210.822113,389.108704 210.071594,389.706573 208.809464,390.566345 
	C206.219940,390.625458 204.096680,390.055481 201.972534,390.052216 
	C175.562164,390.011444 149.151688,390.053040 122.403183,390.015442 
	C109.410004,383.663727 96.175545,380.599396 81.649162,382.562317 
	C76.504654,382.228607 71.712868,382.103149 66.921089,381.977692 
	C60.189514,369.909058 64.776474,354.879150 78.539169,350.975220 
z"/>
<path fill="#519121" opacity="1.000000" stroke="none" 
	d="
M219.881973,247.294800 
	C220.698730,263.192383 213.193069,274.914490 200.270386,278.210724 
	C199.187485,278.486938 198.231277,280.367035 197.773148,281.694244 
	C197.246384,283.220306 197.576324,285.030060 197.116272,286.593628 
	C196.039017,290.254944 193.335388,292.156097 189.604446,291.806946 
	C185.925629,291.462738 183.481842,289.231689 183.025360,285.415283 
	C182.791611,283.460968 182.984375,281.455688 182.984375,279.633575 
	C178.592941,277.904816 174.348953,276.768585 170.688568,274.632385 
	C167.471924,272.755157 164.509674,270.080353 162.160858,267.171722 
	C159.388855,263.739044 160.331177,259.027832 163.572891,256.466217 
	C167.247406,253.562637 170.113083,255.338287 172.613525,258.229431 
	C178.026871,264.488525 184.908157,266.279816 192.864487,265.326324 
	C198.648102,264.633240 203.298355,262.273224 204.765167,256.353088 
	C206.389908,249.795517 206.206665,243.201950 200.305984,238.553925 
	C197.482483,236.329788 194.059525,234.792618 190.758469,233.268280 
	C186.990570,231.528366 183.000946,230.273514 179.204468,228.589645 
	C168.209885,223.713104 162.301407,215.571640 162.898727,203.156601 
	C163.460129,191.487656 169.232285,183.942093 180.160385,179.982681 
	C181.374863,179.542648 182.179153,177.559692 182.831314,176.135513 
	C183.210129,175.308212 182.870148,174.166687 182.916046,173.169434 
	C183.132843,168.458862 186.054398,165.251907 190.130157,165.221756 
	C193.977859,165.193298 197.643967,168.197189 197.453125,172.517960 
	C197.229675,177.576614 199.193924,178.967178 203.857437,179.510239 
	C207.359802,179.918091 210.886688,181.575790 214.014847,183.357819 
	C217.714218,185.465271 218.574905,189.034103 216.496124,192.840088 
	C214.379868,196.714691 211.162338,197.606339 207.227478,195.468033 
	C200.496063,191.809982 193.389023,190.936829 185.960739,192.647385 
	C181.096603,193.767456 178.029587,196.719513 177.272156,201.754822 
	C176.503357,206.865936 178.145401,211.161331 182.669678,213.683502 
	C186.563843,215.854370 190.942184,217.139008 194.933594,219.157318 
	C200.536743,221.990646 206.403152,224.574951 211.381699,228.301483 
	C217.287186,232.721878 219.154556,239.682571 219.881973,247.294800 
z"/>
<path fill="#EE8701" opacity="1.000000" stroke="none" 
	d="
M122.741226,390.073425 
	C149.151688,390.053040 175.562164,390.011444 201.972534,390.052216 
	C204.096680,390.055481 206.219940,390.625458 208.781342,390.898804 
	C216.872818,392.329651 221.134094,397.448334 223.896820,405.114807 
	C224.504456,419.091187 219.611862,426.232178 207.668427,429.055298 
	C189.140732,429.008240 171.094803,428.995972 152.876221,428.662964 
	C148.256378,420.278015 144.600174,411.616669 139.107590,404.341766 
	C134.839737,398.689026 128.281479,394.765503 122.741226,390.073425 
z"/>
<path fill="#FFB656" opacity="1.000000" stroke="none" 
	d="
M340.077515,5.408283 
	C342.971680,6.681356 346.342102,7.925923 348.614014,10.246150 
	C365.720978,27.716976 382.688873,45.326550 399.492004,63.089714 
	C402.199738,65.952171 403.872437,69.793724 406.061981,73.543091 
	C388.951416,73.951973 371.801605,74.120567 354.653870,73.997643 
	C346.220032,73.937187 340.066071,67.448029 340.025757,58.827209 
	C339.943237,41.177864 340.028717,23.527731 340.077515,5.408283 
z"/>
<path fill="#539222" opacity="1.000000" stroke="none" 
	d="
M265.999939,114.633759 
	C232.341782,114.633698 199.183670,114.637413 166.025543,114.624290 
	C164.197723,114.623573 162.335312,114.680901 160.549042,114.368256 
	C156.165070,113.600960 153.827042,110.911705 153.909653,106.399498 
	C153.983795,102.350159 156.945312,99.427376 161.245178,99.027725 
	C162.237076,98.935532 163.243286,98.989059 164.242905,98.989029 
	C208.398193,98.987686 252.553482,98.987846 296.708771,98.988014 
	C297.375275,98.988022 298.042633,98.968346 298.708099,98.995026 
	C303.753082,99.197243 306.904663,101.970345 307.097961,106.365700 
	C307.303802,111.046219 304.279663,114.324928 298.988800,114.547325 
	C293.166962,114.792053 287.327728,114.626678 281.496094,114.633003 
	C276.497375,114.638420 271.498657,114.634010 265.999939,114.633759 
z"/>
<path fill="#4E901E" opacity="1.000000" stroke="none" 
	d="
M357.543396,147.373596 
	C355.923737,151.746719 352.891052,153.100677 348.802032,153.096909 
	C305.358978,153.056992 261.915863,153.088379 218.472794,153.051132 
	C213.050415,153.046494 209.866852,150.175842 209.759018,145.574310 
	C209.644379,140.681931 212.773697,137.731186 218.562073,137.725372 
	C262.005096,137.681778 305.448242,137.679474 348.891266,137.729172 
	C355.303925,137.736496 357.711243,140.444962 357.543396,147.373596 
z"/>
<path fill="#FFC476" opacity="1.000000" stroke="none" 
	d="
M208.150192,429.090088 
	C219.611862,426.232178 224.504456,419.091187 224.063934,405.423309 
	C232.689194,404.974609 241.301468,404.984772 250.370239,404.992126 
	C250.756775,417.522369 250.686813,430.055450 250.283875,442.869141 
	C241.630280,443.102997 233.309647,443.056305 224.319290,442.767273 
	C220.303436,436.073029 215.783615,431.061279 208.119659,429.685486 
	C208.100616,429.486877 208.150192,429.090088 208.150192,429.090088 
z"/>
<path fill="#4F911F" opacity="1.000000" stroke="none" 
	d="
M177.971115,137.692749 
	C181.293961,137.719543 184.137909,137.573624 186.948792,137.814056 
	C191.133484,138.171982 194.030365,141.458176 193.984421,145.442413 
	C193.938507,149.425201 190.998627,152.860611 186.809875,152.964157 
	C178.159988,153.177994 169.496292,153.183289 160.847534,152.941895 
	C156.631012,152.824188 153.867722,149.404648 153.897705,145.290710 
	C153.927917,141.143753 156.644531,138.025452 161.001907,137.818604 
	C166.483368,137.558395 171.984680,137.715729 177.971115,137.692749 
z"/>
<path fill="#539222" opacity="1.000000" stroke="none" 
	d="
M357.126831,109.870148 
	C354.531555,111.686348 352.185303,114.144051 349.615021,114.406296 
	C343.516144,115.028587 337.305084,114.779549 331.150787,114.561157 
	C325.821991,114.372063 322.772491,111.174187 322.900116,106.509628 
	C323.025513,101.926926 326.258392,99.079422 331.643555,99.006683 
	C337.471710,98.927971 343.303314,98.903854 349.130554,99.011261 
	C355.716217,99.132652 358.572632,102.901512 357.126831,109.870148 
z"/>
<path fill="#3D9AE1" opacity="1.000000" stroke="none" 
	d="
M334.878876,206.267593 
	C347.859589,206.181458 360.840240,206.039886 373.821075,206.020782 
	C400.124969,205.982086 426.428986,206.000839 452.732941,206.013962 
	C464.752441,206.019943 472.332184,211.855576 473.432281,223.669800 
	C474.368958,233.729477 474.370087,244.007721 473.471344,254.071945 
	C472.460938,265.386810 464.937042,271.779449 453.673553,271.824554 
	C415.550079,271.977173 377.425629,271.888489 339.301575,271.853088 
	C337.824615,271.851715 336.348022,271.450409 334.226715,270.895996 
	C324.799438,266.784210 320.726501,260.107880 320.972870,250.571854 
	C321.140076,244.100998 321.405396,237.591919 320.917023,231.153793 
	C320.040283,219.595779 324.017914,211.083115 334.878876,206.267593 
z"/>
<path fill="#FE9812" opacity="1.000000" stroke="none" 
	d="
M430.940491,451.941528 
	C430.704041,440.463501 430.381897,428.986450 430.256165,417.507202 
	C430.139404,406.846832 430.181000,396.183899 430.247253,385.522644 
	C430.313019,374.936432 435.337219,370.017883 445.934570,370.001251 
	C450.765625,369.993652 455.597107,369.959167 460.427643,370.010010 
	C469.067139,370.100952 474.121887,374.903687 474.155762,383.622498 
	C474.241852,405.777191 474.109741,427.932739 473.749817,450.776428 
	C470.053253,458.263824 464.780853,461.748260 456.989105,461.030060 
	C454.844391,460.832367 452.632782,460.755096 450.508881,461.042999 
	C441.993042,462.197296 435.648193,458.876678 430.940491,451.941528 
z"/>
<path fill="#1F82CE" opacity="1.000000" stroke="none" 
	d="
M334.423309,206.213364 
	C324.017914,211.083115 320.040283,219.595779 320.917023,231.153793 
	C321.405396,237.591919 321.140076,244.100998 320.972870,250.571854 
	C320.726501,260.107880 324.799438,266.784210 333.824585,270.806213 
	C325.414764,271.093933 316.761108,271.245453 308.110596,271.140472 
	C297.844208,271.015900 290.238129,263.446869 290.042542,253.105530 
	C289.872620,244.122192 289.975159,235.133057 290.008942,226.146683 
	C290.054596,214.006989 297.716827,206.290207 310.004822,206.133118 
	C317.991058,206.031021 325.980011,206.143051 334.423309,206.213364 
z"/>
<path fill="#328047" opacity="1.000000" stroke="none" 
	d="
M290.143127,322.022461 
	C290.094696,317.876373 290.003174,313.730255 290.009216,309.584259 
	C290.016205,304.810333 292.221649,301.139771 297.057251,300.906281 
	C306.788696,300.436401 316.569519,300.381958 326.302368,300.799469 
	C331.331360,301.015228 333.707947,304.940430 333.885864,309.759186 
	C334.038330,313.887726 333.687164,318.034790 333.008972,322.614685 
	C318.240448,327.355774 304.099091,328.485901 290.143127,322.022461 
z"/>
<path fill="#338048" opacity="1.000000" stroke="none" 
	d="
M360.087524,322.014709 
	C360.044312,317.699799 359.990112,313.384949 359.960907,309.069946 
	C359.930695,304.604065 362.226837,301.266144 366.473816,301.035583 
	C376.369934,300.498260 386.317963,300.452942 396.225403,300.787659 
	C401.050568,300.950653 403.461670,304.749054 403.780853,309.288086 
	C404.058075,313.230133 403.581299,317.225189 402.922119,321.637329 
	C400.078583,323.274017 397.748627,325.498108 395.423035,325.493561 
	C383.559204,325.470245 371.282166,328.880341 360.087524,322.014709 
z"/>
<path fill="#FC9913" opacity="1.000000" stroke="none" 
	d="
M430.933197,321.003448 
	C430.727722,317.059784 430.141418,313.089966 430.409912,309.178864 
	C430.772095,303.903259 434.034698,300.673004 439.483002,300.465179 
	C448.079498,300.137207 456.708252,300.107635 465.302673,300.458588 
	C471.307922,300.703766 474.030762,304.045593 474.186890,310.180511 
	C474.262665,313.156738 474.118103,316.138519 473.747803,319.801788 
	C471.022430,324.700775 467.203278,326.059692 462.593262,326.002808 
	C457.150055,325.935669 451.694794,325.775330 446.264191,326.045441 
	C440.424500,326.335846 435.104004,325.551270 430.933197,321.003448 
z"/>
<path fill="#328047" opacity="1.000000" stroke="none" 
	d="
M360.086426,458.013000 
	C360.035889,453.705902 359.882141,449.396942 359.960541,445.092194 
	C360.061768,439.534851 362.974762,436.225006 368.419495,436.085724 
	C377.363831,435.856964 386.322021,435.870483 395.266968,436.087769 
	C400.245544,436.208710 403.563995,439.852936 403.814545,445.303284 
	C403.996185,449.253448 403.583160,453.230896 402.913940,457.639435 
	C397.975891,461.489655 392.801666,461.351532 387.696564,460.955902 
	C378.468628,460.240814 368.819794,463.343903 360.086426,458.013000 
z"/>
<path fill="#328047" opacity="1.000000" stroke="none" 
	d="
M360.092377,391.013672 
	C360.044434,386.863495 359.863403,382.709473 359.981995,378.564056 
	C360.132874,373.289886 363.149902,370.137543 368.351105,370.047516 
	C377.151581,369.895203 385.958130,369.904968 394.759125,370.040070 
	C400.125610,370.122437 403.533417,373.550110 403.812714,379.278290 
	C404.005676,383.235474 403.582794,387.222717 402.914246,391.639679 
	C398.316864,393.054810 394.180573,395.036896 390.175415,394.800232 
	C380.098602,394.204803 369.336823,398.222900 360.092377,391.013672 
z"/>
<path fill="#328047" opacity="1.000000" stroke="none" 
	d="
M290.144958,391.019653 
	C290.096558,387.045044 289.967316,383.069336 290.019592,379.096069 
	C290.089783,373.762695 293.257660,370.187134 298.492401,370.070190 
	C307.435822,369.870361 316.389648,369.883972 325.333740,370.067688 
	C330.134277,370.166260 333.626495,373.781281 333.879028,378.715759 
	C334.073273,382.510620 333.804993,386.329132 333.324982,390.666138 
	C329.427277,394.581665 325.191193,395.498138 320.515594,395.000000 
	C310.359894,393.917969 299.525543,398.016998 290.144958,391.019653 
z"/>
<path fill="#328047" opacity="1.000000" stroke="none" 
	d="
M290.148010,457.020569 
	C290.098572,453.026306 289.961639,449.030731 290.021423,445.038116 
	C290.098999,439.854187 293.483582,436.181061 298.698151,436.070862 
	C307.519928,435.884430 316.351624,435.880280 325.173065,436.075195 
	C330.258606,436.187592 333.700775,439.896149 333.904449,445.158203 
	C334.045837,448.810608 333.811127,452.477600 333.326477,456.666779 
	C329.453827,460.532623 325.266357,461.561371 320.623688,460.990204 
	C310.455872,459.739410 299.525696,464.325745 290.148010,457.020569 
z"/>
<path fill="#2D7440" opacity="1.000000" stroke="none" 
	d="
M290.097900,457.484253 
	C299.525696,464.325745 310.455872,459.739410 320.623688,460.990204 
	C325.266357,461.561371 329.453827,460.532623 333.218750,457.124268 
	C333.603943,461.538391 333.908112,466.034943 333.689636,470.505920 
	C333.470062,474.999146 331.534637,479.308197 326.657349,479.460602 
	C316.069092,479.791443 305.453003,479.231476 294.434326,478.967163 
	C294.020355,478.898621 293.994537,478.959991 293.859772,478.705383 
	C293.148193,478.281982 292.571381,478.113220 291.994568,477.944458 
	C291.994568,477.944458 291.991547,478.008514 292.058289,477.694702 
	C291.755096,476.900970 291.385162,476.421082 291.015198,475.941162 
	C291.015198,475.941162 291.040405,476.001984 291.071259,475.989685 
	C290.750671,469.967560 290.399231,463.957764 290.097900,457.484253 
z"/>
<path fill="#2D7440" opacity="1.000000" stroke="none" 
	d="
M290.095520,391.483521 
	C299.525543,398.016998 310.359894,393.917969 320.515594,395.000000 
	C325.191193,395.498138 329.427277,394.581665 333.217651,391.123657 
	C333.604065,395.522675 333.963196,400.010559 333.688843,404.459442 
	C333.301270,410.745544 330.037354,413.741516 323.737701,413.845978 
	C315.777893,413.977936 307.811523,414.004517 299.853088,413.835419 
	C293.347137,413.697205 290.128815,410.317627 290.017853,403.889526 
	C289.949219,399.910156 290.031555,395.928192 290.095520,391.483521 
z"/>
<path fill="#ED8802" opacity="1.000000" stroke="none" 
	d="
M430.863220,452.410156 
	C435.648193,458.876678 441.993042,462.197296 450.508881,461.042999 
	C452.632782,460.755096 454.844391,460.832367 456.989105,461.030060 
	C464.780853,461.748260 470.053253,458.263824 473.677368,451.241516 
	C473.976868,455.832550 474.179047,460.650574 474.057831,465.460480 
	C473.853424,473.569641 468.029755,479.473938 459.829712,479.838379 
	C455.020966,480.052094 450.190735,480.014465 445.377991,479.854340 
	C436.854675,479.570801 431.094177,473.825073 430.789734,465.337341 
	C430.640991,461.189789 430.778198,457.031952 430.863220,452.410156 
z"/>
<path fill="#2D7440" opacity="1.000000" stroke="none" 
	d="
M360.044312,391.478149 
	C369.336823,398.222900 380.098602,394.204803 390.175415,394.800232 
	C394.180573,395.036896 398.316864,393.054810 402.772827,392.023163 
	C403.180023,396.274261 403.325836,400.588257 403.206177,404.894928 
	C403.051941,410.443878 400.164948,413.632751 394.599915,413.792450 
	C385.983490,414.039734 377.350800,414.016724 368.732727,413.800446 
	C363.429688,413.667297 360.175079,410.169159 360.001678,404.876678 
	C359.860565,400.569916 359.987915,396.254333 360.044312,391.478149 
z"/>
<path fill="#2D7440" opacity="1.000000" stroke="none" 
	d="
M360.040222,458.477051 
	C368.819794,463.343903 378.468628,460.240814 387.696564,460.955902 
	C392.801666,461.351532 397.975891,461.489655 402.771912,458.022705 
	C403.179626,462.278564 403.323944,466.597534 403.207520,470.909393 
	C403.057373,476.472382 400.149841,479.681366 394.618347,479.830811 
	C385.990936,480.063873 377.349121,480.043335 368.720306,479.838715 
	C363.427185,479.713196 360.182037,476.216949 359.999298,470.894165 
	C359.862671,466.914429 359.986298,462.925781 360.040222,458.477051 
z"/>
<path fill="#EE8700" opacity="1.000000" stroke="none" 
	d="
M430.859131,321.466919 
	C435.104004,325.551270 440.424500,326.335846 446.264191,326.045441 
	C451.694794,325.775330 457.150055,325.935669 462.593262,326.002808 
	C467.203278,326.059692 471.022430,324.700775 473.669464,320.265015 
	C473.972351,325.178864 474.167633,330.316772 474.045868,335.447113 
	C473.915314,340.947662 470.858063,344.009277 465.298401,344.101990 
	C456.681732,344.245636 448.058929,344.248871 439.442535,344.095306 
	C433.895874,343.996429 430.971313,340.963043 430.790710,335.354462 
	C430.646820,330.884308 430.776672,326.405396 430.859131,321.466919 
z"/>
<path fill="#2C733F" opacity="1.000000" stroke="none" 
	d="
M360.042175,322.479340 
	C371.282166,328.880341 383.559204,325.470245 395.423035,325.493561 
	C397.748627,325.498108 400.078583,323.274017 402.776367,322.019287 
	C403.168610,326.601379 403.328827,331.246521 403.175934,335.881317 
	C403.010071,340.909393 400.104156,343.940460 395.063965,344.041351 
	C386.115631,344.220398 377.158661,344.214111 368.210175,344.037506 
	C363.226624,343.939209 360.236938,340.854370 360.026398,335.872498 
	C359.844543,331.570251 359.993896,327.254028 360.042175,322.479340 
z"/>
<path fill="#2C733F" opacity="1.000000" stroke="none" 
	d="
M290.094788,322.485596 
	C304.099091,328.485901 318.240448,327.355774 332.854919,322.991638 
	C333.277771,327.071075 333.424744,331.218140 333.302887,335.357239 
	C333.134644,341.072876 330.302216,343.998749 324.727112,344.075378 
	C316.107880,344.193909 307.484497,344.199371 298.865509,344.072845 
	C293.409088,343.992798 290.320801,340.919983 290.063446,335.380035 
	C289.871368,331.244934 290.039001,327.093079 290.094788,322.485596 
z"/>
<path fill="#CC7501" opacity="1.000000" stroke="none" 
	d="
M66.466125,381.987366 
	C71.712868,382.103149 76.504654,382.228607 81.241943,382.627960 
	C62.493755,385.988800 48.088512,395.784424 36.693039,411.026794 
	C28.085356,411.000885 19.957003,410.986359 11.828650,410.971832 
	C21.768482,395.269592 36.047123,386.101288 54.266918,383.029602 
	C58.129902,382.378387 62.093781,382.325562 66.466125,381.987366 
z"/>
<path fill="#AC6200" opacity="1.000000" stroke="none" 
	d="
M11.528563,411.138123 
	C19.957003,410.986359 28.085356,411.000885 36.613991,411.374207 
	C34.507084,416.888062 31.999897,422.043152 29.492718,427.198242 
	C21.523285,426.952606 13.553848,426.707001 5.271728,426.180664 
	C7.048855,421.034760 9.138665,416.169586 11.528563,411.138123 
z"/>
<path fill="#7CCC92" opacity="1.000000" stroke="none" 
	d="
M291.032715,476.246643 
	C291.385162,476.421082 291.755096,476.900970 292.090302,477.693115 
	C291.720428,477.520905 291.385315,477.036499 291.032715,476.246643 
z"/>
<path fill="#7CCC92" opacity="1.000000" stroke="none" 
	d="
M292.177643,478.187805 
	C292.571381,478.113220 293.148193,478.281982 293.890869,478.717102 
	C293.491394,478.799316 292.926056,478.615204 292.177643,478.187805 
z"/>
<path fill="#AA6100" opacity="1.000000" stroke="none" 
	d="
M211.149612,468.959412 
	C218.774841,472.571350 224.178711,478.124207 224.920105,486.808594 
	C225.939987,498.755005 216.351471,508.931824 204.172623,508.964294 
	C172.724670,509.048096 141.276260,508.957977 109.614670,508.595947 
	C114.232895,506.066284 119.245628,504.202789 123.861809,501.628235 
	C137.197815,494.190369 145.608032,482.430267 152.232651,468.863403 
	C172.197571,468.935333 191.673599,468.947357 211.149612,468.959412 
z"/>
<path fill="#FEA733" opacity="1.000000" stroke="none" 
	d="
M151.743744,468.803497 
	C145.608032,482.430267 137.197815,494.190369 123.861809,501.628235 
	C119.245628,504.202789 114.232895,506.066284 109.149002,508.495911 
	C100.595139,509.463654 92.293571,510.190063 83.227646,510.620728 
	C63.827908,507.368927 48.921459,498.339844 37.821781,482.640137 
	C35.203724,477.501617 32.673180,472.691406 30.142632,467.881165 
	C29.097651,463.525879 28.052673,459.170563 26.974541,454.408661 
	C26.980690,452.579132 27.019999,451.156219 27.569880,449.328674 
	C33.001396,448.913940 37.922344,448.903839 42.958748,449.289429 
	C45.624828,457.153534 46.879349,465.440918 50.979679,471.930084 
	C61.457623,488.512634 77.441330,495.319794 97.338158,493.881378 
	C98.527199,493.621643 99.311562,493.320343 100.123619,493.183746 
	C111.948303,491.194427 121.323746,485.213379 128.665009,475.832275 
	C134.880524,467.889709 137.822540,458.698059 139.615967,448.890442 
	C145.005936,448.907501 149.939819,448.903687 154.917953,449.349823 
	C153.889374,456.134338 152.816559,462.468933 151.743744,468.803497 
z"/>
<path fill="#CC7400" opacity="1.000000" stroke="none" 
	d="
M152.232651,468.863403 
	C152.816559,462.468933 153.889374,456.134338 154.975647,448.900452 
	C154.397293,442.031189 153.805511,436.061249 153.664673,430.066223 
	C172.123322,429.988770 190.131027,429.936462 208.138718,429.884125 
	C215.783615,431.061279 220.303436,436.073029 223.855774,442.803284 
	C227.384537,453.471130 222.121902,464.493561 211.243103,468.627960 
	C191.673599,468.947357 172.197571,468.935333 152.232651,468.863403 
z"/>
<path fill="#CC7400" opacity="1.000000" stroke="none" 
	d="
M37.909290,482.968384 
	C48.921459,498.339844 63.827908,507.368927 82.769501,510.552277 
	C67.939415,511.403107 52.873646,511.870880 38.634872,505.062531 
	C28.233324,500.088959 19.617254,493.155457 13.414966,483.360413 
	C21.842245,482.998322 29.875767,482.983368 37.909290,482.968384 
z"/>
<path fill="#AB6200" opacity="1.000000" stroke="none" 
	d="
M37.821781,482.640137 
	C29.875767,482.983368 21.842245,482.998322 13.329744,483.019989 
	C10.553781,478.976044 8.256793,474.925385 5.962574,470.499603 
	C7.411744,469.409546 8.836583,468.133667 10.308289,468.077087 
	C16.591709,467.835541 22.888971,467.954193 29.661907,467.911285 
	C32.673180,472.691406 35.203724,477.501617 37.821781,482.640137 
z"/>
<path fill="#FEC375" opacity="1.000000" stroke="none" 
	d="
M153.213715,430.091339 
	C153.805511,436.061249 154.397293,442.031189 154.931396,448.450500 
	C149.939819,448.903687 145.005936,448.907501 139.565002,448.448639 
	C138.002045,441.648987 137.798294,435.017242 135.727463,429.031403 
	C129.955368,412.346832 112.451500,399.216064 96.606392,398.933350 
	C85.577789,397.260651 75.627930,399.607086 66.617409,405.087524 
	C50.311001,415.005585 42.792229,429.962097 42.843288,448.893707 
	C37.922344,448.903839 33.001396,448.913940 27.627613,448.905731 
	C27.138374,445.894073 27.101974,442.900726 27.019810,439.457703 
	C27.748945,435.335999 28.523844,431.664001 29.395729,427.595093 
	C31.999897,422.043152 34.507084,416.888062 37.093323,411.385590 
	C48.088512,395.784424 62.493755,385.988800 81.594681,382.836212 
	C96.175545,380.599396 109.410004,383.663727 122.403183,390.015442 
	C128.281479,394.765503 134.839737,398.689026 139.107590,404.341766 
	C144.600174,411.616669 148.256378,420.278015 152.891113,428.943787 
	C153.123672,429.727356 153.168686,429.909363 153.213715,430.091339 
z"/>
<path fill="#E9911F" opacity="1.000000" stroke="none" 
	d="
M153.664673,430.066223 
	C153.168686,429.909363 153.123672,429.727356 153.063751,429.264526 
	C171.094803,428.995972 189.140732,429.008240 207.668427,429.055298 
	C208.150192,429.090088 208.100616,429.486877 208.119659,429.685486 
	C190.131027,429.936462 172.123322,429.988770 153.664673,430.066223 
z"/>
<path fill="#ED8700" opacity="1.000000" stroke="none" 
	d="
M96.996399,399.040405 
	C112.451500,399.216064 129.955368,412.346832 135.727463,429.031403 
	C137.798294,435.017242 138.002045,441.648987 139.108917,448.427765 
	C137.822540,458.698059 134.880524,467.889709 128.665009,475.832275 
	C121.323746,485.213379 111.948303,491.194427 100.123619,493.183746 
	C99.311562,493.320343 98.527199,493.621643 97.092186,493.640869 
	C95.049210,492.928925 93.636856,492.441376 92.239876,491.913147 
	C67.177246,482.436798 55.288193,459.226624 61.262291,434.466766 
	C65.217323,418.074951 75.845100,406.811279 91.988525,401.124359 
	C93.691216,400.524506 95.328674,399.739532 96.996399,399.040405 
M113.909370,457.621979 
	C113.219719,446.567841 106.975899,440.095490 96.831009,436.735718 
	C94.637367,436.009247 92.380257,435.144958 90.536697,433.812408 
	C89.402489,432.992554 88.209465,430.973328 88.483658,429.841797 
	C88.764175,428.684204 90.839508,427.138885 92.066315,427.192841 
	C95.295258,427.334930 98.615379,427.890381 101.669968,428.945038 
	C106.630470,430.657776 111.265785,428.187134 111.973396,422.988281 
	C112.579491,418.535278 110.457085,415.473083 104.922745,413.590973 
	C102.312630,412.703339 100.662155,411.795044 99.352768,408.874695 
	C98.342094,406.620575 94.373436,404.154633 92.048119,404.441681 
	C89.498802,404.756378 87.219551,408.015076 85.031998,410.200470 
	C83.855423,411.375854 83.444847,413.578552 82.128510,414.310852 
	C74.095924,418.779633 72.211121,425.896912 72.993217,434.279633 
	C73.721710,442.087738 78.839615,446.213928 85.509865,449.007355 
	C88.729530,450.355743 92.389885,451.186127 94.982788,453.310425 
	C96.733353,454.744537 97.828957,458.129883 97.556679,460.447266 
	C97.394638,461.826355 93.897552,463.935547 92.109573,463.745270 
	C89.243141,463.440277 86.164192,461.979279 83.877190,460.135773 
	C80.603119,457.496674 77.493782,457.121643 74.376175,459.506317 
	C71.367104,461.807922 69.765526,465.411194 72.053764,468.713531 
	C74.212532,471.829041 77.631386,474.057831 80.418396,476.756744 
	C82.081146,478.366882 83.427605,480.339417 85.216782,481.774323 
	C87.541466,483.638702 90.125137,486.337158 92.671501,486.420868 
	C94.916595,486.494690 97.424240,483.645630 99.504539,481.746216 
	C100.727325,480.629730 100.988098,478.110565 102.288681,477.485382 
	C110.362183,473.604706 113.082291,466.663483 113.909370,457.621979 
z"/>
<path fill="#CD7501" opacity="1.000000" stroke="none" 
	d="
M96.606384,398.933350 
	C95.328674,399.739532 93.691216,400.524506 91.988525,401.124359 
	C75.845100,406.811279 65.217323,418.074951 61.262291,434.466766 
	C55.288193,459.226624 67.177246,482.436798 92.239876,491.913147 
	C93.636856,492.441376 95.049210,492.928925 96.700386,493.675903 
	C77.441330,495.319794 61.457623,488.512634 50.979679,471.930084 
	C46.879349,465.440918 45.624828,457.153534 42.958748,449.289429 
	C42.792229,429.962097 50.311001,415.005585 66.617409,405.087524 
	C75.627930,399.607086 85.577789,397.260651 96.606384,398.933350 
z"/>
<path fill="#AB6200" opacity="1.000000" stroke="none" 
	d="
M113.914017,458.047668 
	C113.082291,466.663483 110.362183,473.604706 102.288681,477.485382 
	C100.988098,478.110565 100.727325,480.629730 99.504539,481.746216 
	C97.424240,483.645630 94.916595,486.494690 92.671501,486.420868 
	C90.125137,486.337158 87.541466,483.638702 85.216782,481.774323 
	C83.427605,480.339417 82.081146,478.366882 80.418396,476.756744 
	C77.631386,474.057831 74.212532,471.829041 72.053764,468.713531 
	C69.765526,465.411194 71.367104,461.807922 74.376175,459.506317 
	C77.493782,457.121643 80.603119,457.496674 83.877190,460.135773 
	C86.164192,461.979279 89.243141,463.440277 92.109573,463.745270 
	C93.897552,463.935547 97.394638,461.826355 97.556679,460.447266 
	C97.828957,458.129883 96.733353,454.744537 94.982788,453.310425 
	C92.389885,451.186127 88.729530,450.355743 85.509865,449.007355 
	C78.839615,446.213928 73.721710,442.087738 72.993217,434.279633 
	C72.211121,425.896912 74.095924,418.779633 82.128510,414.310852 
	C83.444847,413.578552 83.855423,411.375854 85.031998,410.200470 
	C87.219551,408.015076 89.498802,404.756378 92.048119,404.441681 
	C94.373436,404.154633 98.342094,406.620575 99.352768,408.874695 
	C100.662155,411.795044 102.312630,412.703339 104.922745,413.590973 
	C110.457085,415.473083 112.579491,418.535278 111.973396,422.988281 
	C111.265785,428.187134 106.630470,430.657776 101.669968,428.945038 
	C98.615379,427.890381 95.295258,427.334930 92.066315,427.192841 
	C90.839508,427.138885 88.764175,428.684204 88.483658,429.841797 
	C88.209465,430.973328 89.402489,432.992554 90.536697,433.812408 
	C92.380257,435.144958 94.637367,436.009247 96.831009,436.735718 
	C106.975899,440.095490 113.219719,446.567841 113.914017,458.047668 
z"/>
</svg>