<svg version="1.1" id="Layer_1" xmlns="http://www.w3.org/2000/svg" xmlns:xlink="http://www.w3.org/1999/xlink" x="0px" y="0px"
	 width="100%" viewBox="0 0 512 512" enable-background="new 0 0 512 512" xml:space="preserve">
<path fill="#000000" opacity="1.000000" stroke="none" 
	d="
M439.000000,0.999999 
	C463.650299,1.000000 488.300629,1.000000 512.947693,1.000003 
	C512.944458,171.666672 512.944458,342.333344 512.944458,513.000000 
	C488.571686,513.000000 464.254486,513.000000 439.460571,512.607910 
	C439.655487,508.848511 440.908691,505.482056 440.913391,502.113861 
	C441.023499,423.160278 440.999329,344.206482 440.997833,265.252747 
	C440.997681,257.204742 440.991821,257.204742 432.990326,256.418884 
	C432.992889,251.017319 432.988037,246.071060 433.422821,241.088837 
	C436.172882,240.354446 440.206329,240.053192 440.475800,238.884277 
	C441.337982,235.144073 440.956299,231.071671 440.679596,227.153976 
	C440.626160,226.397858 438.960815,225.415771 437.888062,225.152054 
	C436.324921,224.767776 434.624878,224.940155 432.990540,224.416382 
	C432.992828,219.013611 432.987854,214.069656 433.423889,209.091782 
	C440.975616,208.860977 440.994720,208.860977 440.995331,201.869217 
	C441.000702,139.942719 441.045044,78.016106 440.912506,16.089884 
	C440.901764,11.058580 439.666351,6.029898 439.000000,0.999999 
z"/>
<path fill="#000000" opacity="1.000000" stroke="none" 
	d="
M75.000000,513.000000 
	C50.349693,513.000000 25.699385,513.000000 1.052294,513.000000 
	C1.055511,342.333313 1.055511,171.666656 1.055511,1.000000 
	C25.428242,1.000000 49.745461,1.000000 74.504120,1.389107 
	C74.297417,5.488563 73.084549,9.198582 73.082390,12.909307 
	C72.988182,174.732040 72.983635,336.554810 73.084984,498.377533 
	C73.088036,503.252106 74.333687,508.125854 75.000000,513.000000 
z"/>
<path fill="#383838" opacity="1.000000" stroke="none" 
	d="
M75.463181,513.000000 
	C74.333687,508.125854 73.088036,503.252106 73.084984,498.377533 
	C72.983635,336.554810 72.988182,174.732040 73.082390,12.909307 
	C73.084549,9.198582 74.297417,5.488563 74.972778,1.389107 
	C196.020889,1.000000 317.041779,1.000000 438.531342,0.999999 
	C439.666351,6.029898 440.901764,11.058580 440.912506,16.089884 
	C441.045044,78.016106 441.000702,139.942719 440.995331,201.869217 
	C440.994720,208.860977 440.975616,208.860977 432.974915,209.041229 
	C429.830444,209.024628 427.575989,209.024628 424.788422,209.024628 
	C424.788422,144.632874 424.788422,80.948143 424.788422,17.000801 
	C422.591400,17.000801 420.941132,17.000801 419.290894,17.000801 
	C316.193665,17.000797 213.096451,17.000019 109.999237,17.007669 
	C108.336990,17.007792 106.674736,17.111063 104.548538,17.101170 
	C99.159637,17.036140 94.234688,17.036140 89.290993,17.036140 
	C89.290993,175.931931 89.290993,334.120880 89.290993,492.920349 
	C98.022041,489.325134 106.353714,486.052856 114.542435,482.455231 
	C118.596207,480.674286 122.118332,480.867920 125.863739,483.202759 
	C131.512878,486.724304 137.426346,489.823883 143.051651,493.380829 
	C145.918289,495.193481 148.190109,495.454651 151.195206,493.510895 
	C156.920349,489.807709 163.029205,486.702362 168.814178,483.085571 
	C172.828339,480.575867 176.483643,480.619537 180.466248,483.075378 
	C186.132980,486.569794 192.048141,489.667053 197.655823,493.249176 
	C200.682602,495.182709 203.086761,495.437408 206.239151,493.390350 
	C211.957657,489.676941 218.047089,486.540131 223.859863,482.964569 
	C227.697968,480.603699 231.237534,480.606140 235.070908,482.957672 
	C240.746033,486.438995 246.677246,489.511871 252.270432,493.114197 
	C255.452713,495.163788 257.972656,495.466400 261.295868,493.289276 
	C266.998077,489.553558 273.092377,486.422394 278.920013,482.870026 
	C282.588776,480.633636 285.997437,480.594055 289.680817,482.834564 
	C295.795837,486.554260 302.095459,489.972473 308.180359,493.738953 
	C310.793335,495.356293 312.843567,495.284698 315.449890,493.654510 
	C321.516541,489.860016 327.834320,486.469543 333.960236,482.766296 
	C337.472687,480.642975 340.780334,480.584900 344.280182,482.709259 
	C348.406708,485.213989 352.992096,487.113617 356.712067,490.104553 
	C363.568665,495.617462 369.211792,494.662842 376.636078,490.219421 
	C397.274170,477.867737 388.867950,478.662964 411.883270,487.670959 
	C416.093628,489.318787 420.286407,491.011536 424.832764,492.821014 
	C424.832764,485.619904 424.832764,479.301270 424.899048,472.519226 
	C424.965363,400.492706 424.965363,328.929626 424.965363,256.874237 
	C428.045837,256.874237 430.514374,256.874237 432.982910,256.874237 
	C440.991821,257.204742 440.997681,257.204742 440.997833,265.252747 
	C440.999329,344.206482 441.023499,423.160278 440.913391,502.113861 
	C440.908691,505.482056 439.655487,508.848511 438.991943,512.607910 
	C434.975464,513.000000 430.950897,513.000000 426.423462,512.647461 
	C424.709259,511.511169 423.579651,510.537292 422.272980,509.975098 
	C415.129852,506.902008 407.882843,504.064148 400.794617,500.872070 
	C396.675262,499.016968 393.132812,498.642090 389.305237,501.741913 
	C386.652435,503.890411 383.199646,505.020020 380.341858,506.955566 
	C377.728729,508.725494 375.434662,510.966553 373.000000,513.000000 
	C369.307098,513.000000 365.614166,513.000000 361.428955,512.654419 
	C354.333832,508.231140 347.779724,504.069611 341.072998,500.170685 
	C340.123108,499.618469 338.224945,499.956757 337.115723,500.544006 
	C331.558289,503.486359 326.073059,506.574493 320.671539,509.794434 
	C319.544556,510.466248 318.878479,511.911285 318.000000,513.000000 
	C314.307098,513.000000 310.614166,513.000000 306.429352,512.654541 
	C300.501892,508.904388 294.931458,505.692993 289.677917,502.027405 
	C286.137085,499.556763 283.129791,499.047882 279.466644,501.739014 
	C274.110779,505.673706 268.501343,509.263306 263.000000,513.000000 
	C259.307098,513.000000 255.614182,513.000000 251.429993,512.655640 
	C248.231949,510.500031 245.298264,508.949860 242.859161,506.830536 
	C233.987885,499.122314 225.351028,498.444397 216.450806,506.809235 
	C213.925278,509.182892 210.832565,510.953064 208.000000,513.000000 
	C204.307098,513.000000 200.614182,513.000000 196.432312,512.655334 
	C192.255035,509.855927 188.184448,507.819031 184.954041,504.863708 
	C177.011414,497.597504 169.890259,500.481903 162.696442,505.846130 
	C159.476501,508.247131 156.232864,510.616333 153.000000,513.000000 
	C149.307098,513.000000 145.614182,513.000000 141.448975,512.647583 
	C136.495026,509.302124 131.992264,506.340088 127.537117,503.308075 
	C121.979668,499.525940 116.569313,498.107239 110.232773,502.181213 
	C106.553070,504.547028 101.899506,505.340881 97.873619,507.243073 
	C94.441841,508.864532 91.280807,511.059021 88.000000,513.000000 
	C83.975456,513.000000 79.950912,513.000000 75.463181,513.000000 
z"/>
<path fill="#000000" opacity="1.000000" stroke="none" 
	d="
M373.468658,513.000000 
	C375.434662,510.966553 377.728729,508.725494 380.341858,506.955566 
	C383.199646,505.020020 386.652435,503.890411 389.305237,501.741913 
	C393.132812,498.642090 396.675262,499.016968 400.794617,500.872070 
	C407.882843,504.064148 415.129852,506.902008 422.272980,509.975098 
	C423.579651,510.537292 424.709259,511.511169 425.960297,512.647461 
	C408.645782,513.000000 391.291534,513.000000 373.468658,513.000000 
z"/>
<path fill="#000000" opacity="1.000000" stroke="none" 
	d="
M88.468658,513.000000 
	C91.280807,511.059021 94.441841,508.864532 97.873619,507.243073 
	C101.899506,505.340881 106.553070,504.547028 110.232773,502.181213 
	C116.569313,498.107239 121.979668,499.525940 127.537117,503.308075 
	C131.992264,506.340088 136.495026,509.302124 140.988327,512.647583 
	C123.645775,513.000000 106.291542,513.000000 88.468658,513.000000 
z"/>
<path fill="#000000" opacity="1.000000" stroke="none" 
	d="
M318.468628,513.000000 
	C318.878479,511.911285 319.544556,510.466248 320.671539,509.794434 
	C326.073059,506.574493 331.558289,503.486359 337.115723,500.544006 
	C338.224945,499.956757 340.123108,499.618469 341.072998,500.170685 
	C347.779724,504.069611 354.333832,508.231140 360.968323,512.654419 
	C346.979095,513.000000 332.958221,513.000000 318.468628,513.000000 
z"/>
<path fill="#000000" opacity="1.000000" stroke="none" 
	d="
M153.468658,513.000000 
	C156.232864,510.616333 159.476501,508.247131 162.696442,505.846130 
	C169.890259,500.481903 177.011414,497.597504 184.954041,504.863708 
	C188.184448,507.819031 192.255035,509.855927 195.971680,512.655334 
	C181.979111,513.000000 167.958206,513.000000 153.468658,513.000000 
z"/>
<path fill="#000000" opacity="1.000000" stroke="none" 
	d="
M208.468658,513.000000 
	C210.832565,510.953064 213.925278,509.182892 216.450806,506.809235 
	C225.351028,498.444397 233.987885,499.122314 242.859161,506.830536 
	C245.298264,508.949860 248.231949,510.500031 250.969345,512.655640 
	C236.979111,513.000000 222.958206,513.000000 208.468658,513.000000 
z"/>
<path fill="#000000" opacity="1.000000" stroke="none" 
	d="
M263.468628,513.000000 
	C268.501343,509.263306 274.110779,505.673706 279.466644,501.739014 
	C283.129791,499.047882 286.137085,499.556763 289.677917,502.027405 
	C294.931458,505.692993 300.501892,508.904388 305.968719,512.654541 
	C291.979095,513.000000 277.958221,513.000000 263.468628,513.000000 
z"/>
<path fill="#F4B400" opacity="1.000000" stroke="none" 
	d="
M432.990326,256.418884 
	C430.514374,256.874237 428.045837,256.874237 424.965363,256.874237 
	C424.965363,328.929626 424.965363,400.492706 424.453766,472.521179 
	C411.345612,471.893951 398.662750,471.401306 386.167450,469.604462 
	C333.069153,461.968689 284.726349,442.339935 241.098236,410.543396 
	C241.032471,407.172333 241.032471,404.254730 241.032471,400.830261 
	C235.912125,400.830261 231.471527,400.830261 226.829010,400.572235 
	C225.410858,399.199982 224.172379,398.108978 222.981949,396.967865 
	C213.319214,387.705566 203.665466,378.433899 194.473160,369.098846 
	C215.489944,369.032593 236.042526,369.032593 256.626770,369.032593 
	C256.626770,363.341766 256.626770,358.306244 256.626770,352.834076 
	C230.507462,352.834076 204.760117,352.834076 178.823059,352.566711 
	C177.225250,350.474670 175.726456,348.712219 174.424667,346.814606 
	C168.571365,338.282440 162.773972,329.711914 157.426544,321.093048 
	C190.783035,321.030884 223.669434,321.030884 256.640625,321.030884 
	C256.640625,315.377167 256.640625,310.339142 256.640625,305.000061 
	C254.140884,305.000061 251.998337,305.003052 249.855774,304.999573 
	C215.251770,304.943359 180.647751,304.886322 145.945206,304.493286 
	C140.902435,293.826752 135.958191,283.496399 131.477600,273.099487 
	C173.482391,273.032928 215.023560,273.032928 256.635315,273.032928 
	C256.635315,267.368469 256.635315,262.327545 256.635315,257.000061 
	C248.138748,257.000061 240.003876,257.010376 231.869019,256.998199 
	C195.930206,256.944458 159.991379,256.884277 123.999817,256.452545 
	C120.969444,245.774551 117.991829,235.470398 115.477821,225.099731 
	C162.854507,225.033218 209.767563,225.033218 256.747711,225.033218 
	C256.747711,219.370239 256.747711,214.442596 256.747711,209.282776 
	C208.771500,209.282776 161.047668,209.282776 113.205734,209.282776 
	C113.069580,211.364380 112.951286,213.172806 112.685516,214.637665 
	C110.027168,194.528763 105.812584,174.803329 105.348412,154.990036 
	C104.272667,109.071335 105.010139,63.110161 105.012489,17.166201 
	C106.674736,17.111063 108.336990,17.007792 109.999237,17.007669 
	C213.096451,17.000019 316.193665,17.000797 419.290894,17.000801 
	C420.941132,17.000801 422.591400,17.000801 424.788422,17.000801 
	C424.788422,80.948143 424.788422,144.632874 424.788422,209.024628 
	C427.575989,209.024628 429.830444,209.024628 432.533875,209.075165 
	C432.987854,214.069656 432.992828,219.013611 432.541595,224.466888 
	C429.846100,224.976242 427.606812,224.976242 425.318420,224.976242 
	C425.318420,230.654083 425.318420,235.676193 425.318420,241.124817 
	C428.083862,241.124817 430.533539,241.124817 432.983215,241.124817 
	C432.988037,246.071060 432.992889,251.017319 432.990326,256.418884 
M354.546234,337.001343 
	C361.964020,337.001343 369.381836,337.001343 376.703186,337.001343 
	C376.703186,331.273132 376.703186,326.344513 376.703186,320.836060 
	C371.361664,320.836060 366.306335,320.836060 360.858826,320.836060 
	C360.858826,315.318237 360.858826,310.381836 360.858826,305.353912 
	C355.395569,305.353912 350.350159,305.353912 344.998657,305.353912 
	C344.998657,308.184570 344.998657,310.662506 344.998657,313.140411 
	C344.998657,315.595306 344.998657,318.050171 344.998657,320.998535 
	C343.047119,320.998535 341.595428,320.987854 340.143890,321.000275 
	C331.318787,321.075897 329.008240,323.425751 329.000458,332.354523 
	C328.992737,341.184479 328.970490,350.014526 329.007996,358.844330 
	C329.039520,366.268738 331.800446,368.965027 339.351013,368.994965 
	C346.450348,369.023102 353.549896,369.000977 360.589172,369.000977 
	C360.589172,374.715271 360.589172,379.763641 360.589172,385.203613 
	C349.919617,385.203613 339.655518,385.203613 329.384613,385.203613 
	C329.384613,390.669495 329.384613,395.717163 329.384613,401.162872 
	C334.699799,401.162872 339.635315,401.162872 345.140137,401.162872 
	C345.140137,406.615967 345.140137,411.673370 345.140137,416.734985 
	C350.660919,416.734985 355.589142,416.734985 361.092865,416.734985 
	C361.092865,411.423492 361.092865,406.361084 361.092865,401.001587 
	C362.984314,401.001587 364.294586,401.011047 365.604675,401.000061 
	C374.746643,400.923401 376.992340,398.636841 376.999908,389.380432 
	C377.006592,381.216888 377.004547,373.053375 377.000427,364.889832 
	C376.995514,355.124054 374.832886,353.003174 364.883118,352.999176 
	C358.306274,352.996521 351.729462,352.998688 345.328125,352.998688 
	C345.328125,347.216309 345.328125,342.290131 345.328125,337.001343 
	C348.287811,337.001343 350.924683,337.001343 354.546234,337.001343 
M122.545746,161.000061 
	C119.454094,161.000061 116.362434,161.000061 113.263344,161.000061 
	C113.263344,166.657791 113.263344,171.583389 113.263344,176.720856 
	C174.529388,176.720856 235.531998,176.720856 296.645813,176.720856 
	C296.645813,171.394897 296.645813,166.352570 296.645813,161.000061 
	C238.705475,161.000061 181.118713,161.000061 122.545746,161.000061 
M185.003250,101.499901 
	C185.003250,89.420235 185.003250,77.340576 185.003250,65.266907 
	C179.327103,65.266907 174.400711,65.266907 168.804199,65.266907 
	C168.804199,74.631721 168.804199,83.745262 168.804199,94.262367 
	C162.951050,85.484261 157.922729,78.045815 153.009842,70.531891 
	C150.553925,66.775749 147.641785,63.913319 142.782333,65.401634 
	C138.024704,66.858757 136.909897,70.640930 136.953827,75.246796 
	C137.077698,88.234138 136.996872,101.223427 136.996765,114.211952 
	C136.996719,118.991524 136.996750,123.771095 136.996750,128.651215 
	C142.600189,128.651215 147.643158,128.651215 153.147125,128.651215 
	C153.147125,119.271194 153.147125,110.237328 153.147125,99.641678 
	C159.145844,108.642883 164.304779,116.324875 169.396622,124.051071 
	C171.695541,127.539391 174.639191,129.867981 178.967926,128.662979 
	C183.445511,127.416542 185.104172,124.000870 185.025177,119.484352 
	C184.926163,113.824440 185.002579,108.161446 185.003250,101.499901 
M248.997986,100.499954 
	C248.999161,106.998222 248.919556,113.497810 249.025406,119.994370 
	C249.121643,125.900955 252.099899,128.889847 258.003235,128.973969 
	C265.333130,129.078415 272.666779,129.078659 279.996674,128.973862 
	C285.886444,128.889648 288.934631,125.889267 288.968506,119.985367 
	C289.056488,104.656586 289.056396,89.326637 288.968994,73.997849 
	C288.935303,68.091370 285.898743,65.112984 279.987823,65.026260 
	C272.824585,64.921158 265.658112,64.945892 258.494019,65.015923 
	C251.964432,65.079742 249.067886,67.975876 249.015579,74.506706 
	C248.948883,82.837311 248.998505,91.168846 248.997986,100.499954 
M395.361267,113.000122 
	C389.404694,113.000122 383.448090,113.000122 377.321228,113.000122 
	C377.321228,110.121330 377.321228,107.746628 377.321228,104.790001 
	C385.353790,104.790001 393.080505,104.790001 400.699707,104.790001 
	C400.699707,99.269569 400.699707,94.341713 400.699707,88.850677 
	C392.680511,88.850677 384.946564,88.850677 377.263489,88.850677 
	C377.263489,86.006744 377.263489,83.738998 377.263489,80.893188 
	C385.235992,80.893188 392.964966,80.893188 400.575867,80.893188 
	C400.575867,75.253693 400.575867,70.205246 400.575867,65.320831 
	C387.225525,65.320831 374.301208,65.320831 361.390991,65.320831 
	C361.390991,86.683151 361.390991,107.722298 361.390991,128.999939 
	C368.265045,128.999939 374.750366,128.999954 381.235718,128.999954 
	C387.677948,128.999954 394.120148,128.999939 400.776123,128.999939 
	C400.776123,123.499458 400.776123,118.573463 400.776123,113.301025 
	C399.209473,113.195122 397.768494,113.097717 395.361267,113.000122 
M237.485382,111.866486 
	C238.658020,108.894211 240.697693,105.963272 240.841751,102.941948 
	C241.285202,93.642624 241.003754,84.308723 241.003952,74.988258 
	C241.004013,71.737114 241.003952,68.485970 241.003952,65.273834 
	C235.308365,65.273834 230.383759,65.273834 224.996033,65.273834 
	C224.996033,75.322952 224.456528,85.141289 225.173447,94.867004 
	C225.709167,102.134628 221.662018,105.600410 217.076492,109.018517 
	C210.562759,105.177094 208.309280,99.939522 208.845108,92.635651 
	C209.508545,83.592308 209.003967,74.463280 209.003967,65.385971 
	C203.316559,65.385971 198.272278,65.385971 192.996048,65.385971 
	C192.996048,72.252884 193.832291,78.863396 192.834839,85.184563 
	C190.145721,102.226448 195.991653,115.227798 209.753433,125.085495 
	C210.020584,125.276840 210.224030,125.555168 210.466995,125.782425 
	C215.103287,130.118576 218.947952,130.183838 223.524338,125.771683 
	C228.076645,121.382736 232.488022,116.847618 237.485382,111.866486 
M320.998566,91.500214 
	C320.999664,100.983192 321.026825,110.466270 320.990662,119.949104 
	C320.973206,124.529976 322.952118,128.329437 327.463013,128.654129 
	C335.831512,129.256485 344.274292,128.826691 352.584717,128.826691 
	C352.584717,123.254990 352.584717,118.210167 352.584717,112.782494 
	C347.242279,112.782494 342.315399,112.782494 337.374023,112.782494 
	C337.374023,102.005608 337.374023,91.638565 337.374023,80.873581 
	C342.668732,80.873581 347.600006,80.873581 352.664459,80.873581 
	C352.664459,75.424812 352.664459,70.385719 352.664459,65.002205 
	C344.871124,65.002205 337.409180,64.919052 329.950104,65.028732 
	C324.063049,65.115280 321.128021,68.110451 321.022125,74.030296 
	C320.923950,79.518707 320.999512,85.010231 320.998566,91.500214 
M113.000076,106.499947 
	C113.000076,113.908295 113.000076,121.316635 113.000076,128.746613 
	C118.648911,128.746613 123.568504,128.746613 128.724731,128.746613 
	C128.724731,107.486366 128.724731,86.479736 128.724731,65.341400 
	C123.409538,65.341400 118.373627,65.341400 113.000076,65.341400 
	C113.000076,78.953232 113.000076,92.226601 113.000076,106.499947 
M312.999939,120.438667 
	C312.999939,102.058830 312.999939,83.679001 312.999939,65.426109 
	C307.236084,65.426109 302.195404,65.426109 297.273193,65.426109 
	C297.273193,86.743935 297.273193,107.634766 297.273193,128.659744 
	C302.587921,128.659744 307.623169,128.659744 312.999939,128.659744 
	C312.999939,126.024796 312.999939,123.720558 312.999939,120.438667 
M288.965729,367.209106 
	C288.965729,362.620911 288.965729,358.032715 288.965729,353.328979 
	C283.409760,353.328979 278.385284,353.328979 273.376953,353.328979 
	C273.376953,358.690857 273.376953,363.718445 273.376953,369.383911 
	C278.801758,368.950043 283.812500,368.549316 288.965729,367.209106 
z"/>
<path fill="#383838" opacity="1.000000" stroke="none" 
	d="
M433.422821,241.088837 
	C430.533539,241.124817 428.083862,241.124817 425.318420,241.124817 
	C425.318420,235.676193 425.318420,230.654083 425.318420,224.976242 
	C427.606812,224.976242 429.846100,224.976242 432.534302,224.925720 
	C434.624878,224.940155 436.324921,224.767776 437.888062,225.152054 
	C438.960815,225.415771 440.626160,226.397858 440.679596,227.153976 
	C440.956299,231.071671 441.337982,235.144073 440.475800,238.884277 
	C440.206329,240.053192 436.172882,240.354446 433.422821,241.088837 
z"/>
<path fill="#F29500" opacity="1.000000" stroke="none" 
	d="
M241.163971,410.996918 
	C284.726349,442.339935 333.069153,461.968689 386.167450,469.604462 
	C398.662750,471.401306 411.345612,471.893951 424.387451,472.984619 
	C424.832764,479.301270 424.832764,485.619904 424.832764,492.821014 
	C420.286407,491.011536 416.093628,489.318787 411.883270,487.670959 
	C388.867950,478.662964 397.274170,477.867737 376.636078,490.219421 
	C369.211792,494.662842 363.568665,495.617462 356.712067,490.104553 
	C352.992096,487.113617 348.406708,485.213989 344.280182,482.709259 
	C340.780334,480.584900 337.472687,480.642975 333.960236,482.766296 
	C327.834320,486.469543 321.516541,489.860016 315.449890,493.654510 
	C312.843567,495.284698 310.793335,495.356293 308.180359,493.738953 
	C302.095459,489.972473 295.795837,486.554260 289.680817,482.834564 
	C285.997437,480.594055 282.588776,480.633636 278.920013,482.870026 
	C273.092377,486.422394 266.998077,489.553558 261.295868,493.289276 
	C257.972656,495.466400 255.452713,495.163788 252.270432,493.114197 
	C246.677246,489.511871 240.746033,486.438995 235.070908,482.957672 
	C231.237534,480.606140 227.697968,480.603699 223.859863,482.964569 
	C218.047089,486.540131 211.957657,489.676941 206.239151,493.390350 
	C203.086761,495.437408 200.682602,495.182709 197.655823,493.249176 
	C192.048141,489.667053 186.132980,486.569794 180.466248,483.075378 
	C176.483643,480.619537 172.828339,480.575867 168.814178,483.085571 
	C163.029205,486.702362 156.920349,489.807709 151.195206,493.510895 
	C148.190109,495.454651 145.918289,495.193481 143.051651,493.380829 
	C137.426346,489.823883 131.512878,486.724304 125.863739,483.202759 
	C122.118332,480.867920 118.596207,480.674286 114.542435,482.455231 
	C106.353714,486.052856 98.022041,489.325134 89.290993,492.920349 
	C89.290993,334.120880 89.290993,175.931931 89.290993,17.036140 
	C94.234688,17.036140 99.159637,17.036140 104.548538,17.101170 
	C105.010139,63.110161 104.272667,109.071335 105.348412,154.990036 
	C105.812584,174.803329 110.027168,194.528763 112.753624,215.084259 
	C112.979919,217.632507 112.735817,219.442459 113.079895,221.132706 
	C113.368362,222.549759 114.343246,223.827057 115.014206,225.166245 
	C117.991829,235.470398 120.969444,245.774551 123.538185,256.520844 
	C119.883026,256.962982 116.636742,256.962982 113.370575,256.962982 
	C113.370575,262.660767 113.370575,267.671722 113.370575,273.166016 
	C119.496010,273.166016 125.254982,273.166016 131.013962,273.166016 
	C135.958191,283.496399 140.902435,293.826752 145.476562,304.560638 
	C134.552048,304.964142 123.997643,304.964142 113.374710,304.964142 
	C113.374710,310.643066 113.374710,315.666199 113.374710,321.155212 
	C128.149628,321.155212 142.553024,321.155212 156.956436,321.155212 
	C162.773972,329.711914 168.571365,338.282440 174.424667,346.814606 
	C175.726456,348.712219 177.225250,350.474670 178.357697,352.632233 
	C156.534348,352.965118 134.986649,352.965118 113.392029,352.965118 
	C113.392029,358.663696 113.392029,363.694122 113.392029,369.165100 
	C140.524536,369.165100 167.266754,369.165100 194.008972,369.165100 
	C203.665466,378.433899 213.319214,387.705566 222.981949,396.967865 
	C224.172379,398.108978 225.410858,399.199982 226.407089,400.677368 
	C225.644730,406.190521 225.102356,411.340515 224.539352,416.686462 
	C230.656021,416.686462 235.678268,416.686462 240.791534,416.686462 
	C240.928955,414.587219 241.046463,412.792084 241.163971,410.996918 
M196.484406,401.000549 
	C168.742767,401.000549 141.001114,401.000549 113.316666,401.000549 
	C113.316666,406.727448 113.316666,411.649658 113.316666,416.598541 
	C145.335876,416.598541 177.037338,416.598541 208.681900,416.598541 
	C208.681900,411.268738 208.681900,406.345917 208.681900,401.000549 
	C204.738724,401.000549 201.107391,401.000549 196.484406,401.000549 
z"/>
<path fill="#393838" opacity="1.000000" stroke="none" 
	d="
M354.053894,337.001343 
	C350.924683,337.001343 348.287811,337.001343 345.328125,337.001343 
	C345.328125,342.290131 345.328125,347.216309 345.328125,352.998688 
	C351.729462,352.998688 358.306274,352.996521 364.883118,352.999176 
	C374.832886,353.003174 376.995514,355.124054 377.000427,364.889832 
	C377.004547,373.053375 377.006592,381.216888 376.999908,389.380432 
	C376.992340,398.636841 374.746643,400.923401 365.604675,401.000061 
	C364.294586,401.011047 362.984314,401.001587 361.092865,401.001587 
	C361.092865,406.361084 361.092865,411.423492 361.092865,416.734985 
	C355.589142,416.734985 350.660919,416.734985 345.140137,416.734985 
	C345.140137,411.673370 345.140137,406.615967 345.140137,401.162872 
	C339.635315,401.162872 334.699799,401.162872 329.384613,401.162872 
	C329.384613,395.717163 329.384613,390.669495 329.384613,385.203613 
	C339.655518,385.203613 349.919617,385.203613 360.589172,385.203613 
	C360.589172,379.763641 360.589172,374.715271 360.589172,369.000977 
	C353.549896,369.000977 346.450348,369.023102 339.351013,368.994965 
	C331.800446,368.965027 329.039520,366.268738 329.007996,358.844330 
	C328.970490,350.014526 328.992737,341.184479 329.000458,332.354523 
	C329.008240,323.425751 331.318787,321.075897 340.143890,321.000275 
	C341.595428,320.987854 343.047119,320.998535 344.998657,320.998535 
	C344.998657,318.050171 344.998657,315.595306 344.998657,313.140411 
	C344.998657,310.662506 344.998657,308.184570 344.998657,305.353912 
	C350.350159,305.353912 355.395569,305.353912 360.858826,305.353912 
	C360.858826,310.381836 360.858826,315.318237 360.858826,320.836060 
	C366.306335,320.836060 371.361664,320.836060 376.703186,320.836060 
	C376.703186,326.344513 376.703186,331.273132 376.703186,337.001343 
	C369.381836,337.001343 361.964020,337.001343 354.053894,337.001343 
z"/>
<path fill="#383838" opacity="1.000000" stroke="none" 
	d="
M123.038849,161.000061 
	C181.118713,161.000061 238.705475,161.000061 296.645813,161.000061 
	C296.645813,166.352570 296.645813,171.394897 296.645813,176.720856 
	C235.531998,176.720856 174.529388,176.720856 113.263344,176.720856 
	C113.263344,171.583389 113.263344,166.657791 113.263344,161.000061 
	C116.362434,161.000061 119.454094,161.000061 123.038849,161.000061 
z"/>
<path fill="#393938" opacity="1.000000" stroke="none" 
	d="
M185.003250,101.999847 
	C185.002579,108.161446 184.926163,113.824440 185.025177,119.484352 
	C185.104172,124.000870 183.445511,127.416542 178.967926,128.662979 
	C174.639191,129.867981 171.695541,127.539391 169.396622,124.051071 
	C164.304779,116.324875 159.145844,108.642883 153.147125,99.641678 
	C153.147125,110.237328 153.147125,119.271194 153.147125,128.651215 
	C147.643158,128.651215 142.600189,128.651215 136.996750,128.651215 
	C136.996750,123.771095 136.996719,118.991524 136.996765,114.211952 
	C136.996872,101.223427 137.077698,88.234138 136.953827,75.246796 
	C136.909897,70.640930 138.024704,66.858757 142.782333,65.401634 
	C147.641785,63.913319 150.553925,66.775749 153.009842,70.531891 
	C157.922729,78.045815 162.951050,85.484261 168.804199,94.262367 
	C168.804199,83.745262 168.804199,74.631721 168.804199,65.266907 
	C174.400711,65.266907 179.327103,65.266907 185.003250,65.266907 
	C185.003250,77.340576 185.003250,89.420235 185.003250,101.999847 
z"/>
<path fill="#383838" opacity="1.000000" stroke="none" 
	d="
M131.477600,273.099487 
	C125.254982,273.166016 119.496010,273.166016 113.370575,273.166016 
	C113.370575,267.671722 113.370575,262.660767 113.370575,256.962982 
	C116.636742,256.962982 119.883026,256.962982 123.590942,256.894684 
	C159.991379,256.884277 195.930206,256.944458 231.869019,256.998199 
	C240.003876,257.010376 248.138748,257.000061 256.635315,257.000061 
	C256.635315,262.327545 256.635315,267.368469 256.635315,273.032928 
	C215.023560,273.032928 173.482391,273.032928 131.477600,273.099487 
z"/>
<path fill="#383838" opacity="1.000000" stroke="none" 
	d="
M194.473160,369.098846 
	C167.266754,369.165100 140.524536,369.165100 113.392029,369.165100 
	C113.392029,363.694122 113.392029,358.663696 113.392029,352.965118 
	C134.986649,352.965118 156.534348,352.965118 178.547409,352.899597 
	C204.760117,352.834076 230.507462,352.834076 256.626770,352.834076 
	C256.626770,358.306244 256.626770,363.341766 256.626770,369.032593 
	C236.042526,369.032593 215.489944,369.032593 194.473160,369.098846 
z"/>
<path fill="#383838" opacity="1.000000" stroke="none" 
	d="
M157.426544,321.093048 
	C142.553024,321.155212 128.149628,321.155212 113.374710,321.155212 
	C113.374710,315.666199 113.374710,310.643066 113.374710,304.964142 
	C123.997643,304.964142 134.552048,304.964142 145.575104,304.896790 
	C180.647751,304.886322 215.251770,304.943359 249.855774,304.999573 
	C251.998337,305.003052 254.140884,305.000061 256.640625,305.000061 
	C256.640625,310.339142 256.640625,315.377167 256.640625,321.030884 
	C223.669434,321.030884 190.783035,321.030884 157.426544,321.093048 
z"/>
<path fill="#383838" opacity="1.000000" stroke="none" 
	d="
M115.477821,225.099731 
	C114.343246,223.827057 113.368362,222.549759 113.079895,221.132706 
	C112.735817,219.442459 112.979919,217.632507 112.901108,215.427811 
	C112.951286,213.172806 113.069580,211.364380 113.205734,209.282776 
	C161.047668,209.282776 208.771500,209.282776 256.747711,209.282776 
	C256.747711,214.442596 256.747711,219.370239 256.747711,225.033218 
	C209.767563,225.033218 162.854507,225.033218 115.477821,225.099731 
z"/>
<path fill="#393938" opacity="1.000000" stroke="none" 
	d="
M248.997986,99.999969 
	C248.998505,91.168846 248.948883,82.837311 249.015579,74.506706 
	C249.067886,67.975876 251.964432,65.079742 258.494019,65.015923 
	C265.658112,64.945892 272.824585,64.921158 279.987823,65.026260 
	C285.898743,65.112984 288.935303,68.091370 288.968994,73.997849 
	C289.056396,89.326637 289.056488,104.656586 288.968506,119.985367 
	C288.934631,125.889267 285.886444,128.889648 279.996674,128.973862 
	C272.666779,129.078659 265.333130,129.078415 258.003235,128.973969 
	C252.099899,128.889847 249.121643,125.900955 249.025406,119.994370 
	C248.919556,113.497810 248.999161,106.998222 248.997986,99.999969 
M272.997925,96.501892 
	C272.997925,91.420601 272.997925,86.339310 272.997925,81.236717 
	C270.046326,81.236717 267.786224,81.236717 265.265686,81.236717 
	C265.265686,91.823212 265.265686,102.176811 265.265686,112.669067 
	C267.904175,112.669067 270.272369,112.669067 272.997925,112.669067 
	C272.997925,107.398193 272.997925,102.448135 272.997925,96.501892 
z"/>
<path fill="#383838" opacity="1.000000" stroke="none" 
	d="
M395.844421,113.000221 
	C397.768494,113.097717 399.209473,113.195122 400.776123,113.301025 
	C400.776123,118.573463 400.776123,123.499458 400.776123,128.999939 
	C394.120148,128.999939 387.677948,128.999954 381.235718,128.999954 
	C374.750366,128.999954 368.265045,128.999939 361.390991,128.999939 
	C361.390991,107.722298 361.390991,86.683151 361.390991,65.320831 
	C374.301208,65.320831 387.225525,65.320831 400.575867,65.320831 
	C400.575867,70.205246 400.575867,75.253693 400.575867,80.893188 
	C392.964966,80.893188 385.235992,80.893188 377.263489,80.893188 
	C377.263489,83.738998 377.263489,86.006744 377.263489,88.850677 
	C384.946564,88.850677 392.680511,88.850677 400.699707,88.850677 
	C400.699707,94.341713 400.699707,99.269569 400.699707,104.790001 
	C393.080505,104.790001 385.353790,104.790001 377.321228,104.790001 
	C377.321228,107.746628 377.321228,110.121330 377.321228,113.000122 
	C383.448090,113.000122 389.404694,113.000122 395.844421,113.000221 
z"/>
<path fill="#3A3938" opacity="1.000000" stroke="none" 
	d="
M237.223297,112.121536 
	C232.488022,116.847618 228.076645,121.382736 223.524338,125.771683 
	C218.947952,130.183838 215.103287,130.118576 210.466995,125.782425 
	C210.224030,125.555168 210.020584,125.276840 209.753433,125.085495 
	C195.991653,115.227798 190.145721,102.226448 192.834839,85.184563 
	C193.832291,78.863396 192.996048,72.252884 192.996048,65.385971 
	C198.272278,65.385971 203.316559,65.385971 209.003967,65.385971 
	C209.003967,74.463280 209.508545,83.592308 208.845108,92.635651 
	C208.309280,99.939522 210.562759,105.177094 217.076492,109.018517 
	C221.662018,105.600410 225.709167,102.134628 225.173447,94.867004 
	C224.456528,85.141289 224.996033,75.322952 224.996033,65.273834 
	C230.383759,65.273834 235.308365,65.273834 241.003952,65.273834 
	C241.003952,68.485970 241.004013,71.737114 241.003952,74.988258 
	C241.003754,84.308723 241.285202,93.642624 240.841751,102.941948 
	C240.697693,105.963272 238.658020,108.894211 237.223297,112.121536 
z"/>
<path fill="#393838" opacity="1.000000" stroke="none" 
	d="
M320.998566,91.000298 
	C320.999512,85.010231 320.923950,79.518707 321.022125,74.030296 
	C321.128021,68.110451 324.063049,65.115280 329.950104,65.028732 
	C337.409180,64.919052 344.871124,65.002205 352.664459,65.002205 
	C352.664459,70.385719 352.664459,75.424812 352.664459,80.873581 
	C347.600006,80.873581 342.668732,80.873581 337.374023,80.873581 
	C337.374023,91.638565 337.374023,102.005608 337.374023,112.782494 
	C342.315399,112.782494 347.242279,112.782494 352.584717,112.782494 
	C352.584717,118.210167 352.584717,123.254990 352.584717,128.826691 
	C344.274292,128.826691 335.831512,129.256485 327.463013,128.654129 
	C322.952118,128.329437 320.973206,124.529976 320.990662,119.949104 
	C321.026825,110.466270 320.999664,100.983192 320.998566,91.000298 
z"/>
<path fill="#383838" opacity="1.000000" stroke="none" 
	d="
M113.000076,105.999954 
	C113.000076,92.226601 113.000076,78.953232 113.000076,65.341400 
	C118.373627,65.341400 123.409538,65.341400 128.724731,65.341400 
	C128.724731,86.479736 128.724731,107.486366 128.724731,128.746613 
	C123.568504,128.746613 118.648911,128.746613 113.000076,128.746613 
	C113.000076,121.316635 113.000076,113.908295 113.000076,105.999954 
z"/>
<path fill="#383838" opacity="1.000000" stroke="none" 
	d="
M312.999939,120.927490 
	C312.999939,123.720558 312.999939,126.024796 312.999939,128.659744 
	C307.623169,128.659744 302.587921,128.659744 297.273193,128.659744 
	C297.273193,107.634766 297.273193,86.743935 297.273193,65.426109 
	C302.195404,65.426109 307.236084,65.426109 312.999939,65.426109 
	C312.999939,83.679001 312.999939,102.058830 312.999939,120.927490 
z"/>
<path fill="#383838" opacity="1.000000" stroke="none" 
	d="
M288.894470,367.678833 
	C283.812500,368.549316 278.801758,368.950043 273.376953,369.383911 
	C273.376953,363.718445 273.376953,358.690857 273.376953,353.328979 
	C278.385284,353.328979 283.409760,353.328979 288.965729,353.328979 
	C288.965729,358.032715 288.965729,362.620911 288.894470,367.678833 
z"/>
<path fill="#383838" opacity="1.000000" stroke="none" 
	d="
M241.098221,410.543396 
	C241.046463,412.792084 240.928955,414.587219 240.791534,416.686462 
	C235.678268,416.686462 230.656021,416.686462 224.539352,416.686462 
	C225.102356,411.340515 225.644730,406.190521 226.609009,400.935364 
	C231.471527,400.830261 235.912125,400.830261 241.032471,400.830261 
	C241.032471,404.254730 241.032471,407.172333 241.098221,410.543396 
z"/>
<path fill="#383838" opacity="1.000000" stroke="none" 
	d="
M196.980240,401.000549 
	C201.107391,401.000549 204.738724,401.000549 208.681900,401.000549 
	C208.681900,406.345917 208.681900,411.268738 208.681900,416.598541 
	C177.037338,416.598541 145.335876,416.598541 113.316666,416.598541 
	C113.316666,411.649658 113.316666,406.727448 113.316666,401.000549 
	C141.001114,401.000549 168.742767,401.000549 196.980240,401.000549 
z"/>
<path fill="#F4B400" opacity="1.000000" stroke="none" 
	d="
M272.997925,96.999985 
	C272.997925,102.448135 272.997925,107.398193 272.997925,112.669067 
	C270.272369,112.669067 267.904175,112.669067 265.265686,112.669067 
	C265.265686,102.176811 265.265686,91.823212 265.265686,81.236717 
	C267.786224,81.236717 270.046326,81.236717 272.997925,81.236717 
	C272.997925,86.339310 272.997925,91.420601 272.997925,96.999985 
z"/>
</svg>