<svg xmlns="http://www.w3.org/2000/svg" xmlns:xlink="http://www.w3.org/1999/xlink" width="543.703" height="515.952" viewBox="0 0 543.703 515.952">
  <defs>
    <clipPath id="clip-path">
      <path id="Path_59089" data-name="Path 59089" d="M421,198.32H767.857V544.194H421Zm0,0" transform="translate(-421 -198.32)"/>
    </clipPath>
    <clipPath id="clip-path-2">
      <path id="Path_59094" data-name="Path 59094" d="M427,198.32H703.257V522.708H427Zm0,0" transform="translate(-427 -198.32)"/>
    </clipPath>
  </defs>
  <g id="accounts-payable" transform="translate(-823.483 -2873.442)">
    <g id="Group_19480" data-name="Group 19480" transform="translate(823.483 2873.442)">
      <path id="Path_57289" data-name="Path 57289" d="M481.605,196.417C459.773,78.579,349.885,10.205,257.345,1.135,180.688-6.392,80.562,23.345,45.172,95.241,22.919,140.449,49.656,154.8,31.451,257.23,15.706,345.887-11.871,377.632,5.6,422.808c14.291,36.942,47.686,54.421,69.04,65.6,84.141,44.008,211.962,38.84,303.992-41.457,21.532-18.785,127.674-117.23,102.974-250.531" transform="translate(485.308 515.952) rotate(180)" fill="#cde1fe"/>
      <g id="Group_18905" data-name="Group 18905" transform="translate(138.945 14.985)">
        <g id="Group_18904" data-name="Group 18904" transform="translate(0 0)">
          <g id="Group_18902" data-name="Group 18902" transform="translate(0 41.423)" clip-path="url(#clip-path)">
            <path id="Path_59088" data-name="Path 59088" d="M625.035,198.836c-11.164-.025-113.081,1.535-168.763,85.514-29.652,44.714-49.533,117.805-20.48,157.639,8.585,11.762,13.082,9.172,58.944,37.012,62.962,38.228,62.661,48.059,88.728,56.811,33.934,11.379,84.065,11.354,121.618-16.594,42.6-31.727,48.91-84.424,55.218-137.217,6.2-51.81,12.468-104.306-20.467-142.96-34.161-40.085-89.053-40.168-114.8-40.2" transform="translate(-419.785 -197.252)" fill="#caddff"/>
          </g>
          <path id="Path_59090" data-name="Path 59090" d="M685.816,528.017l-235.3-.755a7.74,7.74,0,0,1-7.7-8.272l19.267-304.831a7.751,7.751,0,0,1,7.7-7.29l235.909-.731c4.46,0,8.622,4.518,8.333,9L694.749,519.984c-.252,4.089-4.856,8.033-8.932,8.033" transform="translate(-375.877 -140.72)" fill="#e0eaff"/>
          <path id="Path_59091" data-name="Path 59091" d="M684.964,528.128H447.22a7.781,7.781,0,0,1-7.732-8.309l19.375-306.391a7.771,7.771,0,0,1,7.735-7.315H704.342a7.8,7.8,0,0,1,7.744,8.309L692.7,520.813a7.771,7.771,0,0,1-7.735,7.315" transform="translate(-382.772 -140.77)" fill="#9ac0f8"/>
          <path id="Path_59092" data-name="Path 59092" d="M670.222,508.231H450.032a7.211,7.211,0,0,1-7.17-7.7L460.81,216.771a7.2,7.2,0,0,1,7.158-6.787h220.2a7.22,7.22,0,0,1,7.158,7.7L677.392,501.448a7.221,7.221,0,0,1-7.17,6.784" transform="translate(-375.787 -132.758)" fill="#e0eaff"/>
          <g id="Group_18903" data-name="Group 18903" transform="translate(18.417 41.423)" clip-path="url(#clip-path-2)">
            <path id="Path_59093" data-name="Path 59093" d="M673.223,520.55H435.466a7.787,7.787,0,0,1-7.732-8.309L447.109,205.85a7.79,7.79,0,0,1,7.735-7.327H692.588a7.793,7.793,0,0,1,7.745,8.322L680.958,513.235a7.78,7.78,0,0,1-7.735,7.315" transform="translate(-425.515 -197.9)" fill="#fff"/>
          </g>
          <path id="Path_59097" data-name="Path 59097" d="M659.487,224.024h-221.2a.641.641,0,0,1-.636-.635.628.628,0,0,1,.636-.623h221.2a.626.626,0,0,1,.623.623.638.638,0,0,1-.623.635" transform="translate(-386.539 -106.306)" fill="#5479f7"/>
          <path id="Path_59099" data-name="Path 59099" d="M508.154,249.245a3.031,3.031,0,0,1-.574-.061,3.156,3.156,0,0,1-2.413-2.06l-2.9-7.579a2.293,2.293,0,1,1,4.282-1.642l1.919,5.009,6.474-10.381a2.3,2.3,0,0,1,3.886,2.443l-8.119,12.987-.095.12a3.176,3.176,0,0,1-2.459,1.163" transform="translate(-253.131 -88.313)" fill="#054cb1"/>
          <path id="Path_59101" data-name="Path 59101" d="M507.5,261.835a3.315,3.315,0,0,1-.589-.061,3.137,3.137,0,0,1-2.4-2.063l-2.9-7.575a2.286,2.286,0,1,1,4.266-1.645L507.8,255.5l6.489-10.384a2.295,2.295,0,0,1,3.883,2.447l-8.116,12.987-.1.12a3.185,3.185,0,0,1-2.459,1.163" transform="translate(-254.49 -62.257)" fill="#054cb1"/>
          <path id="Path_59103" data-name="Path 59103" d="M591.2,212.707a4.127,4.127,0,0,1-4.113,3.837H476.48a4.132,4.132,0,0,1,0-8.263H587.09a4.115,4.115,0,0,1,4.113,4.426" transform="translate(-420.258 -136.283)" fill="#9ac0f8"/>
          <path id="Path_59104" data-name="Path 59104" d="M590.891,217.564a4.135,4.135,0,0,1-4.113,3.837H476.167a4.13,4.13,0,0,1,0-8.26h110.61a4.137,4.137,0,0,1,4.113,4.423" transform="translate(-420.928 -126.225)" fill="#9ac0f8"/>
          <path id="Path_59105" data-name="Path 59105" d="M591.534,207.854a4.133,4.133,0,0,1-4.113,3.837H476.811a4.136,4.136,0,0,1,0-8.272h110.61a4.13,4.13,0,0,1,4.113,4.435" transform="translate(-419.595 -146.347)" fill="#9ac0f8"/>
          <path id="Path_59112" data-name="Path 59112" d="M590.543,237.281a4.135,4.135,0,0,1-4.113,3.837H444.522a4.132,4.132,0,0,1,0-8.263H586.429a4.133,4.133,0,0,1,4.113,4.426" transform="translate(-380.854 -85.426)" fill="#9ac0f8"/>
          <path id="Path_59115" data-name="Path 59115" d="M589.8,250.443a4.124,4.124,0,0,1-4.113,3.837h-141.9a4.13,4.13,0,0,1,0-8.26h141.9a4.126,4.126,0,0,1,4.113,4.423" transform="translate(-382.382 -58.18)" fill="#9ac0f8"/>
          <path id="Path_59118" data-name="Path 59118" d="M589.064,263.62a4.127,4.127,0,0,1-4.113,3.837h-141.9a4.136,4.136,0,0,1,0-8.272h141.9a4.132,4.132,0,0,1,4.113,4.435" transform="translate(-383.909 -30.938)" fill="#9ac0f8"/>
          <g id="Group_19482" data-name="Group 19482" transform="translate(61.478 268.666)">
            <path id="Path_59122" data-name="Path 59122" d="M550.264,246.305H438.883a7.287,7.287,0,0,0-7.278,7.3v41.439c0,.132,0,.264-.012.4l-7.444,134.936a7.285,7.285,0,0,0,7.266,7.711H542.756a7.3,7.3,0,0,0,7.278-6.894l7.5-135.526c.012-.132.012-.264.012-.4V253.607a7.287,7.287,0,0,0-7.278-7.3" transform="translate(-415.793 -246.305)" fill="#0c397a"/>
            <path id="Path_59123" data-name="Path 59123" d="M548.657,246.508H435.048a6.169,6.169,0,0,0-6.161,6.176v42.037L421.428,430.5a6.174,6.174,0,0,0,6.151,6.523H541.164a6.182,6.182,0,0,0,6.164-5.838l7.493-136.1v-42.4a6.172,6.172,0,0,0-6.164-6.176" transform="translate(-421.419 -245.884)" fill="#9ac0f8"/>
            <path id="Path_59126" data-name="Path 59126" d="M432.934,250.348h90.324a4.875,4.875,0,0,1,4.868,4.88v15.237a4.875,4.875,0,0,1-4.868,4.881H432.934a4.867,4.867,0,0,1-4.868-4.881V255.229a4.867,4.867,0,0,1,4.868-4.88" transform="translate(-407.666 -237.937)" fill="#fff"/>
            <path id="Path_59128" data-name="Path 59128" d="M447.753,252.684h32.973a2.73,2.73,0,0,1,2.723,2.732v5.194a2.73,2.73,0,0,1-2.723,2.732H447.753a2.72,2.72,0,0,1-2.71-2.732v-5.194a2.719,2.719,0,0,1,2.71-2.732" transform="translate(-372.53 -233.105)" fill="#e0eaff"/>
            <path id="Path_59129" data-name="Path 59129" d="M438.675,252.684h15.682a2.722,2.722,0,0,1,2.723,2.732v5.194a2.722,2.722,0,0,1-2.723,2.732H438.675a2.718,2.718,0,0,1-2.711-2.732v-5.194a2.718,2.718,0,0,1,2.711-2.732" transform="translate(-391.317 -233.105)" fill="#e0eaff"/>
            <path id="Path_59130" data-name="Path 59130" d="M456.242,308.646l.9-15.228a3.173,3.173,0,0,0-3.165-3.367H438.064a3.169,3.169,0,0,0-3.165,3l-.9,15.228a3.183,3.183,0,0,0,3.165,3.37h15.912a3.169,3.169,0,0,0,3.165-3" transform="translate(-395.397 -155.77)" fill="#fff"/>
            <path id="Path_59131" data-name="Path 59131" d="M465.883,308.646l.9-15.228a3.182,3.182,0,0,0-3.165-3.367H447.693a3.169,3.169,0,0,0-3.165,3l-.9,15.228a3.183,3.183,0,0,0,3.165,3.37h15.925a3.178,3.178,0,0,0,3.165-3" transform="translate(-375.467 -155.77)" fill="#fff"/>
            <path id="Path_59132" data-name="Path 59132" d="M455.738,318.123l.912-15.648a3.17,3.17,0,0,0-3.165-3.358H437.56A3.169,3.169,0,0,0,434.4,302.1l-.9,15.648a3.175,3.175,0,0,0,3.165,3.367h15.912a3.168,3.168,0,0,0,3.165-3" transform="translate(-396.44 -137.009)" fill="#fff"/>
            <path id="Path_59133" data-name="Path 59133" d="M465.367,318.123l.912-15.648a3.17,3.17,0,0,0-3.165-3.358H447.2a3.159,3.159,0,0,0-3.165,2.987l-.912,15.648a3.175,3.175,0,0,0,3.165,3.367H462.2a3.16,3.16,0,0,0,3.165-3" transform="translate(-376.51 -137.009)" fill="#fff"/>
            <path id="Path_59134" data-name="Path 59134" d="M447.125,299.447l.9-15.228a3.173,3.173,0,0,0-3.165-3.367H428.935a3.175,3.175,0,0,0-3.165,2.984l-.9,15.24a3.183,3.183,0,0,0,3.165,3.37H443.96a3.169,3.169,0,0,0,3.165-3" transform="translate(-414.286 -174.81)" fill="#fff"/>
            <path id="Path_59135" data-name="Path 59135" d="M456.746,299.447l.9-15.228a3.173,3.173,0,0,0-3.165-3.367H438.568a3.165,3.165,0,0,0-3.165,2.984l-.9,15.24a3.175,3.175,0,0,0,3.165,3.37h15.912a3.169,3.169,0,0,0,3.165-3" transform="translate(-394.355 -174.81)" fill="#fff"/>
            <path id="Path_59136" data-name="Path 59136" d="M466.375,299.447l.9-15.228a3.16,3.16,0,0,0-3.165-3.367H448.2a3.165,3.165,0,0,0-3.165,2.984l-.9,15.24a3.181,3.181,0,0,0,3.165,3.37H463.21a3.169,3.169,0,0,0,3.165-3" transform="translate(-374.424 -174.81)" fill="#fff"/>
            <path id="Path_59137" data-name="Path 59137" d="M476.016,299.447l.9-15.228a3.175,3.175,0,0,0-3.165-3.367H457.826a3.173,3.173,0,0,0-3.165,2.984l-.9,15.24a3.181,3.181,0,0,0,3.165,3.37h15.925a3.179,3.179,0,0,0,3.165-3" transform="translate(-354.5 -174.81)" fill="#fff"/>
            <path id="Path_59138" data-name="Path 59138" d="M447.62,290.25l.9-15.228a3.174,3.174,0,0,0-3.165-3.37H429.443a3.167,3.167,0,0,0-3.165,2.987l-.9,15.24a3.183,3.183,0,0,0,3.165,3.37h15.912a3.178,3.178,0,0,0,3.165-3" transform="translate(-413.236 -193.847)" fill="#fff"/>
            <path id="Path_59139" data-name="Path 59139" d="M457.262,290.25l.9-15.228a3.178,3.178,0,0,0-3.177-3.37H439.072a3.167,3.167,0,0,0-3.165,2.987l-.9,15.24a3.181,3.181,0,0,0,3.165,3.37H454.1a3.2,3.2,0,0,0,3.165-3" transform="translate(-393.312 -193.847)" fill="#fff"/>
            <path id="Path_59140" data-name="Path 59140" d="M466.891,290.25l.9-15.228a3.176,3.176,0,0,0-3.165-3.37H448.7a3.176,3.176,0,0,0-3.165,2.987l-.9,15.24a3.181,3.181,0,0,0,3.165,3.37h15.925a3.18,3.18,0,0,0,3.165-3" transform="translate(-373.382 -193.847)" fill="#fff"/>
            <path id="Path_59141" data-name="Path 59141" d="M476.512,290.25l.9-15.228a3.176,3.176,0,0,0-3.168-3.37H458.334a3.167,3.167,0,0,0-3.165,2.987l-.9,15.24a3.179,3.179,0,0,0,3.165,3.37h15.91a3.183,3.183,0,0,0,3.168-3" transform="translate(-353.445 -193.847)" fill="#fff"/>
            <path id="Path_59142" data-name="Path 59142" d="M446.62,308.646l.9-15.228a3.18,3.18,0,0,0-3.165-3.367H428.442a3.19,3.19,0,0,0-3.177,3l-.9,15.228a3.191,3.191,0,0,0,3.168,3.37h15.922a3.169,3.169,0,0,0,3.165-3" transform="translate(-415.328 -155.77)" fill="#fff"/>
            <path id="Path_59143" data-name="Path 59143" d="M446.117,318.123l.9-15.648a3.169,3.169,0,0,0-3.165-3.358H427.942a3.172,3.172,0,0,0-3.168,2.987l-.912,15.648a3.176,3.176,0,0,0,3.168,3.367h15.921a3.169,3.169,0,0,0,3.165-3" transform="translate(-416.372 -137.009)" fill="#fff"/>
            <path id="Path_59144" data-name="Path 59144" d="M475,336.967l2.471-43.621a3.18,3.18,0,0,0-3.165-3.358H458.377a3.178,3.178,0,0,0-3.165,3l-2.459,43.621a3.172,3.172,0,0,0,3.165,3.358h15.913a3.161,3.161,0,0,0,3.165-3" transform="translate(-356.585 -155.901)" fill="#0c397a"/>
            <path id="Path_59145" data-name="Path 59145" d="M426.332,266.692l-.338,5.541a2.22,2.22,0,0,0,2.207,2.348h17.84a2.208,2.208,0,0,0,2.207-2.084l.338-5.528a2.2,2.2,0,0,0-2.207-2.351H428.536a2.213,2.213,0,0,0-2.2,2.075" transform="translate(-411.959 -208.407)" fill="#fff"/>
            <path id="Path_59146" data-name="Path 59146" d="M435.963,266.692l-.335,5.541a2.213,2.213,0,0,0,2.207,2.348h17.84a2.217,2.217,0,0,0,2.207-2.084l.335-5.528a2.211,2.211,0,0,0-2.2-2.351H438.17a2.209,2.209,0,0,0-2.207,2.075" transform="translate(-392.022 -208.407)" fill="#fff"/>
            <path id="Path_59147" data-name="Path 59147" d="M445.591,266.692l-.335,5.541a2.218,2.218,0,0,0,2.207,2.348H465.3a2.219,2.219,0,0,0,2.207-2.084l.335-5.528a2.211,2.211,0,0,0-2.2-2.351H447.8a2.218,2.218,0,0,0-2.207,2.075" transform="translate(-372.097 -208.407)" fill="#fff"/>
            <path id="Path_59148" data-name="Path 59148" d="M455.22,266.692l-.335,5.516a2.214,2.214,0,0,0,2.207,2.351h17.84a2.209,2.209,0,0,0,2.207-2.075l.335-5.528a2.206,2.206,0,0,0-2.207-2.351h-17.84a2.219,2.219,0,0,0-2.207,2.087" transform="translate(-352.167 -208.433)" fill="#0c397a"/>
          </g>
          <path id="Path_59173" data-name="Path 59173" d="M495.745,274.586a2.1,2.1,0,1,1-2.674-1.691,2.255,2.255,0,0,1,2.674,1.691" transform="translate(-274.789 -2.73)" fill="#fff"/>
          <path id="Path_59214" data-name="Path 59214" d="M548.3,228.938a25.581,25.581,0,1,1-25.588-25.661A25.617,25.617,0,0,1,548.3,228.938" transform="translate(-535.927 -152.638)" fill="#e49a1f"/>
          <path id="Path_59216" data-name="Path 59216" d="M541.414,226.157a21.468,21.468,0,1,1-21.474-21.536,21.5,21.5,0,0,1,21.474,21.536" transform="translate(-533.154 -149.856)" fill="#fff"/>
          <path id="Path_59220" data-name="Path 59220" d="M509.087,237.091v-3.548a14.941,14.941,0,0,1-6.317-1.6l1.114-4.365a13.013,13.013,0,0,0,6.163,1.642c2.121,0,3.573-.813,3.573-2.314,0-1.412-1.188-2.3-3.944-3.235-3.969-1.344-6.679-3.2-6.679-6.824,0-3.272,2.3-5.851,6.271-6.63v-3.536h3.643v3.272a13.362,13.362,0,0,1,5.384,1.234l-1.077,4.208a12.372,12.372,0,0,0-5.35-1.258c-2.409,0-3.189,1.031-3.189,2.075,0,1.234,1.3,2.014,4.46,3.214,4.414,1.559,6.2,3.61,6.2,6.965,0,3.312-2.339,6.139-6.606,6.9v3.8h-3.647" transform="translate(-524.269 -145.588)" fill="#e49a1f"/>
          <g id="Group_19206" data-name="Group 19206" transform="translate(2.548 -6)">
            <path id="Path_59222" data-name="Path 59222" d="M576.619,245.64a32.189,32.189,0,1,1-32.184-32.288,32.225,32.225,0,0,1,32.184,32.288" transform="translate(-512.242 -213.352)" fill="#e49a1f"/>
            <path id="Path_59224" data-name="Path 59224" d="M567.957,242.141a27.013,27.013,0,1,1-27.015-27.1,27.048,27.048,0,0,1,27.015,27.1" transform="translate(-508.751 -209.851)" fill="#fff"/>
            <path id="Path_59228" data-name="Path 59228" d="M527.282,255.89v-4.451a18.818,18.818,0,0,1-7.95-2.026l1.4-5.479A16.474,16.474,0,0,0,528.5,246c2.664,0,4.485-1.031,4.485-2.9,0-1.786-1.5-2.916-4.951-4.089-5.013-1.679-8.417-4.03-8.417-8.573,0-4.126,2.9-7.364,7.9-8.346v-4.448h4.58v4.11a16.921,16.921,0,0,1,6.774,1.547l-1.353,5.3a15.5,15.5,0,0,0-6.728-1.584c-3.045,0-4.027,1.308-4.027,2.615,0,1.547,1.642,2.542,5.611,4.04,5.565,1.967,7.806,4.546,7.806,8.766,0,4.172-2.938,7.732-8.322,8.668v4.785h-4.58" transform="translate(-497.571 -204.473)" fill="#e49a1f"/>
          </g>
        </g>
      </g>
      <g id="Group_19481" data-name="Group 19481" transform="translate(34.933 141.452)">
        <path id="Path_52920" data-name="Path 52920" d="M134.43,176.437v25.9c0,25.334,18.926,45.871,42.274,45.871s42.274,20.537,42.274,45.871a3.977,3.977,0,0,1-3.862,4.089H103.211c-35,0-63.375-30.795-63.375-68.766V174.14c0-15.108,11.283-27.351,25.205-27.351H107.1c15.094,0,27.328,13.278,27.328,29.648" transform="translate(-39.836 -122.134)" fill="#9ac0f8"/>
        <path id="Path_52921" data-name="Path 52921" d="M83.133,324.082H93.274V199.3H83.133V324.082" transform="translate(-17.694 -69.949)" fill="#9ac0f8"/>
        <path id="Path_52922" data-name="Path 52922" d="M155.566,265.995l-44.876-4.159h-4.112l-45.819,4.159v3.3h94.808v-3.3" transform="translate(-33.657 -7.812)" fill="#9ac0f8"/>
        <path id="Path_52923" data-name="Path 52923" d="M108.777,264.057c1.07-1.144,7.268-21.526,7.268-21.526l12.249,9.237-13.428,19.066-6.088-6.777" transform="translate(-5.673 -26.994)" fill="#ffd8c2"/>
        <path id="Path_64848" data-name="Path 64848" d="M22.576,10.436C21.011,10.356,2.395,0,2.395,0L0,15.153,22.9,19.54l-.328-9.1" transform="matrix(0.875, 0.485, -0.485, 0.875, 158.087, 222.97)" fill="#ffd8c2"/>
        <path id="Path_52925" data-name="Path 52925" d="M114.174,248.137l-8.041,9.2a5.315,5.315,0,0,0-.155,6.753c6.185,7.78,20.977,25.894,23.961,24.929,7.03-2.291-5.285-30.476-5.285-30.476a5.388,5.388,0,0,1-7.134-2.881l-3.347-7.53" transform="translate(-8.538 -21.424)" fill="#101010"/>
        <path id="Path_52930" data-name="Path 52930" d="M136.021,257.988l-1.466,12.53c.243,2.741,1.43,4.572,4.038,4.657,10.275.359,34.478.849,35.878-2.352,3.3-7.554-26.724-17.311-26.724-17.311a5.715,5.715,0,0,1-7.06,3.886l-4.666-1.41" transform="translate(24.505 -14.308)" fill="#101010"/>
        <path id="Path_52933" data-name="Path 52933" d="M94.36,199.285s64.982-7.991,84.306,9.679-30.5,93.7-30.5,93.7L132.4,290.309l14.947-53.728L87.285,218.552l7.075-19.267" transform="translate(-26.018 -71.758)" fill="#682b35"/>
        <path id="Path_52934" data-name="Path 52934" d="M78.076,236.67c9.441,3.16,26.333,7.257,49.939,6.914a17.492,17.492,0,0,1,15.941,10.132c6.994,14.494,22.126,40.584,46.778,57.5l11.777-6.7-30.054-71.486a25.553,25.553,0,0,0-14.218-14.056L98.682,195.883s-18.462-5.451-27.52,11.97c-1.614,3.108-4.621-2.452-5.329.056-2.454,8.613,4.135,26.034,12.242,28.761" transform="translate(-38.409 -74.151)" fill="#682b35"/>
        <path id="Path_52937" data-name="Path 52937" d="M95.085,150.033l.472,13.294a4,4,0,0,0,2.911,3.379l.649.375c1.047.257,1.592.475,2.292,2.975L78.4,167.742c-.324-.71-.236-1.549.774-1.659l1.083-.3a3.992,3.992,0,0,0,2.882-3.312l1.047-17.024,10.9,4.588" transform="translate(-21.06 -123.468)" fill="#ffd8c2"/>
        <path id="Path_52939" data-name="Path 52939" d="M101.82,135.146c-3.132-.3-.6,3.6-11.7-.429-4.562-1.651-2.41,4.183-3.6,3.778-4.393-1.487-6.058.016-7.1.794a6.262,6.262,0,0,0-2.248,5.18c.273,2.749,3.693,3.692,5.432,9.54,1.216,4.1.818,6.565,2.351,7.2s2.771-1.517,4.511-.949c2.255.748,1.688,4.875,3.854,6.659,1.364,1.128,4.6,1.737,9.883-.756a2.1,2.1,0,0,0,1.1-2.369c-.287-1.23-.656-2.787-1.12-4.245-2.24-6.938-4.518-8.567-3.626-10.317,1.371-2.688,6.228-.967,7.1-3.178.907-2.3-.538-10.515-4.827-10.912" transform="translate(-22.058 -134.422)"/>
        <path id="Path_52940" data-name="Path 52940" d="M84.646,145.07a20.748,20.748,0,0,1,1.032,2.616c.538,1.675,1.474,4.548,2.115,6.113.8,1.948,6.169.313,7.834-.249a.52.52,0,0,0,.309-.676l-.531-1.675,1.312-.311a.918.918,0,0,0,.413-.289,1.031,1.031,0,0,0,.074-1.152,29.674,29.674,0,0,1-3.921-8.4.953.953,0,0,0-.737-.71,9.707,9.707,0,0,0-7.038,1.519,2.564,2.564,0,0,0-.862,3.21" transform="translate(-17.251 -128.676)" fill="#ffd8c2"/>
        <path id="Path_52943" data-name="Path 52943" d="M181.8,146.281l-11.6.7a14.512,14.512,0,0,0-10.562,5.2c-4.37,5.282-27.68,33.638-65.231,17.514l.811,26.83s42.37,11.706,64.245-33.7c1.156-2.415,3.707-3.554,6.079-4.082a8.039,8.039,0,0,0,6.139-5.493c1.577-4.585,4.356-2.741,5.881-3.119s3.834-.577,4.24-3.848" transform="translate(-11.055 -121.628)" fill="#ffd8c2"/>
        <path id="Path_52946" data-name="Path 52946" d="M72.4,159.1s15.639-7.67,39.909-.528.545,50.022.545,50.022l-35.936.8L72.4,159.1" transform="translate(-25.787 -113.447)" fill="#fff"/>
        <path id="Path_52947" data-name="Path 52947" d="M89.737,167.968l5.977,27.4-13.8.062,4.238-27.312-3.4-6.665,3.641-4.651,2.727-.139,3.39,4.767-2.771,6.541" transform="translate(-18.575 -112.325)" fill="#101010"/>
        <path id="Path_52948" data-name="Path 52948" d="M127.579,160.505c-2.734-3.987-9.566-3.8-14.909-4.829-.14-.03-.148.187-.066.57a22.847,22.847,0,0,1-.14,10.162l-.781,3.092-6.95,24.423L94.325,169.68l-.825-1.838a24.25,24.25,0,0,1-1.909-12.522c.029-.281.029-.453-.022-.445a57.363,57.363,0,0,0-10.657,2.018c-25.589,7.8-11.151,47.257-11.151,47.257s-8.453,57.654-4.651,61.493c3.95,3.987,17.172,7.9,36.209-1.356,1.813-.879,5.837-11.075,5.837-11.075l.118.359a19.554,19.554,0,0,0,3.265,5.989l.663.825s20.3-5.716,20.555,2.353l-2.344-14.953a233.438,233.438,0,0,1-2.69-43.028s6.559-35.942.855-44.252" transform="translate(-31.187 -112.794)" fill="#682b35"/>
        <path id="Path_52949" data-name="Path 52949" d="M81.532,172.068c-2.69-4.791-4.931-11.005-2.145-15.016l3.84-4.572s2.27,6.753,7.5,8.4l-9.19,11.185" transform="translate(-20.421 -116.478)" fill="#fff"/>
        <path id="Path_52959" data-name="Path 52959" d="M154.662,150.988l6.405,11.846s-20.843,41.836-69.345,27.3l6.648-28.815s21.756,14.65,56.292-10.335" transform="translate(-8.869 -116.951)" fill="#682b35"/>
        <path id="Path_52951" data-name="Path 52951" d="M85.289,160.658c3.508-2.026,4.009-8.068,4.009-8.068s4.164,3.13,5.152,7.865a18.3,18.3,0,0,1-1.128,11.721l-8.033-11.518" transform="translate(-16.553 -116.369)" fill="#fff"/>
        <path id="Path_52962" data-name="Path 52962" d="M180.2,205.373H93.5a4.1,4.1,0,0,1-3.987-4.213V200h94.674v1.16a4.107,4.107,0,0,1-3.987,4.213" transform="translate(-25.138 -69.257)" fill="#0c397a"/>
        <path id="Path_52964" data-name="Path 52964" d="M165.15,228.08H110.98l17.211-53.543a5.59,5.59,0,0,1,4.753-2.694h45.791a2.988,2.988,0,0,1,2.741,4.017c-.274.748-.56,1.481-.8,2.243L165.15,228.08" transform="translate(-12.893 -97.236)" fill="#0c397a"/>
        <path id="Path_52969" data-name="Path 52969" d="M112.587,327.1,87.9,218.823,63.215,327.1H57.3L84.419,207.258l6.957-.008L118.5,327.1h-5.918" transform="translate(-24.354 -62.055)" fill="#fcd979"/>
        <path id="Path_64849" data-name="Path 64849" d="M112.587,327.1,87.9,218.823,63.215,327.1H57.3L84.419,207.258l6.957-.008L118.5,327.1h-5.918" transform="translate(77.304 -62.055)" fill="#fcd979"/>
        <path id="Path_52971" data-name="Path 52971" d="M59.465,213.176H254.2v-9.789H59.465v9.789" transform="translate(-59.465 -65.891)" fill="#fcd979"/>
      </g>
    </g>
    <g id="Group_19485" data-name="Group 19485" transform="translate(1171.684 2991.84)">
      <g id="Group_19483" data-name="Group 19483" transform="translate(0 133.47)">
        <path id="Path_64762" data-name="Path 64762" d="M423.906,156.066c23.176,49.232,2.457,108.094-46.28,131.523l-44.83-89.18,91.109-42.343" transform="translate(-237.898 -99.789)" fill="#fcd979"/>
        <path id="Path_64763" data-name="Path 64763" d="M509.769,207.025c-23.88-50.619-84.872-71.3-134.427-44.632-44.221,23.839-63.46,78.521-44.022,125.16,21.79,52.225,82.047,75.035,132.17,50.954l-39.748-84.3a5.38,5.38,0,0,1,2.51-7.1l83.517-40.085" transform="translate(-323.76 -150.707)" fill="#9ac0f8"/>
        <path id="Path_64764" data-name="Path 64764" d="M375.85,244.86l-39.747-84.3-3.119,93.9a96.946,96.946,0,0,0,42.866-9.6" transform="translate(-236.121 -57.062)" fill="#e49a1f"/>
        <path id="Path_64765" data-name="Path 64765" d="M403.117,193.694a36.777,36.777,0,1,1-36.755-37.124,36.932,36.932,0,0,1,36.755,37.124" transform="translate(-268.596 -95)" fill="#fff"/>
      </g>
      <g id="Group_19484" data-name="Group 19484" transform="translate(71.404 0)">
        <path id="Path_64845" data-name="Path 64845" d="M152.342,145.2c6.045,0,11.209-8.966,11.209-19.62.033-10.622-5.072-19.62-11.142-19.62s-11.209,8.965-11.242,19.587S146.272,145.168,152.342,145.2Zm.1-53.044c12.631.032,22.509,14.714,22.476,33.457S164.947,159,152.308,159c-12.664-.033-22.542-14.744-22.476-33.487.033-18.742,9.937-33.393,22.609-33.359" transform="translate(-129.832 -92.156)" fill="#ef6c00"/>
        <path id="Path_64846" data-name="Path 64846" d="M160.079,151.7c6.078.025,11.242-8.972,11.242-19.591.033-10.619-5.064-19.616-11.142-19.616-6.07-.033-11.209,8.931-11.234,19.583C148.912,142.7,154.042,151.7,160.079,151.7Zm.133-53.016c12.639,0,22.509,14.714,22.476,33.457s-9.97,33.4-22.642,33.362c-12.631-.033-22.509-14.718-22.476-33.462.066-18.743,10-33.39,22.642-33.358" transform="translate(-73.227 -44.377)" fill="#ef6c00"/>
        <path id="Path_64847" data-name="Path 64847" d="M199.922,94.98l-67.47,108.3a5.653,5.653,0,0,0,4.806,8.64h.033a5.614,5.614,0,0,0,4.839-2.661l67.436-108.3a5.674,5.674,0,0,0-9.646-5.977" transform="translate(-116.96 -90.986)" fill="#ef6c00"/>
      </g>
    </g>
  </g>
</svg>
