<svg version="1.1" id="Layer_1" xmlns="http://www.w3.org/2000/svg" xmlns:xlink="http://www.w3.org/1999/xlink" x="0px" y="0px"
	 width="100%" viewBox="0 0 225 225" enable-background="new 0 0 225 225" xml:space="preserve">
<path fill="#FFFFFF" opacity="1.000000" stroke="none" 
	d="
M133.000000,226.000000 
	C88.666672,226.000000 44.833340,226.000000 1.000006,226.000000 
	C1.000004,151.000000 1.000004,76.000015 1.000002,1.000016 
	C75.999992,1.000011 150.999985,1.000011 225.999969,1.000005 
	C225.999985,75.999985 225.999985,150.999969 226.000000,225.999969 
	C195.166672,226.000000 164.333328,226.000000 133.000000,226.000000 
M149.631500,137.700775 
	C149.811584,137.525238 149.928314,137.314545 150.290512,136.420319 
	C151.343765,134.540604 152.397018,132.660873 153.749954,130.513062 
	C153.616653,130.046417 153.483368,129.579758 153.074127,128.226746 
	C152.531418,125.281471 151.988708,122.336189 151.265488,119.059631 
	C150.848282,118.466957 150.431061,117.874283 150.708511,117.027077 
	C151.854034,116.784576 152.999557,116.542084 154.511215,116.666412 
	C154.981674,116.132568 155.452133,115.598724 156.194901,114.363083 
	C154.788895,112.259468 153.382904,110.155853 151.977249,107.577660 
	C151.648224,107.390022 151.319199,107.202385 150.306183,106.792747 
	C148.017807,105.756470 145.729446,104.720192 143.062057,103.512268 
	C142.604721,105.047424 142.151474,106.568901 141.319901,108.444176 
	C141.256851,108.938904 141.193802,109.433632 141.126160,110.728981 
	C140.985092,111.513489 140.844025,112.297997 140.323868,113.439049 
	C140.259506,113.935600 140.195160,114.432144 140.135315,115.680779 
	C139.762909,117.104355 139.390488,118.527931 139.084457,120.610809 
	C140.057846,121.386215 141.031235,122.161629 141.975128,123.045929 
	C141.975128,123.045929 141.864395,123.024384 141.242966,122.999542 
	C140.508987,123.282150 139.774994,123.564758 138.456863,124.115845 
	C137.674973,124.367226 136.893082,124.618607 136.022278,124.155991 
	C136.440689,123.078163 136.859100,122.000336 137.668747,120.560020 
	C137.581116,119.760422 137.493500,118.960823 137.158279,117.547722 
	C137.531540,117.005890 137.904800,116.464066 138.669144,115.559708 
	C138.581406,114.760231 138.493683,113.960747 138.176758,112.480347 
	C139.705994,109.919777 139.903778,108.154602 135.886276,108.205566 
	C134.923737,108.416649 133.961182,108.627731 132.183731,108.976418 
	C129.037918,110.334610 125.892097,111.692802 122.384918,113.261932 
	C122.167076,113.447792 122.010262,113.675659 121.638260,114.091759 
	C121.776962,114.089279 121.915672,114.086807 122.631935,114.044121 
	C123.017639,114.033043 123.403351,114.021965 124.328720,114.437355 
	C127.848236,118.352455 131.367752,122.267548 134.936630,126.900688 
	C137.623703,131.927963 140.310791,136.955246 142.299454,141.996216 
	C141.495911,142.625671 140.692352,143.255142 139.425018,143.978745 
	C139.169830,144.127930 138.914658,144.277130 138.659470,144.426315 
	C139.119049,144.306259 139.578629,144.186218 140.527527,143.841843 
	C141.357483,143.228592 142.187424,142.615341 143.644714,141.860718 
	C144.444077,141.568451 145.243454,141.276184 146.623413,140.955994 
	C147.055023,140.625488 147.486618,140.294998 147.946564,139.939438 
	C147.946564,139.939438 147.975357,139.914932 148.448792,139.701981 
	C148.620621,139.238174 148.792435,138.774368 149.073593,138.040665 
	C149.073593,138.040665 149.314438,137.876968 149.631500,137.700775 
M73.097992,60.340534 
	C73.198967,60.380783 73.299942,60.421028 73.400917,60.461273 
	C73.295654,60.285439 73.190384,60.109608 73.007698,59.389210 
	C72.742531,59.039268 72.477356,58.689327 72.212189,58.339386 
	C72.028229,58.494255 71.844269,58.649124 71.660301,58.803989 
	C72.087654,59.227619 72.514999,59.651245 73.097992,60.340534 
M195.415024,134.579376 
	C195.190445,134.173508 194.965881,133.767654 194.580276,132.640625 
	C194.786835,127.232368 192.344055,123.819489 187.002747,122.059692 
	C187.001633,121.708733 187.000519,121.357773 187.546722,120.957794 
	C187.900589,120.590347 188.254471,120.222893 188.608337,119.855431 
	C188.070343,119.903412 187.532364,119.951401 186.298065,119.999710 
	C185.833847,119.999596 185.369629,119.999481 184.994354,119.065880 
	C184.984940,111.089584 184.971710,103.113289 184.967163,95.136993 
	C184.962433,86.828224 185.015289,78.518913 184.923965,70.211151 
	C184.905975,68.576172 186.005356,65.502594 181.335464,66.996529 
	C180.530304,67.029083 179.725159,67.061638 178.119064,67.189331 
	C177.745193,68.685135 177.073257,70.175995 177.048386,71.677582 
	C176.933090,78.637115 176.997299,85.599625 176.997375,92.561073 
	C176.997467,101.511505 176.937592,110.462959 177.090408,119.410774 
	C177.105774,120.310196 178.409653,121.187599 179.772827,121.976616 
	C181.122849,121.402626 182.472885,120.828636 184.160400,120.110687 
	C184.160400,120.110687 184.509995,120.222061 184.258057,120.801231 
	C184.470078,121.381844 184.682098,121.962456 184.200089,122.810768 
	C177.518295,125.338829 175.952194,128.674652 177.688477,136.472137 
	C177.473801,137.671021 177.259109,138.869888 177.021393,140.992172 
	C177.000626,145.665619 176.979874,150.339066 176.450302,155.446609 
	C174.592468,157.281006 172.734634,159.115402 170.074738,160.985718 
	C168.457199,160.984268 166.839661,160.982803 164.735886,160.357574 
	C163.318649,160.570786 161.901031,160.971924 160.484238,160.969101 
	C138.639282,160.925568 116.794441,160.829529 94.467674,160.331299 
	C94.332802,162.033768 93.506027,164.166336 94.231750,165.333847 
	C95.220871,166.925079 97.394012,167.780319 99.987671,168.971451 
	C124.902100,168.981979 149.816559,169.008591 174.730835,168.949890 
	C175.838318,168.947281 176.943985,168.167938 178.137619,167.177322 
	C178.730881,166.784134 179.324158,166.390961 180.002686,166.791458 
	C181.637924,164.819489 184.407074,162.994492 184.685455,160.846649 
	C185.384521,155.453079 185.005951,149.912598 184.897675,144.434235 
	C184.888184,143.953995 183.690170,143.497253 182.518066,142.682388 
	C181.699890,142.112030 180.881714,141.541672 179.973740,140.557327 
	C179.973740,140.557327 179.912216,140.138214 180.162903,139.644836 
	C180.451691,139.424286 180.740479,139.203735 181.808029,139.120758 
	C186.053497,141.196655 189.639236,139.856781 193.643860,136.979660 
	C194.437164,136.327576 195.230469,135.675476 196.499283,134.981476 
	C196.770157,134.858658 197.041016,134.735840 197.311890,134.613022 
	C196.869598,134.734787 196.427322,134.856552 195.415024,134.579376 
M165.613632,45.849316 
	C165.803864,45.575459 165.994095,45.301601 166.994949,45.007946 
	C176.666336,45.015606 186.337723,45.023266 196.419632,45.543770 
	C197.271545,45.696598 198.123444,45.849422 199.688904,46.120846 
	C200.720978,48.059563 201.753052,49.998276 203.251205,52.812523 
	C202.869629,49.546001 201.809479,46.886154 202.482101,44.779579 
	C203.591461,41.305115 202.233826,39.165646 199.497513,38.706959 
	C194.556213,37.878639 189.249344,36.967358 184.491394,37.970383 
	C180.077972,38.900772 177.236038,37.908970 174.372513,34.987434 
	C171.180389,36.785133 168.142731,38.495853 165.133347,40.901409 
	C165.033951,41.590179 164.934570,42.278954 164.226852,42.679245 
	C162.918777,42.448002 161.610687,42.216759 160.031448,41.196590 
	C159.710281,39.049873 159.389099,36.903152 158.995880,34.308395 
	C158.843460,34.070587 158.691040,33.832783 158.538620,33.594982 
	C158.358215,33.964245 158.177811,34.333504 157.513336,34.927956 
	C157.333649,34.642906 157.153961,34.357857 156.830383,33.283459 
	C153.594604,32.855457 150.358841,32.427456 146.673981,31.454241 
	C145.261749,27.774845 142.552658,26.135727 138.646103,26.027822 
	C134.195282,25.904886 131.576309,28.245419 129.507339,32.171986 
	C129.289490,32.315285 129.128006,32.506245 128.139603,32.897812 
	C127.480309,32.904118 126.820564,32.929211 126.161781,32.913700 
	C121.523849,32.804543 117.081078,32.858723 117.704903,39.564888 
	C117.769554,40.259861 116.695045,41.060795 115.198982,41.929180 
	C111.111351,41.957321 106.990074,42.326370 102.944641,41.927055 
	C97.921516,41.431232 94.821510,43.431973 92.357872,48.478054 
	C92.293190,57.617016 92.228516,66.755974 91.843880,76.546783 
	C88.560951,78.319115 85.177788,79.931358 82.022354,81.907303 
	C78.640884,84.024788 76.067108,83.756500 73.670959,79.589363 
	C68.797256,77.441368 63.923561,75.293373 58.995136,72.542175 
	C58.705193,72.045456 58.415253,71.548744 57.816200,70.502441 
	C60.356190,67.050331 61.815544,63.296589 61.744019,58.960243 
	C65.866219,54.730270 65.395157,52.120689 60.182549,50.310123 
	C61.076675,46.414524 59.594616,44.587364 56.181793,46.293785 
	C52.697922,48.035732 49.961281,51.242252 46.821178,53.710491 
	C44.001537,55.926842 42.987404,58.932343 44.590153,61.882851 
	C45.573185,63.692513 48.139957,64.641869 50.018974,66.818489 
	C50.014931,68.499336 50.010887,70.180191 49.407047,71.984245 
	C48.919426,72.288948 48.431801,72.593651 47.182598,72.989212 
	C39.867924,74.226158 34.818977,78.720406 30.894070,84.628349 
	C30.138811,85.765198 30.289669,87.504028 29.469097,89.371735 
	C23.818008,97.394524 22.635616,101.334549 30.295059,108.955193 
	C33.221539,111.866852 36.185947,114.743629 39.018734,117.744247 
	C39.875019,118.651283 40.347221,119.920906 40.897015,121.664902 
	C40.084167,122.446671 39.375473,123.732132 38.440929,123.925369 
	C33.708344,124.903954 35.081707,126.812431 37.116013,129.504562 
	C39.656952,132.867142 41.754768,136.564590 44.000164,141.033142 
	C42.436378,153.581985 41.010712,166.150772 39.203697,178.664490 
	C38.794128,181.500809 37.060730,184.145950 35.769611,187.285339 
	C36.099899,187.411224 37.101608,187.792984 38.119438,188.976257 
	C38.126095,190.045273 38.132751,191.114273 38.036217,192.903870 
	C37.924061,194.522659 37.811905,196.141449 37.666763,198.236313 
	C43.427719,199.143845 49.040207,200.028000 55.950573,201.116608 
	C52.154053,197.394669 49.499474,194.792236 46.823349,191.475876 
	C46.899239,190.765808 46.975132,190.055725 47.741943,189.301376 
	C49.364735,189.301376 50.987530,189.301376 52.206074,189.301376 
	C52.070854,186.815140 51.584522,185.147659 51.964672,183.709152 
	C54.942345,172.441620 58.086174,161.218018 61.631828,149.752060 
	C62.071930,149.503250 62.512035,149.254425 63.437412,149.703369 
	C63.072765,158.357285 62.885479,167.023804 62.272415,175.660080 
	C61.940830,180.331085 60.882339,184.950470 60.042297,190.288849 
	C60.272305,190.338959 61.623299,190.633347 63.038059,191.705994 
	C63.020866,192.486023 63.003677,193.266052 62.291420,194.491302 
	C62.291420,196.553192 62.291420,198.615082 62.291420,200.551483 
	C68.429184,200.551483 74.226967,200.551483 81.221069,200.551483 
	C77.112030,197.585999 74.017014,195.352341 70.864609,192.468597 
	C70.948006,191.823044 71.031403,191.177490 71.906540,190.339996 
	C73.812920,189.910751 77.493561,191.287231 75.793915,185.709961 
	C75.811951,184.921875 75.829994,184.133774 75.517067,182.604553 
	C75.898552,180.148941 76.338356,177.700760 76.651596,175.236465 
	C78.130684,163.600449 80.699112,152.027954 77.085701,140.261520 
	C74.322754,131.264420 72.079628,122.107704 69.848511,112.374054 
	C69.523010,110.058739 69.197517,107.743423 68.924294,104.770126 
	C68.686089,104.192474 68.447876,103.614822 68.045883,102.209564 
	C67.999237,99.999084 67.952583,97.788612 67.953568,94.668602 
	C68.504616,93.676079 69.055656,92.683563 69.693459,91.325165 
	C69.991142,91.102089 70.288826,90.879021 71.352974,90.873161 
	C75.980843,94.463326 80.418968,94.005142 85.011871,90.602829 
	C87.061707,89.084366 89.580963,88.199562 91.972366,87.958290 
	C91.972366,108.520042 91.972366,129.081787 91.972366,149.743042 
	C114.393845,149.743042 136.789337,149.743042 159.184830,149.743042 
	C159.186111,149.413071 159.187393,149.083099 159.188675,148.753128 
	C139.111023,148.753128 119.033371,148.753128 98.783180,148.450195 
	C98.634804,148.260712 98.448654,148.121826 98.058449,147.105499 
	C97.971870,125.780937 97.885300,104.456367 98.548042,82.968262 
	C100.191887,81.614929 101.835732,80.261597 103.931564,78.536148 
	C103.989777,77.494774 104.083504,75.818092 104.137871,74.845459 
	C101.660355,74.090645 99.703629,73.494499 97.903412,71.992416 
	C97.853470,64.039543 97.803528,56.086666 98.275162,47.884315 
	C98.517731,47.590630 98.760300,47.296944 99.935555,47.001579 
	C105.323029,46.675701 110.710495,46.349827 116.125999,46.664196 
	C116.921944,47.805023 117.717888,48.945847 119.097412,50.801956 
	C131.782867,50.883976 144.468292,50.980846 157.153854,51.002903 
	C157.769699,51.003975 158.386688,50.348068 159.349594,49.382324 
	C159.951447,47.929234 160.553314,46.476143 161.778961,45.321640 
	C162.890106,45.524948 164.001266,45.728260 165.613632,45.849316 
M143.635162,91.850906 
	C145.787292,89.601112 146.100647,87.591812 142.110916,86.010490 
	C141.092133,86.044174 140.073334,86.077866 138.615829,85.595764 
	C136.188965,88.118759 136.311218,89.648270 139.874359,91.989464 
	C140.874878,91.977890 141.875381,91.966316 143.635162,91.850906 
M109.970421,67.884979 
	C109.981300,73.610138 109.896248,79.337822 110.046272,85.059326 
	C110.114365,87.656448 110.648354,90.241364 111.717064,92.973770 
	C112.833794,92.673012 113.950516,92.372261 115.512245,92.007065 
	C115.512245,92.007065 115.961212,91.982574 116.578880,91.419746 
	C116.477386,83.967667 116.375885,76.515594 116.108047,68.322449 
	C116.041809,67.821518 115.975571,67.320595 115.412910,66.333099 
	C113.606201,66.535522 111.799492,66.737946 109.970421,67.884979 
M129.750809,92.270592 
	C131.054214,92.523979 132.357635,92.777359 133.881882,93.073677 
	C133.881882,88.786148 133.881882,85.157288 133.881882,81.865036 
	C132.158569,81.865036 130.544937,81.865036 128.342346,81.758026 
	C128.550461,85.200096 128.758560,88.642159 129.750809,92.270592 
M125.693665,92.231575 
	C125.693665,86.985138 125.693665,81.738701 125.693665,75.857224 
	C123.541832,76.198128 121.838783,76.467926 119.864319,77.577415 
	C119.573502,80.982620 119.101295,84.384216 119.033310,87.793861 
	C118.924690,93.242523 119.779366,93.774223 125.693665,92.231575 
M157.194885,59.003258 
	C152.545929,59.002079 147.881317,58.794460 143.259048,59.145111 
	C142.105667,59.232613 140.302673,61.012581 140.140305,62.198433 
	C139.264008,68.597939 139.746628,68.998131 146.084244,69.007408 
	C148.906845,69.011536 151.745041,69.187195 154.546417,68.943382 
	C156.333496,68.787842 159.587570,67.963623 159.574951,67.511986 
	C159.496048,64.682846 158.683258,61.874176 157.194885,59.003258 
M76.453262,48.055546 
	C73.326698,50.501556 72.571022,53.488903 75.017944,56.705711 
	C77.017044,59.333782 80.093094,60.004025 82.391609,57.663597 
	C83.827538,56.201492 84.811890,53.169868 84.356956,51.227009 
	C83.573029,47.879150 80.581825,46.873772 76.453262,48.055546 
M166.256165,72.000191 
	C157.718246,72.000191 149.180313,72.000191 140.642395,72.000191 
	C140.663574,72.463631 140.684769,72.927063 140.705948,73.390503 
	C150.911209,73.390503 161.116470,73.390503 171.321732,73.390503 
	C171.331284,73.028137 171.340836,72.665771 171.350388,72.303406 
	C169.959702,72.202362 168.569031,72.101318 166.256165,72.000191 
M177.859772,57.047417 
	C179.176758,57.796013 180.493729,58.544609 181.810715,59.293205 
	C182.535461,57.298283 183.708481,55.321175 183.788742,53.300644 
	C183.826736,52.344231 181.774551,51.304775 180.669342,50.302937 
	C179.716415,51.625820 178.680939,52.899952 177.855301,54.298023 
	C177.566299,54.787376 177.793716,55.581715 177.859772,57.047417 
M111.123016,134.115677 
	C110.383629,135.863464 109.644249,137.611267 108.636002,139.994583 
	C111.292931,139.994583 112.640343,140.215942 113.868423,139.928116 
	C114.950478,139.674545 116.735291,138.850082 116.733978,138.281097 
	C116.731201,137.069672 116.024132,135.591217 115.119339,134.737915 
	C114.430298,134.088089 112.991814,134.232941 111.123016,134.115677 
M116.528511,95.003578 
	C112.895569,95.003578 109.262627,95.003578 105.629692,95.003578 
	C105.642845,95.231865 105.656006,95.460152 105.669159,95.688438 
	C119.237740,95.688438 132.806320,95.688438 146.374893,95.688438 
	C146.374634,95.460152 146.374359,95.231865 146.374084,95.003578 
	C136.755905,95.003578 127.137711,95.003578 116.528511,95.003578 
M165.649628,104.572334 
	C162.546082,102.348427 155.759445,102.437149 152.232346,104.956154 
	C156.643661,104.956154 160.760498,104.956154 165.649628,104.572334 
M190.005066,55.103153 
	C189.580292,53.467125 189.155533,51.831093 188.730759,50.195061 
	C187.636581,50.718040 186.542404,51.241020 185.411530,51.781536 
	C187.119919,54.726032 188.520370,57.139801 189.920837,59.553570 
	C190.173935,59.425148 190.427048,59.296726 190.680161,59.168304 
	C190.457703,58.069279 190.235260,56.970249 190.005066,55.103153 
M114.004265,60.869793 
	C115.268585,61.375782 116.532898,61.881771 117.797218,62.387760 
	C118.076645,62.017921 118.356064,61.648083 118.635490,61.278240 
	C117.787857,59.927666 116.940224,58.577087 116.092598,57.226509 
	C115.391319,58.202290 114.690033,59.178074 114.004265,60.869793 
M163.051254,110.989632 
	C166.704727,110.157936 166.704727,110.157936 166.174744,105.270889 
	C164.476028,107.793007 163.422058,109.357872 163.051254,110.989632 
M165.954834,58.226536 
	C165.738571,57.302948 165.522308,56.379356 165.306046,55.455769 
	C164.812836,55.750889 164.319611,56.046013 163.826401,56.341133 
	C164.487579,57.198502 165.148758,58.055870 165.954834,58.226536 
M126.063797,134.802383 
	C125.814110,134.346695 125.564423,133.891006 125.314743,133.435318 
	C125.010529,134.358353 124.706314,135.281372 124.402092,136.204407 
	C124.876854,135.919022 125.351608,135.633636 126.063797,134.802383 
M173.217773,65.119789 
	C173.585175,65.702080 173.952591,66.284378 174.319992,66.866676 
	C174.719254,66.494507 175.118500,66.122337 175.517746,65.750160 
	C174.958679,65.511032 174.399628,65.271904 173.217773,65.119789 
M88.298950,50.420349 
	C88.009903,50.696529 87.718147,50.970200 87.447098,51.263042 
	C87.440163,51.270531 87.660553,51.488434 87.774933,51.608204 
	C88.064079,51.331646 88.353233,51.055088 88.298950,50.420349 
M128.391296,143.208023 
	C128.791397,143.213211 129.191498,143.218399 129.591614,143.223587 
	C129.592316,143.057587 129.604599,142.747482 129.592041,142.746475 
	C129.194397,142.714539 128.794342,142.712601 128.391296,143.208023 
M117.702530,120.571190 
	C117.989548,120.297165 118.276566,120.023140 118.563583,119.749115 
	C118.449959,119.630341 118.243805,119.402046 118.236061,119.408592 
	C117.933365,119.664330 117.648743,119.941467 117.702530,120.571190 
M131.331375,76.971321 
	C131.878922,77.266327 132.426468,77.561333 132.974014,77.856346 
	C133.065323,77.644722 133.156647,77.433105 133.247955,77.221481 
	C132.719406,77.013855 132.190857,76.806229 131.331375,76.971321 
M159.795700,152.387054 
	C159.791565,152.784348 159.787445,153.181625 159.783310,153.578918 
	C159.948181,153.580444 160.256348,153.592957 160.257187,153.581879 
	C160.287552,153.186493 160.289185,152.788895 159.795700,152.387054 
M79.609848,43.797302 
	C79.214752,43.793125 78.819656,43.788948 78.424561,43.784771 
	C78.423042,43.948730 78.410545,44.255192 78.421593,44.256046 
	C78.814751,44.286339 79.210106,44.288021 79.609848,43.797302 
M89.715942,155.997330 
	C89.981384,156.160110 90.246826,156.322891 90.512268,156.485672 
	C90.347015,156.221100 90.181770,155.956543 89.715942,155.997330 
M166.414185,65.403885 
	C166.392456,65.049690 166.370728,64.695496 166.348999,64.341301 
	C166.095337,64.414284 165.841690,64.487259 165.588028,64.560242 
	C165.721924,64.805267 165.855820,65.050301 166.414185,65.403885 
M120.158257,67.953407 
	C120.412872,67.801369 120.798111,67.698914 120.880615,67.481552 
	C120.946121,67.308960 120.641136,66.995743 120.500641,66.744965 
	C120.359718,66.996078 120.218796,67.247185 120.158257,67.953407 
M106.953568,72.841125 
	C106.801964,72.586990 106.699936,72.202858 106.482971,72.120110 
	C106.311386,72.054665 105.998634,72.359367 105.748573,72.499695 
	C105.998909,72.640327 106.249245,72.780960 106.953568,72.841125 
M116.527687,124.392914 
	C116.818634,124.122818 117.109573,123.852722 117.400505,123.582634 
	C117.296379,123.479774 117.111763,123.278725 117.099907,123.288429 
	C116.806808,123.528664 116.531990,123.791206 116.527687,124.392914 
M117.604424,132.410324 
	C117.953339,132.388840 118.302246,132.367355 118.651161,132.345871 
	C118.579483,132.096054 118.507805,131.846237 118.436127,131.596420 
	C118.194534,131.728226 117.952942,131.860046 117.604424,132.410324 
M73.401169,46.520748 
	C73.172981,46.463242 72.944794,46.405739 72.716606,46.348232 
	C72.863747,46.491776 73.010880,46.635319 73.401169,46.520748 
M137.821472,80.238426 
	C137.878128,80.409180 137.934799,80.579926 137.991486,80.750671 
	C138.046631,80.578659 138.101791,80.406647 137.821472,80.238426 
M175.203125,135.787354 
	C175.141373,135.603165 175.079605,135.418976 175.017838,135.234787 
	C174.959641,135.419327 174.901428,135.603882 175.203125,135.787354 
M129.481873,76.596344 
	C129.481873,76.596344 129.408096,76.476250 129.481873,76.596344 
M118.594063,65.516045 
	C118.594063,65.516045 118.476204,65.588242 118.594063,65.516045 
M176.599991,125.516541 
	C176.599991,125.516541 176.475800,125.594139 176.599991,125.516541 
z"/>
<path fill="#044FB1" opacity="1.000000" stroke="none" 
	d="
M69.605278,113.021988 
	C72.079628,122.107704 74.322754,131.264420 77.085701,140.261520 
	C80.699112,152.027954 78.130684,163.600449 76.651596,175.236465 
	C76.338356,177.700760 75.898552,180.148941 75.437126,183.202728 
	C75.391518,184.816696 75.425858,185.832504 75.460190,186.848312 
	C77.493561,191.287231 73.812920,189.910751 71.098068,190.315231 
	C67.851166,190.502884 65.412727,190.715302 62.974289,190.927719 
	C61.623299,190.633347 60.272305,190.338959 60.042297,190.288849 
	C60.882339,184.950470 61.940830,180.331085 62.272415,175.660080 
	C62.885479,167.023804 63.072765,158.357285 63.223919,148.996399 
	C62.636684,147.153687 62.262943,146.017929 61.889202,144.882187 
	C61.652386,144.958054 61.415565,145.033936 61.178749,145.109802 
	C61.178749,146.733490 61.178749,148.357162 61.178749,149.980850 
	C58.086174,161.218018 54.942345,172.441620 51.964672,183.709152 
	C51.584522,185.147659 52.070854,186.815140 52.206074,189.301376 
	C50.987530,189.301376 49.364735,189.301376 46.995956,189.192505 
	C43.534424,188.780655 40.818871,188.477707 38.103317,188.174744 
	C37.101608,187.792984 36.099899,187.411224 35.769611,187.285339 
	C37.060730,184.145950 38.794128,181.500809 39.203697,178.664490 
	C41.010712,166.150772 42.436378,153.581985 44.338200,140.582367 
	C45.828094,140.414948 47.298172,141.300003 48.081173,140.885910 
	C54.042961,137.732956 59.931263,134.423950 65.657295,130.865601 
	C66.317589,130.455261 66.409470,127.853363 65.792587,126.890511 
	C63.395470,123.149010 60.605900,119.658958 58.197052,115.775040 
	C62.156246,114.657166 65.880760,113.839577 69.605278,113.021988 
z"/>
<path fill="#454CA1" opacity="1.000000" stroke="none" 
	d="
M69.726898,112.698021 
	C65.880760,113.839577 62.156246,114.657166 57.893730,115.601181 
	C54.961552,116.447899 52.567371,117.168182 50.180229,117.513687 
	C47.102863,114.100906 44.018463,111.062912 40.992401,107.598045 
	C40.045811,103.122383 39.040882,99.073601 37.830971,94.758423 
	C35.091492,92.649750 32.557007,90.807449 30.022520,88.965149 
	C30.289669,87.504028 30.138811,85.765198 30.894070,84.628349 
	C34.818977,78.720406 39.867924,74.226158 47.594185,73.307571 
	C51.421894,78.742615 53.280060,79.044037 56.433121,74.925491 
	C57.162491,74.585739 57.594997,74.265282 58.268143,73.920540 
	C58.843472,73.757217 59.023834,73.506920 59.049862,73.145378 
	C63.923561,75.293373 68.797256,77.441368 73.864388,80.255775 
	C72.900711,84.166771 71.743607,87.411362 70.586502,90.655945 
	C70.288826,90.879021 69.991142,91.102089 69.438126,91.216652 
	C68.502258,91.075859 67.821732,91.043579 67.141205,91.011307 
	C67.396118,92.533585 67.651031,94.055855 67.905937,95.578133 
	C67.952583,97.788612 67.999237,99.999084 68.083939,102.945190 
	C68.372009,104.263245 68.622009,104.845673 68.872017,105.428108 
	C69.197517,107.743423 69.523010,110.058739 69.726898,112.698021 
z"/>
<path fill="#252C2C" opacity="1.000000" stroke="none" 
	d="
M118.513840,50.086670 
	C117.717888,48.945847 116.921944,47.805023 116.363159,46.275921 
	C116.689865,45.591526 116.779419,45.295406 116.953773,44.671867 
	C117.012726,43.896698 116.986877,43.448944 117.031921,42.707634 
	C116.777245,42.201878 116.451668,41.989681 116.102997,41.804813 
	C116.079895,41.832142 116.149101,41.812561 116.149101,41.812561 
	C116.695045,41.060795 117.769554,40.259861 117.704903,39.564888 
	C117.081078,32.858723 121.523849,32.804543 126.161781,32.913700 
	C126.820564,32.929211 127.480309,32.904118 128.826950,32.884560 
	C129.626572,32.584747 129.738846,32.298183 129.851120,32.011620 
	C131.576309,28.245419 134.195282,25.904886 138.646103,26.027822 
	C142.552658,26.135727 145.261749,27.774845 146.880798,32.151974 
	C150.383179,33.257412 153.678726,33.665112 156.974274,34.072815 
	C157.153961,34.357857 157.333649,34.642906 158.022278,34.843285 
	C158.710129,34.757885 158.889023,34.757160 159.067932,34.756435 
	C159.389099,36.903152 159.710281,39.049873 160.183365,41.907883 
	C160.608582,43.420467 160.881866,44.221760 161.155167,45.023052 
	C160.553314,46.476143 159.951447,47.929234 158.707596,49.680023 
	C144.881683,50.014034 131.697754,50.050354 118.513840,50.086670 
M137.165726,29.743898 
	C134.677872,31.289368 134.522491,33.348404 136.057861,35.587448 
	C136.624664,36.414021 137.590881,36.966690 138.374939,37.644291 
	C139.511749,36.302658 141.763123,34.709076 141.529861,33.677139 
	C141.159592,32.039158 139.129471,30.776379 137.165726,29.743898 
z"/>
<path fill="#E3E6FB" opacity="1.000000" stroke="none" 
	d="
M170.876801,160.949799 
	C172.734634,159.115402 174.592468,157.281006 177.036163,155.024139 
	C178.078064,152.749603 178.642120,150.916107 178.964279,149.041061 
	C179.423691,146.367126 179.705750,143.662704 180.063538,140.971313 
	C180.881714,141.541672 181.699890,142.112030 182.706940,143.316803 
	C182.890335,149.033890 183.185669,154.142792 182.745682,159.187561 
	C182.542053,161.522079 180.904724,163.731583 179.917419,165.997772 
	C179.324158,166.390961 178.730881,166.784134 177.738434,167.498230 
	C176.864853,167.823212 176.390457,167.827301 175.608765,167.566498 
	C174.652573,167.201263 174.003723,167.013687 173.354752,167.013245 
	C150.161728,166.997406 126.968666,166.985413 103.775742,167.035950 
	C102.537399,167.038651 101.300262,167.588608 99.833023,168.005646 
	C99.422150,168.402023 99.240822,168.676575 99.059494,168.951126 
	C97.394012,167.780319 95.220871,166.925079 94.231750,165.333847 
	C93.506027,164.166336 94.332802,162.033768 94.773743,160.859421 
	C95.415619,161.653809 95.751442,161.920074 96.301758,162.414093 
	C97.657211,162.474548 98.798164,162.307220 100.407692,162.075577 
	C122.211578,161.953766 143.546875,161.896286 165.130249,162.140244 
	C167.474960,162.916687 169.850510,164.419632 170.876801,160.949799 
z"/>
<path fill="#F9F9FC" opacity="1.000000" stroke="none" 
	d="
M50.173195,117.888474 
	C52.567371,117.168182 54.961552,116.447899 57.659058,115.901474 
	C60.605900,119.658958 63.395470,123.149010 65.792587,126.890511 
	C66.409470,127.853363 66.317589,130.455261 65.657295,130.865601 
	C59.931263,134.423950 54.042961,137.732956 48.081173,140.885910 
	C47.298172,141.300003 45.828094,140.414948 44.360062,140.124527 
	C41.754768,136.564590 39.656952,132.867142 37.116013,129.504562 
	C35.081707,126.812431 33.708344,124.903954 38.440929,123.925369 
	C39.375473,123.732132 40.084167,122.446671 41.219582,121.521484 
	C42.169815,121.908150 42.889877,122.360924 43.409180,122.981651 
	C45.692677,125.711243 48.538052,126.762833 51.444637,124.515480 
	C54.854683,121.878860 50.704632,120.104271 50.173195,117.888474 
z"/>
<path fill="#FDCFC5" opacity="1.000000" stroke="none" 
	d="
M50.180229,117.513687 
	C50.704632,120.104271 54.854683,121.878860 51.444637,124.515480 
	C48.538052,126.762833 45.692677,125.711243 43.409180,122.981651 
	C42.889877,122.360924 42.169815,121.908150 41.268757,121.201256 
	C40.347221,119.920906 39.875019,118.651283 39.018734,117.744247 
	C36.185947,114.743629 33.221539,111.866852 30.295059,108.955193 
	C22.635616,101.334549 23.818008,97.394524 29.745808,89.168442 
	C32.557007,90.807449 35.091492,92.649750 37.690975,95.069954 
	C34.814411,99.034042 34.812359,102.140915 38.479847,105.074600 
	C39.458431,105.857376 40.124512,107.030823 40.934063,108.024918 
	C44.018463,111.062912 47.102863,114.100906 50.180229,117.513687 
z"/>
<path fill="#FDCFC5" opacity="1.000000" stroke="none" 
	d="
M70.969742,90.764557 
	C71.743607,87.411362 72.900711,84.166771 74.076103,80.533768 
	C76.067108,83.756500 78.640884,84.024788 82.022354,81.907303 
	C85.177788,79.931358 88.560951,78.319115 92.205330,76.140038 
	C92.806747,75.554085 92.982712,75.325569 93.432030,75.009491 
	C94.912926,74.261314 96.056465,73.551399 97.337250,72.850739 
	C97.474480,72.860008 97.746895,72.898354 97.746895,72.898354 
	C99.703629,73.494499 101.660355,74.090645 104.137871,74.845459 
	C104.083504,75.818092 103.989777,77.494774 103.931564,78.536148 
	C101.835732,80.261597 100.191887,81.614929 98.004974,83.164917 
	C97.267754,83.559067 97.105202,83.779861 96.645119,84.047333 
	C95.206192,84.718086 94.096413,85.365433 92.742737,86.104401 
	C92.294945,86.473076 92.091064,86.750130 91.887177,87.027176 
	C89.580963,88.199562 87.061707,89.084366 85.011871,90.602829 
	C80.418968,94.005142 75.980843,94.463326 70.969742,90.764557 
z"/>
<path fill="#E6E9FC" opacity="1.000000" stroke="none" 
	d="
M165.105072,40.206573 
	C168.142731,38.495853 171.180389,36.785133 174.372513,34.987434 
	C177.236038,37.908970 180.077972,38.900772 184.491394,37.970383 
	C189.249344,36.967358 194.556213,37.878639 199.497513,38.706959 
	C202.233826,39.165646 203.591461,41.305115 202.482101,44.779579 
	C201.809479,46.886154 202.869629,49.546001 203.251205,52.812523 
	C201.753052,49.998276 200.720978,48.059563 199.129379,45.802223 
	C197.716278,45.332706 196.862686,45.181816 196.009109,45.030926 
	C186.337723,45.023266 176.666336,45.015606 166.535461,44.647156 
	C165.752335,42.926434 165.428711,41.566502 165.105072,40.206573 
z"/>
<path fill="#FAD04D" opacity="1.000000" stroke="none" 
	d="
M146.042831,140.983917 
	C145.243454,141.276184 144.444077,141.568451 143.323212,141.929489 
	C143.001709,141.998260 142.997864,141.982513 142.997864,141.982513 
	C140.310791,136.955246 137.623703,131.927963 135.053711,126.270111 
	C135.484268,125.383018 135.797729,125.126503 136.111191,124.869995 
	C136.893082,124.618607 137.674973,124.367226 139.062225,124.015884 
	C140.399857,123.618752 141.132126,123.321571 141.864395,123.024384 
	C141.864395,123.024384 141.975128,123.045929 142.365158,122.984512 
	C145.652130,121.745697 148.549072,120.568306 151.446014,119.390915 
	C151.988708,122.336189 152.531418,125.281471 153.176453,128.949509 
	C153.335922,130.041901 153.393082,130.411514 153.450256,130.781143 
	C152.397018,132.660873 151.343765,134.540604 149.947632,136.811172 
	C149.324997,137.348419 149.228226,137.573410 149.314438,137.876968 
	C149.314438,137.876968 149.073593,138.040665 148.756378,138.228088 
	C148.284576,138.915329 148.129974,139.415131 147.975372,139.914932 
	C147.975357,139.914932 147.946564,139.939438 147.635223,139.909363 
	C146.896881,140.247513 146.469864,140.615723 146.042831,140.983917 
z"/>
<path fill="#DDE0F3" opacity="1.000000" stroke="none" 
	d="
M183.822922,120.254654 
	C182.472885,120.828636 181.122849,121.402626 179.404877,121.550827 
	C178.997955,103.114754 178.958969,85.104469 178.919998,67.094193 
	C179.725159,67.061638 180.530304,67.029083 182.073853,67.246307 
	C182.840164,83.386894 182.840500,99.277863 182.936279,115.168259 
	C182.946503,116.865448 183.513962,118.559273 183.822922,120.254654 
z"/>
<path fill="#FFB90C" opacity="1.000000" stroke="none" 
	d="
M178.032700,135.947510 
	C175.952194,128.674652 177.518295,125.338829 184.895660,122.751312 
	C186.063354,122.656593 186.535446,122.621323 187.007553,122.586060 
	C192.344055,123.819489 194.786835,127.232368 194.416229,133.242126 
	C193.810410,134.886826 193.368607,135.930023 192.926819,136.973236 
	C189.639236,139.856781 186.053497,141.196655 181.268387,138.782608 
	C179.830063,137.612137 178.931381,136.779831 178.032700,135.947510 
M188.008881,127.156029 
	C185.879028,124.890533 183.024155,126.706902 183.100815,127.944473 
	C183.227127,129.983734 185.288895,131.903107 186.582306,133.948090 
	C185.535263,133.840149 183.927292,133.674408 182.319305,133.508652 
	C182.198044,133.931152 182.076767,134.353668 181.955505,134.776169 
	C183.553894,135.365204 185.150360,136.375015 186.751389,136.382233 
	C187.681366,136.386459 188.618622,134.780884 189.552612,133.899689 
	C187.974899,132.243927 186.397202,130.588165 183.991104,128.063019 
	C185.967117,128.668152 187.019516,128.990448 188.071899,129.312729 
	C188.225052,128.737701 188.378204,128.162659 188.008881,127.156029 
z"/>
<path fill="#060606" opacity="1.000000" stroke="none" 
	d="
M49.995537,65.977554 
	C48.139957,64.641869 45.573185,63.692513 44.590153,61.882851 
	C42.987404,58.932343 44.001537,55.926842 46.821178,53.710491 
	C49.961281,51.242252 52.697922,48.035732 56.181793,46.293785 
	C59.594616,44.587364 61.076675,46.414524 60.182549,50.310123 
	C65.395157,52.120689 65.866219,54.730270 61.358452,58.542931 
	C58.486866,57.436413 56.000839,56.747208 53.615654,56.085953 
	C52.772839,57.650860 52.167091,58.775593 51.757286,59.536499 
	C50.476250,59.152039 49.214531,58.773373 47.952808,58.394711 
	C48.367241,59.701199 48.824947,60.995953 49.183353,62.317635 
	C49.510059,63.522427 49.729061,64.756424 49.995537,65.977554 
z"/>
<path fill="#E5E8FF" opacity="1.000000" stroke="none" 
	d="
M157.654114,59.030994 
	C158.683258,61.874176 159.496048,64.682846 159.574951,67.511986 
	C159.587570,67.963623 156.333496,68.787842 154.546417,68.943382 
	C151.745041,69.187195 148.906845,69.011536 146.084244,69.007408 
	C139.746628,68.998131 139.264008,68.597939 140.140305,62.198433 
	C140.302673,61.012581 142.105667,59.232613 143.259048,59.145111 
	C147.881317,58.794460 152.545929,59.002079 157.654114,59.030994 
z"/>
<path fill="#E6E9FF" opacity="1.000000" stroke="none" 
	d="
M97.200012,72.841476 
	C96.056465,73.551399 94.912926,74.261314 93.396667,74.535919 
	C93.017395,65.371269 93.010826,56.641941 93.004265,47.912609 
	C94.821510,43.431973 97.921516,41.431232 102.944641,41.927055 
	C106.990074,42.326370 111.111351,41.957321 115.674042,41.870872 
	C116.149101,41.812561 116.079895,41.832142 116.154221,42.061531 
	C116.472710,42.527676 116.716873,42.764435 116.961029,43.001190 
	C116.986877,43.448944 117.012726,43.896698 116.494293,44.671547 
	C111.552132,44.999542 107.146126,44.852543 102.761391,45.093128 
	C101.477478,45.163574 100.254028,46.335938 99.002869,47.003254 
	C98.760300,47.296944 98.517731,47.590630 97.770370,48.324654 
	C97.243721,56.790485 97.221863,64.815979 97.200012,72.841476 
z"/>
<path fill="#F8CCC3" opacity="1.000000" stroke="none" 
	d="
M50.007256,66.398026 
	C49.729061,64.756424 49.510059,63.522427 49.183353,62.317635 
	C48.824947,60.995953 48.367241,59.701199 47.952808,58.394711 
	C49.214531,58.773373 50.476250,59.152039 51.757286,59.536499 
	C52.167091,58.775593 52.772839,57.650860 53.615654,56.085953 
	C56.000839,56.747208 58.486866,57.436413 61.010788,58.523544 
	C61.815544,63.296589 60.356190,67.050331 57.958534,71.137634 
	C58.076412,72.496834 58.051956,73.220825 58.027504,73.944824 
	C57.594997,74.265282 57.162491,74.585739 56.243500,74.619255 
	C53.840290,73.508553 51.923569,72.684792 50.006844,71.861038 
	C50.010887,70.180191 50.014931,68.499336 50.007256,66.398026 
z"/>
<path fill="#0776EE" opacity="1.000000" stroke="none" 
	d="
M151.976898,108.052238 
	C153.382904,110.155853 154.788895,112.259468 155.762268,114.730621 
	C154.934799,115.498634 154.539932,115.899109 154.145081,116.299591 
	C152.999557,116.542084 151.854034,116.784576 150.015411,117.235626 
	C146.125870,119.259270 143.056778,121.597794 139.018082,119.951508 
	C139.390488,118.527931 139.762909,117.104355 140.326660,115.140305 
	C140.579666,114.094048 140.641312,113.588280 140.702942,113.082504 
	C140.844025,112.297997 140.985092,111.513489 141.321732,110.165108 
	C141.577606,109.097610 141.637909,108.593994 141.698212,108.090370 
	C142.151474,106.568901 142.604721,105.047424 143.062057,103.512268 
	C145.729446,104.720192 148.017807,105.756470 150.724487,107.146744 
	C151.420822,107.684570 151.698868,107.868408 151.976898,108.052238 
z"/>
<path fill="#F84046" opacity="1.000000" stroke="none" 
	d="
M136.066742,124.512985 
	C135.797729,125.126503 135.484268,125.383018 135.029037,125.911087 
	C131.367752,122.267548 127.848236,118.352455 123.996368,113.970901 
	C123.358109,113.353302 123.052200,113.202156 122.746284,113.051003 
	C125.892097,111.692802 129.037918,110.334610 132.963287,108.978027 
	C134.495697,108.932709 135.248520,108.885780 136.001358,108.838860 
	C139.903778,108.154602 139.705994,109.919777 138.252823,113.162659 
	C138.311951,114.537392 138.295013,115.229813 138.278076,115.922241 
	C137.904800,116.464066 137.531540,117.005890 137.243561,118.196350 
	C137.311737,119.537491 137.294617,120.229996 137.277512,120.922501 
	C136.859100,122.000336 136.440689,123.078163 136.066742,124.512985 
z"/>
<path fill="#B1B1B0" opacity="1.000000" stroke="none" 
	d="
M91.929771,87.492737 
	C92.091064,86.750130 92.294945,86.473076 92.753845,86.571747 
	C93.006493,106.172737 93.041153,125.398170 92.961899,144.623123 
	C92.949997,147.510834 93.241447,149.645493 97.218864,148.972168 
	C97.738243,148.965500 97.945946,148.959274 98.359650,148.925079 
	C98.565651,148.897079 98.955711,148.753128 98.955711,148.753128 
	C119.033371,148.753128 139.111023,148.753128 159.188675,148.753128 
	C159.187393,149.083099 159.186111,149.413071 159.184830,149.743042 
	C136.789337,149.743042 114.393845,149.743042 91.972366,149.743042 
	C91.972366,129.081787 91.972366,108.520042 91.929771,87.492737 
z"/>
<path fill="#C8CACE" opacity="1.000000" stroke="none" 
	d="
M178.519531,67.141762 
	C178.958969,85.104469 178.997955,103.114754 179.076233,121.600128 
	C178.409653,121.187599 177.105774,120.310196 177.090408,119.410774 
	C176.937592,110.462959 176.997467,101.511505 176.997375,92.561073 
	C176.997299,85.599625 176.933090,78.637115 177.048386,71.677582 
	C177.073257,70.175995 177.745193,68.685135 178.519531,67.141762 
z"/>
<path fill="#0F1010" opacity="1.000000" stroke="none" 
	d="
M183.991669,120.182671 
	C183.513962,118.559273 182.946503,116.865448 182.936279,115.168259 
	C182.840500,99.277863 182.840164,83.386894 182.476471,67.230415 
	C186.005356,65.502594 184.905975,68.576172 184.923965,70.211151 
	C185.015289,78.518913 184.962433,86.828224 184.967163,95.136993 
	C184.971710,103.113289 184.984940,111.089584 184.866516,119.538307 
	C184.738678,120.010735 184.509995,120.222061 184.509995,120.222061 
	C184.509995,120.222061 184.160400,120.110687 183.991669,120.182671 
z"/>
<path fill="#FFBA12" opacity="1.000000" stroke="none" 
	d="
M76.817169,47.942299 
	C80.581825,46.873772 83.573029,47.879150 84.356956,51.227009 
	C84.811890,53.169868 83.827538,56.201492 82.391609,57.663597 
	C80.093094,60.004025 77.017044,59.333782 75.017944,56.705711 
	C72.571022,53.488903 73.326698,50.501556 76.817169,47.942299 
z"/>
<path fill="#0A0A0A" opacity="1.000000" stroke="none" 
	d="
M70.921989,193.118683 
	C74.017014,195.352341 77.112030,197.585999 81.221069,200.551483 
	C74.226967,200.551483 68.429184,200.551483 62.291420,200.551483 
	C62.291420,198.615082 62.291420,196.553192 62.959724,194.448883 
	C66.059349,193.977203 68.490669,193.547943 70.921989,193.118683 
z"/>
<path fill="#03B7A6" opacity="1.000000" stroke="none" 
	d="
M115.067245,92.071510 
	C113.950516,92.372261 112.833794,92.673012 111.348755,92.445236 
	C111.002312,83.964653 111.024178,76.012604 111.466972,68.030396 
	C114.803902,67.673553 115.027435,69.487640 115.014755,71.724449 
	C114.976311,78.506485 115.042076,85.289116 115.067245,92.071510 
z"/>
<path fill="#0A0A0A" opacity="1.000000" stroke="none" 
	d="
M46.844902,192.189789 
	C49.499474,194.792236 52.154053,197.394669 55.950573,201.116608 
	C49.040207,200.028000 43.427719,199.143845 37.666763,198.236313 
	C37.811905,196.141449 37.924061,194.522659 38.463745,192.536041 
	C41.542488,192.175385 44.193695,192.182587 46.844902,192.189789 
z"/>
<path fill="#FF3F46" opacity="1.000000" stroke="none" 
	d="
M125.093849,92.151863 
	C119.779366,93.774223 118.924690,93.242523 119.033310,87.793861 
	C119.101295,84.384216 119.573502,80.982620 120.370377,77.309265 
	C122.229561,77.472694 123.582687,77.904282 125.093849,78.386276 
	C125.093849,82.971497 125.093849,87.561676 125.093849,92.151863 
z"/>
<path fill="#98989B" opacity="1.000000" stroke="none" 
	d="
M175.916046,167.831390 
	C176.390457,167.827301 176.864853,167.823212 177.694885,167.784760 
	C176.943985,168.167938 175.838318,168.947281 174.730835,168.949890 
	C149.816559,169.008591 124.902100,168.981979 99.523582,168.961288 
	C99.240822,168.676575 99.422150,168.402023 100.293961,168.050293 
	C125.961647,167.925873 150.938843,167.878632 175.916046,167.831390 
z"/>
<path fill="#919192" opacity="1.000000" stroke="none" 
	d="
M96.087257,162.186340 
	C95.751442,161.920074 95.415619,161.653809 95.014687,161.066605 
	C116.794441,160.829529 138.639282,160.925568 160.484238,160.969101 
	C161.901031,160.971924 163.318649,160.570786 164.870758,160.874664 
	C165.005630,161.391769 164.882187,161.838791 164.882187,161.838791 
	C143.546875,161.896286 122.211578,161.953766 100.024139,162.025009 
	C98.143761,162.087952 97.115509,162.137146 96.087257,162.186340 
z"/>
<path fill="#9A9BAC" opacity="1.000000" stroke="none" 
	d="
M98.153648,148.953064 
	C97.945946,148.959274 97.738243,148.965500 97.245735,148.506668 
	C96.965370,126.702393 96.969818,105.363167 96.974266,84.023933 
	C97.105202,83.779861 97.267754,83.559067 97.630325,83.246689 
	C97.885300,104.456367 97.971870,125.780937 98.100388,147.797546 
	C98.142334,148.489609 98.153648,148.953064 98.153648,148.953064 
z"/>
<path fill="#E5E8FF" opacity="1.000000" stroke="none" 
	d="
M166.717255,72.000229 
	C168.569031,72.101318 169.959702,72.202362 171.350388,72.303406 
	C171.340836,72.665771 171.331284,73.028137 171.321732,73.390503 
	C161.116470,73.390503 150.911209,73.390503 140.705948,73.390503 
	C140.684769,72.927063 140.663574,72.463631 140.642395,72.000191 
	C149.180313,72.000191 157.718246,72.000191 166.717255,72.000229 
z"/>
<path fill="#03B7A6" opacity="1.000000" stroke="none" 
	d="
M128.931290,81.865036 
	C130.544937,81.865036 132.158569,81.865036 133.881882,81.865036 
	C133.881882,85.157288 133.881882,88.786148 133.881882,93.073677 
	C132.357635,92.777359 131.054214,92.523979 129.283371,91.719666 
	C128.854385,88.067505 128.892838,84.966270 128.931290,81.865036 
z"/>
<path fill="#FFBA12" opacity="1.000000" stroke="none" 
	d="
M177.822540,56.642097 
	C177.793716,55.581715 177.566299,54.787376 177.855301,54.298023 
	C178.680939,52.899952 179.716415,51.625820 180.669342,50.302940 
	C181.774551,51.304775 183.826736,52.344231 183.788742,53.300644 
	C183.708481,55.321175 182.535461,57.298283 181.810715,59.293205 
	C180.493729,58.544609 179.176758,57.796013 177.822540,56.642097 
z"/>
<path fill="#0F1010" opacity="1.000000" stroke="none" 
	d="
M179.960052,166.394623 
	C180.904724,163.731583 182.542053,161.522079 182.745682,159.187561 
	C183.185669,154.142792 182.890335,149.033890 182.970001,143.490417 
	C183.690170,143.497253 184.888184,143.953995 184.897675,144.434235 
	C185.005951,149.912598 185.384521,155.453079 184.685455,160.846649 
	C184.407074,162.994492 181.637924,164.819489 179.960052,166.394623 
z"/>
<path fill="#FCFDFD" opacity="1.000000" stroke="none" 
	d="
M111.504883,134.069962 
	C112.991814,134.232941 114.430298,134.088089 115.119339,134.737915 
	C116.024132,135.591217 116.731201,137.069672 116.733978,138.281097 
	C116.735291,138.850082 114.950478,139.674545 113.868423,139.928116 
	C112.640343,140.215942 111.292931,139.994583 108.636002,139.994583 
	C109.644249,137.611267 110.383629,135.863464 111.504883,134.069962 
z"/>
<path fill="#3A4242" opacity="1.000000" stroke="none" 
	d="
M117.024017,95.003578 
	C127.137711,95.003578 136.755905,95.003578 146.374084,95.003578 
	C146.374359,95.231865 146.374634,95.460152 146.374893,95.688438 
	C132.806320,95.688438 119.237740,95.688438 105.669159,95.688438 
	C105.656006,95.460152 105.642845,95.231865 105.629692,95.003578 
	C109.262627,95.003578 112.895569,95.003578 117.024017,95.003578 
z"/>
<path fill="#060606" opacity="1.000000" stroke="none" 
	d="
M118.805626,50.444313 
	C131.697754,50.050354 144.881683,50.014034 158.534363,49.987907 
	C158.386688,50.348068 157.769699,51.003975 157.153854,51.002903 
	C144.468292,50.980846 131.782867,50.883976 118.805626,50.444313 
z"/>
<path fill="#DABFC4" opacity="1.000000" stroke="none" 
	d="
M46.834129,191.832825 
	C44.193695,192.182587 41.542488,192.175385 38.515343,192.175751 
	C38.132751,191.114273 38.126095,190.045273 38.111382,188.575500 
	C40.818871,188.477707 43.534424,188.780655 46.650497,189.214630 
	C46.975132,190.055725 46.899239,190.765808 46.834129,191.832825 
z"/>
<path fill="#DABFC4" opacity="1.000000" stroke="none" 
	d="
M70.893295,192.793640 
	C68.490669,193.547943 66.059349,193.977203 63.307259,194.226288 
	C63.003677,193.266052 63.020866,192.486023 63.006172,191.316864 
	C65.412727,190.715302 67.851166,190.502884 70.702209,190.411194 
	C71.031403,191.177490 70.948006,191.823044 70.893295,192.793640 
z"/>
<path fill="#F1F4FF" opacity="1.000000" stroke="none" 
	d="
M99.469208,47.002415 
	C100.254028,46.335938 101.477478,45.163574 102.761391,45.093128 
	C107.146126,44.852543 111.552132,44.999542 116.409500,44.998970 
	C116.779419,45.295406 116.689865,45.591526 116.349136,45.955795 
	C110.710495,46.349827 105.323029,46.675701 99.469208,47.002415 
z"/>
<path fill="#272B79" opacity="1.000000" stroke="none" 
	d="
M49.706947,71.922638 
	C51.923569,72.684792 53.840290,73.508553 55.946636,74.638550 
	C53.280060,79.044037 51.421894,78.742615 47.974976,73.262131 
	C48.431801,72.593651 48.919426,72.288948 49.706947,71.922638 
z"/>
<path fill="#FCFDFD" opacity="1.000000" stroke="none" 
	d="
M139.051270,120.281158 
	C143.056778,121.597794 146.125870,119.259270 149.668091,117.362900 
	C150.431061,117.874283 150.848282,118.466957 151.355743,119.225273 
	C148.549072,120.568306 145.652130,121.745697 142.379913,122.930069 
	C141.031235,122.161629 140.057846,121.386215 139.051270,120.281158 
z"/>
<path fill="#C8CACE" opacity="1.000000" stroke="none" 
	d="
M180.018646,140.764313 
	C179.705750,143.662704 179.423691,146.367126 178.964279,149.041061 
	C178.642120,150.916107 178.078064,152.749603 177.290558,154.807083 
	C176.979874,150.339066 177.000626,145.665619 177.278290,140.600952 
	C178.327515,140.185883 179.119873,140.162048 179.912216,140.138214 
	C179.912216,140.138214 179.973740,140.557327 180.018646,140.764313 
z"/>
<path fill="#018E7E" opacity="1.000000" stroke="none" 
	d="
M115.289749,92.039291 
	C115.042076,85.289116 114.976311,78.506485 115.014755,71.724449 
	C115.027435,69.487640 114.803902,67.673553 111.458649,67.761276 
	C111.043030,67.343636 111.056664,67.164955 111.468811,66.908333 
	C113.214661,66.826813 114.561996,66.823235 115.909332,66.819664 
	C115.975571,67.320595 116.041809,67.821518 116.107086,69.149452 
	C116.057823,77.311829 116.009521,84.647202 115.961212,91.982574 
	C115.961212,91.982574 115.512245,92.007065 115.289749,92.039291 
z"/>
<path fill="#B1B1B0" opacity="1.000000" stroke="none" 
	d="
M92.681068,48.195332 
	C93.010826,56.641941 93.017395,65.371269 93.059326,74.574173 
	C92.982712,75.325569 92.806747,75.554085 92.365311,75.814117 
	C92.228516,66.755974 92.293190,57.617016 92.681068,48.195332 
z"/>
<path fill="#B1B1B0" opacity="1.000000" stroke="none" 
	d="
M165.263489,104.764244 
	C160.760498,104.956154 156.643661,104.956154 152.232346,104.956154 
	C155.759445,102.437149 162.546082,102.348427 165.263489,104.764244 
z"/>
<path fill="#FEFDFA" opacity="1.000000" stroke="none" 
	d="
M190.008942,55.487190 
	C190.235260,56.970249 190.457703,58.069279 190.680161,59.168304 
	C190.427048,59.296726 190.173935,59.425148 189.920837,59.553570 
	C188.520370,57.139801 187.119919,54.726032 185.411530,51.781536 
	C186.542404,51.241020 187.636581,50.718040 188.730774,50.195061 
	C189.155533,51.831093 189.580292,53.467125 190.008942,55.487190 
z"/>
<path fill="#FCFDFD" opacity="1.000000" stroke="none" 
	d="
M125.393753,92.191719 
	C125.093849,87.561676 125.093849,82.971497 125.093849,78.386276 
	C123.582687,77.904282 122.229561,77.472694 120.506081,76.889420 
	C121.838783,76.467926 123.541832,76.198128 125.693665,75.857224 
	C125.693665,81.738701 125.693665,86.985138 125.393753,92.191719 
z"/>
<path fill="#1F6D64" opacity="1.000000" stroke="none" 
	d="
M111.070290,66.986282 
	C111.056664,67.164955 111.043030,67.343636 111.037720,67.791428 
	C111.024178,76.012604 111.002312,83.964653 110.975716,92.374260 
	C110.648354,90.241364 110.114365,87.656448 110.046272,85.059326 
	C109.896248,79.337822 109.981300,73.610138 110.254578,67.338577 
	C110.715927,66.856880 110.893112,66.921585 111.070290,66.986282 
z"/>
<path fill="#9A9BAC" opacity="1.000000" stroke="none" 
	d="
M97.337250,72.850739 
	C97.221863,64.815979 97.243721,56.790485 97.509583,48.449390 
	C97.803528,56.086666 97.853470,64.039543 97.825150,72.445389 
	C97.746895,72.898354 97.474480,72.860008 97.337250,72.850739 
z"/>
<path fill="#FF3F46" opacity="1.000000" stroke="none" 
	d="
M139.054535,86.111549 
	C140.073334,86.077866 141.092133,86.044174 142.541595,86.447891 
	C142.940155,88.575111 142.908035,90.264923 142.875900,91.954735 
	C141.875381,91.966316 140.874878,91.977890 139.451065,91.556984 
	C139.036697,89.453522 139.045624,87.782532 139.054535,86.111549 
z"/>
<path fill="#FCFDFD" opacity="1.000000" stroke="none" 
	d="
M116.270050,91.701157 
	C116.009521,84.647202 116.057823,77.311829 116.190262,69.519989 
	C116.375885,76.515594 116.477386,83.967667 116.270050,91.701157 
z"/>
<path fill="#FCFDFD" opacity="1.000000" stroke="none" 
	d="
M113.996506,60.511826 
	C114.690033,59.178074 115.391319,58.202290 116.092598,57.226509 
	C116.940224,58.577087 117.787857,59.927666 118.635490,61.278240 
	C118.356064,61.648083 118.076645,62.017921 117.797218,62.387760 
	C116.532898,61.881771 115.268585,61.375782 113.996506,60.511826 
z"/>
<path fill="#FFFFFF" opacity="1.000000" stroke="none" 
	d="
M156.902328,33.678139 
	C153.678726,33.665112 150.383179,33.257412 147.105347,32.424583 
	C150.358841,32.427456 153.594604,32.855457 156.902328,33.678139 
z"/>
<path fill="#FCFDFD" opacity="1.000000" stroke="none" 
	d="
M162.709656,110.956184 
	C163.422058,109.357872 164.476028,107.793007 166.174744,105.270889 
	C166.704727,110.157936 166.704727,110.157936 162.709656,110.956184 
z"/>
<path fill="#E6E9FC" opacity="1.000000" stroke="none" 
	d="
M161.467072,45.172348 
	C160.881866,44.221760 160.608582,43.420467 160.318939,42.302345 
	C161.610687,42.216759 162.918777,42.448002 164.583282,43.192314 
	C164.997284,44.447449 165.054855,45.189507 165.112411,45.931572 
	C164.001266,45.728260 162.890106,45.524948 161.467072,45.172348 
z"/>
<path fill="#FAF7F1" opacity="1.000000" stroke="none" 
	d="
M180.037567,139.891525 
	C179.119873,140.162048 178.327515,140.185883 177.289795,140.139252 
	C177.259109,138.869888 177.473801,137.671021 177.860596,136.209824 
	C178.931381,136.779831 179.830063,137.612137 180.878998,138.713821 
	C180.740479,139.203735 180.451691,139.424286 180.037567,139.891525 
z"/>
<path fill="#FCFDFD" opacity="1.000000" stroke="none" 
	d="
M138.835175,85.853653 
	C139.045624,87.782532 139.036697,89.453522 139.075958,91.539642 
	C136.311218,89.648270 136.188965,88.118759 138.835175,85.853653 
z"/>
<path fill="#FCFDFD" opacity="1.000000" stroke="none" 
	d="
M143.255524,91.902817 
	C142.908035,90.264923 142.940155,88.575111 142.924072,86.465271 
	C146.100647,87.591812 145.787292,89.601112 143.255524,91.902817 
z"/>
<path fill="#FCFDFD" opacity="1.000000" stroke="none" 
	d="
M128.636810,81.811531 
	C128.892838,84.966270 128.854385,88.067505 128.891296,91.626480 
	C128.758560,88.642159 128.550461,85.200096 128.636810,81.811531 
z"/>
<path fill="#F1F4FF" opacity="1.000000" stroke="none" 
	d="
M165.130249,162.140244 
	C164.882187,161.838791 165.005630,161.391769 165.113876,161.186554 
	C166.839661,160.982803 168.457199,160.984268 170.475769,160.967758 
	C169.850510,164.419632 167.474960,162.916687 165.130249,162.140244 
z"/>
<path fill="#FCFDFD" opacity="1.000000" stroke="none" 
	d="
M165.882385,58.569885 
	C165.148758,58.055870 164.487579,57.198502 163.826401,56.341133 
	C164.319611,56.046013 164.812836,55.750889 165.306046,55.455769 
	C165.522308,56.379356 165.738571,57.302948 165.882385,58.569885 
z"/>
<path fill="#FFFFFF" opacity="1.000000" stroke="none" 
	d="
M61.405289,149.866455 
	C61.178749,148.357162 61.178749,146.733490 61.178749,145.109802 
	C61.415565,145.033936 61.652386,144.958054 61.889202,144.882187 
	C62.262943,146.017929 62.636684,147.153687 62.981285,148.647522 
	C62.512035,149.254425 62.071930,149.503250 61.405289,149.866455 
z"/>
<path fill="#FCFDFD" opacity="1.000000" stroke="none" 
	d="
M125.945084,135.075317 
	C125.351608,135.633636 124.876854,135.919022 124.402100,136.204407 
	C124.706314,135.281372 125.010529,134.358353 125.314743,133.435318 
	C125.564423,133.891006 125.814110,134.346695 125.945084,135.075317 
z"/>
<path fill="#FFFFFF" opacity="1.000000" stroke="none" 
	d="
M184.384033,120.511642 
	C184.509995,120.222061 184.738678,120.010735 184.822052,120.005051 
	C185.369629,119.999481 185.833847,119.999596 186.646698,120.251419 
	C186.996689,120.671021 186.998047,120.838913 186.999390,121.006813 
	C187.000519,121.357773 187.001633,121.708733 187.005157,122.322876 
	C186.535446,122.621323 186.063354,122.656593 185.242676,122.617462 
	C184.682098,121.962456 184.470078,121.381844 184.384033,120.511642 
z"/>
<path fill="#FFFFFF" opacity="1.000000" stroke="none" 
	d="
M67.929749,95.123367 
	C67.651031,94.055855 67.396118,92.533585 67.141205,91.011307 
	C67.821732,91.043579 68.502258,91.075859 69.394745,91.399590 
	C69.055656,92.683563 68.504616,93.676079 67.929749,95.123367 
z"/>
<path fill="#FCFDFD" opacity="1.000000" stroke="none" 
	d="
M173.529175,65.076279 
	C174.399628,65.271904 174.958679,65.511032 175.517746,65.750160 
	C175.118500,66.122337 174.719254,66.494507 174.319992,66.866676 
	C173.952591,66.284378 173.585175,65.702080 173.529175,65.076279 
z"/>
<path fill="#FCFDFD" opacity="1.000000" stroke="none" 
	d="
M135.943817,108.522217 
	C135.248520,108.885780 134.495697,108.932709 133.370758,108.909225 
	C133.961182,108.627731 134.923737,108.416649 135.943817,108.522217 
z"/>
<path fill="#FCFDFD" opacity="1.000000" stroke="none" 
	d="
M111.468811,66.908333 
	C110.893112,66.921585 110.715927,66.856880 110.265762,66.866272 
	C111.799492,66.737946 113.606201,66.535522 115.661118,66.576385 
	C114.561996,66.823235 113.214661,66.826813 111.468811,66.908333 
z"/>
<path fill="#FFFFFF" opacity="1.000000" stroke="none" 
	d="
M193.285339,136.976440 
	C193.368607,135.930023 193.810410,134.886826 194.496750,133.602692 
	C194.965881,133.767654 195.190445,134.173508 195.708740,134.790771 
	C196.002472,135.002167 196.023773,135.023392 196.023773,135.023392 
	C195.230469,135.675476 194.437164,136.327576 193.285339,136.976440 
z"/>
<path fill="#919192" opacity="1.000000" stroke="none" 
	d="
M165.363022,45.890442 
	C165.054855,45.189507 164.997284,44.447449 164.887451,43.336555 
	C164.934570,42.278954 165.033951,41.590179 165.119202,40.553993 
	C165.428711,41.566502 165.752335,42.926434 166.130142,44.657055 
	C165.994095,45.301601 165.803864,45.575459 165.363022,45.890442 
z"/>
<path fill="#FCFDFD" opacity="1.000000" stroke="none" 
	d="
M143.009552,142.000168 
	C142.187424,142.615341 141.357483,143.228592 140.247589,143.906906 
	C139.967651,143.971970 139.888794,143.884598 139.888794,143.884613 
	C140.692352,143.255142 141.495911,142.625671 142.648651,141.989365 
	C142.997864,141.982513 143.001709,141.998260 143.009552,142.000168 
z"/>
<path fill="#FAF7F1" opacity="1.000000" stroke="none" 
	d="
M88.470673,50.599442 
	C88.353233,51.055088 88.064079,51.331646 87.774933,51.608208 
	C87.660553,51.488434 87.440163,51.270531 87.447098,51.263042 
	C87.718147,50.970200 88.009903,50.696529 88.470673,50.599442 
z"/>
<path fill="#FCFDFD" opacity="1.000000" stroke="none" 
	d="
M128.392975,142.957062 
	C128.794342,142.712601 129.194397,142.714539 129.592041,142.746475 
	C129.604599,142.747482 129.592316,143.057587 129.591614,143.223587 
	C129.191498,143.218399 128.791397,143.213211 128.392975,142.957062 
z"/>
<path fill="#FCFDFD" opacity="1.000000" stroke="none" 
	d="
M117.532143,120.393494 
	C117.648743,119.941467 117.933365,119.664330 118.236061,119.408592 
	C118.243805,119.402046 118.449959,119.630341 118.563583,119.749115 
	C118.276566,120.023140 117.989548,120.297165 117.532143,120.393494 
z"/>
<path fill="#FCFDFD" opacity="1.000000" stroke="none" 
	d="
M154.328156,116.483002 
	C154.539932,115.899109 154.934799,115.498634 155.626129,115.081520 
	C155.452133,115.598724 154.981674,116.132568 154.328156,116.483002 
z"/>
<path fill="#FCFDFD" opacity="1.000000" stroke="none" 
	d="
M131.496841,76.784958 
	C132.190857,76.806229 132.719406,77.013855 133.247955,77.221481 
	C133.156647,77.433105 133.065323,77.644722 132.974014,77.856346 
	C132.426468,77.561333 131.878922,77.266327 131.496841,76.784958 
z"/>
<path fill="#FCFDFD" opacity="1.000000" stroke="none" 
	d="
M160.045258,152.389343 
	C160.289185,152.788895 160.287552,153.186493 160.257187,153.581879 
	C160.256348,153.592957 159.948181,153.580444 159.783310,153.578918 
	C159.787445,153.181625 159.791565,152.784348 160.045258,152.389343 
z"/>
<path fill="#FFFFFF" opacity="1.000000" stroke="none" 
	d="
M79.607498,44.045506 
	C79.210106,44.288021 78.814751,44.286339 78.421593,44.256046 
	C78.410545,44.255192 78.423042,43.948730 78.424561,43.784771 
	C78.819656,43.788948 79.214752,43.793125 79.607498,44.045506 
z"/>
<path fill="#FFFFFF" opacity="1.000000" stroke="none" 
	d="
M75.627052,186.279144 
	C75.425858,185.832504 75.391518,184.816696 75.602608,183.573288 
	C75.829994,184.133774 75.811951,184.921875 75.627052,186.279144 
z"/>
<path fill="#FFFFFF" opacity="1.000000" stroke="none" 
	d="
M89.866234,155.844650 
	C90.181770,155.956543 90.347015,156.221100 90.512268,156.485672 
	C90.246826,156.322891 89.981384,156.160110 89.866234,155.844650 
z"/>
<path fill="#FFFFFF" opacity="1.000000" stroke="none" 
	d="
M58.268139,73.920540 
	C58.051956,73.220825 58.076412,72.496834 58.113087,71.412430 
	C58.415253,71.548744 58.705193,72.045456 59.022499,72.843781 
	C59.023834,73.506920 58.843472,73.757217 58.268139,73.920540 
z"/>
<path fill="#FCFDFD" opacity="1.000000" stroke="none" 
	d="
M166.201950,65.349609 
	C165.855820,65.050301 165.721924,64.805267 165.588028,64.560242 
	C165.841690,64.487259 166.095337,64.414284 166.348999,64.341301 
	C166.370728,64.695496 166.392456,65.049690 166.201950,65.349609 
z"/>
<path fill="#FCFDFD" opacity="1.000000" stroke="none" 
	d="
M120.118057,67.725845 
	C120.218796,67.247185 120.359718,66.996078 120.500641,66.744965 
	C120.641136,66.995743 120.946121,67.308960 120.880615,67.481552 
	C120.798111,67.698914 120.412872,67.801369 120.118057,67.725845 
z"/>
<path fill="#FCFDFD" opacity="1.000000" stroke="none" 
	d="
M106.726578,72.881363 
	C106.249245,72.780960 105.998909,72.640327 105.748573,72.499695 
	C105.998634,72.359367 106.311386,72.054665 106.482971,72.120110 
	C106.699936,72.202858 106.801964,72.586990 106.726578,72.881363 
z"/>
<path fill="#FAF7F1" opacity="1.000000" stroke="none" 
	d="
M72.942352,60.074875 
	C72.514999,59.651245 72.087654,59.227619 71.660301,58.803993 
	C71.844269,58.649124 72.028229,58.494255 72.212189,58.339386 
	C72.477356,58.689327 72.742531,59.039268 73.008453,59.694473 
	C73.009201,59.999741 72.942352,60.074875 72.942352,60.074875 
z"/>
<path fill="#FCFDFD" opacity="1.000000" stroke="none" 
	d="
M196.214371,45.287346 
	C196.862686,45.181816 197.716278,45.332706 198.772614,45.742920 
	C198.123444,45.849422 197.271545,45.696598 196.214371,45.287346 
z"/>
<path fill="#FCFDFD" opacity="1.000000" stroke="none" 
	d="
M138.473602,115.740974 
	C138.295013,115.229813 138.311951,114.537392 138.367432,113.503113 
	C138.493683,113.960747 138.581406,114.760231 138.473602,115.740974 
z"/>
<path fill="#FCFDFD" opacity="1.000000" stroke="none" 
	d="
M141.553680,123.011963 
	C141.132126,123.321571 140.399857,123.618752 139.354279,123.881645 
	C139.774994,123.564758 140.508987,123.282150 141.553680,123.011963 
z"/>
<path fill="#FCFDFD" opacity="1.000000" stroke="none" 
	d="
M116.390808,124.221344 
	C116.531990,123.791206 116.806808,123.528664 117.099907,123.288429 
	C117.111763,123.278725 117.296379,123.479774 117.400513,123.582626 
	C117.109573,123.852722 116.818634,124.122818 116.390808,124.221344 
z"/>
<path fill="#FAF7F1" opacity="1.000000" stroke="none" 
	d="
M187.273056,120.982300 
	C186.998047,120.838913 186.996689,120.671021 186.994843,120.251251 
	C187.532364,119.951401 188.070343,119.903412 188.608337,119.855438 
	C188.254471,120.222893 187.900589,120.590347 187.273056,120.982300 
z"/>
<path fill="#FCFDFD" opacity="1.000000" stroke="none" 
	d="
M137.473114,120.741257 
	C137.294617,120.229996 137.311737,119.537491 137.367371,118.503105 
	C137.493500,118.960823 137.581116,119.760422 137.473114,120.741257 
z"/>
<path fill="#FCFDFD" opacity="1.000000" stroke="none" 
	d="
M117.657883,132.201080 
	C117.952942,131.860046 118.194534,131.728226 118.436127,131.596420 
	C118.507805,131.846237 118.579483,132.096054 118.651161,132.345886 
	C118.302246,132.367355 117.953339,132.388840 117.657883,132.201080 
z"/>
<path fill="#FCFDFD" opacity="1.000000" stroke="none" 
	d="
M140.002930,144.019073 
	C139.578629,144.186218 139.119049,144.306259 138.659470,144.426315 
	C138.914658,144.277130 139.169830,144.127930 139.656906,143.931671 
	C139.888794,143.884598 139.967651,143.971970 140.002930,144.019073 
z"/>
<path fill="#FAF7F1" opacity="1.000000" stroke="none" 
	d="
M73.279594,46.649803 
	C73.010880,46.635319 72.863747,46.491776 72.716606,46.348232 
	C72.944794,46.405739 73.172981,46.463242 73.279594,46.649803 
z"/>
<path fill="#FFFFFF" opacity="1.000000" stroke="none" 
	d="
M68.898155,105.099121 
	C68.622009,104.845673 68.372009,104.263245 68.165833,103.358994 
	C68.447876,103.614822 68.686089,104.192474 68.898155,105.099121 
z"/>
<path fill="#FCFDFD" opacity="1.000000" stroke="none" 
	d="
M137.989212,80.236526 
	C138.101791,80.406647 138.046631,80.578659 137.991486,80.750671 
	C137.934799,80.579926 137.878128,80.409180 137.989212,80.236526 
z"/>
<path fill="#FCFDFD" opacity="1.000000" stroke="none" 
	d="
M151.977081,107.814949 
	C151.698868,107.868408 151.420822,107.684570 151.066483,107.257736 
	C151.319199,107.202385 151.648224,107.390022 151.977081,107.814949 
z"/>
<path fill="#FCFDFD" opacity="1.000000" stroke="none" 
	d="
M141.509064,108.267273 
	C141.637909,108.593994 141.577606,109.097610 141.324036,109.764801 
	C141.193802,109.433632 141.256851,108.938904 141.509064,108.267273 
z"/>
<path fill="#FCFDFD" opacity="1.000000" stroke="none" 
	d="
M122.565598,113.156464 
	C123.052200,113.202156 123.358109,113.353302 123.726540,113.757675 
	C123.403351,114.021965 123.017639,114.033043 122.311630,114.026054 
	C121.991325,114.007988 121.914490,113.945541 121.914490,113.945541 
	C122.010262,113.675659 122.167076,113.447792 122.565598,113.156464 
z"/>
<path fill="#FCFDFD" opacity="1.000000" stroke="none" 
	d="
M140.513412,113.260773 
	C140.641312,113.588280 140.579666,114.094048 140.324402,114.764259 
	C140.195160,114.432144 140.259506,113.935600 140.513412,113.260773 
z"/>
<path fill="#FCFDFD" opacity="1.000000" stroke="none" 
	d="
M146.333130,140.969971 
	C146.469864,140.615723 146.896881,140.247513 147.621063,139.921906 
	C147.486618,140.294998 147.055023,140.625488 146.333130,140.969971 
z"/>
<path fill="#FCFDFD" opacity="1.000000" stroke="none" 
	d="
M148.212082,139.808456 
	C148.129974,139.415131 148.284576,138.915329 148.701721,138.363037 
	C148.792435,138.774368 148.620621,139.238174 148.212082,139.808456 
z"/>
<path fill="#FFFFFF" opacity="1.000000" stroke="none" 
	d="
M159.031906,34.532417 
	C158.889023,34.757160 158.710129,34.757885 158.264313,34.730690 
	C158.177811,34.333504 158.358215,33.964245 158.538620,33.594978 
	C158.691040,33.832783 158.843460,34.070587 159.031906,34.532417 
z"/>
<path fill="#FAF7F1" opacity="1.000000" stroke="none" 
	d="
M175.023178,135.787888 
	C174.901428,135.603882 174.959641,135.419327 175.017838,135.234787 
	C175.079605,135.418976 175.141373,135.603165 175.023178,135.787888 
z"/>
<path fill="#FFFFFF" opacity="1.000000" stroke="none" 
	d="
M195.993744,134.990234 
	C196.427322,134.856552 196.869598,134.734787 197.311890,134.613022 
	C197.041016,134.735840 196.770157,134.858658 196.261536,135.002441 
	C196.023773,135.023392 196.002472,135.002167 195.993744,134.990234 
z"/>
<path fill="#FCFDFD" opacity="1.000000" stroke="none" 
	d="
M153.600098,130.647095 
	C153.393082,130.411514 153.335922,130.041901 153.314423,129.392700 
	C153.483368,129.579758 153.616653,130.046417 153.600098,130.647095 
z"/>
<path fill="#FCFDFD" opacity="1.000000" stroke="none" 
	d="
M98.359650,148.925079 
	C98.153648,148.953064 98.142334,148.489609 98.183533,148.261566 
	C98.448654,148.121826 98.634804,148.260712 98.869446,148.601654 
	C98.955711,148.753128 98.565651,148.897079 98.359650,148.925079 
z"/>
<path fill="#FFFFFF" opacity="1.000000" stroke="none" 
	d="
M129.679230,32.091805 
	C129.738846,32.298183 129.626572,32.584747 129.268585,32.808090 
	C129.128006,32.506245 129.289490,32.315285 129.679230,32.091805 
z"/>
<path fill="#FCFDFD" opacity="1.000000" stroke="none" 
	d="
M122.022850,114.046158 
	C121.915672,114.086807 121.776962,114.089279 121.776375,114.018646 
	C121.914490,113.945541 121.991325,114.007988 122.022850,114.046158 
z"/>
<path fill="#FCFDFD" opacity="1.000000" stroke="none" 
	d="
M129.444977,76.536301 
	C129.408096,76.476250 129.481873,76.596344 129.444977,76.536301 
z"/>
<path fill="#FCFDFD" opacity="1.000000" stroke="none" 
	d="
M149.472961,137.788879 
	C149.228226,137.573410 149.324997,137.348419 149.793213,137.135345 
	C149.928314,137.314545 149.811584,137.525238 149.472961,137.788879 
z"/>
<path fill="#FCFDFD" opacity="1.000000" stroke="none" 
	d="
M118.535133,65.552139 
	C118.476204,65.588242 118.594063,65.516045 118.535133,65.552139 
z"/>
<path fill="#FAF7F1" opacity="1.000000" stroke="none" 
	d="
M176.537903,125.555344 
	C176.475800,125.594139 176.599991,125.516541 176.537903,125.555344 
z"/>
<path fill="#FAF7F1" opacity="1.000000" stroke="none" 
	d="
M73.047165,59.966759 
	C73.190384,60.109608 73.295654,60.285439 73.400917,60.461273 
	C73.299942,60.421028 73.198967,60.380783 73.020172,60.207703 
	C72.942352,60.074875 73.009201,59.999741 73.047165,59.966759 
z"/>
<path fill="#F9F9FC" opacity="1.000000" stroke="none" 
	d="
M40.992401,107.598045 
	C40.124512,107.030823 39.458431,105.857376 38.479847,105.074600 
	C34.812359,102.140915 34.814411,99.034042 37.895966,95.336334 
	C39.040882,99.073601 40.045811,103.122383 40.992401,107.598045 
z"/>
<path fill="#E7E7E7" opacity="1.000000" stroke="none" 
	d="
M137.483612,29.549387 
	C139.129471,30.776379 141.159592,32.039158 141.529861,33.677139 
	C141.763123,34.709076 139.511749,36.302658 138.374939,37.644287 
	C137.590881,36.966690 136.624664,36.414021 136.057861,35.587448 
	C134.522491,33.348404 134.677872,31.289368 137.483612,29.549387 
z"/>
<path fill="#F1F4FF" opacity="1.000000" stroke="none" 
	d="
M117.031921,42.707634 
	C116.716873,42.764435 116.472710,42.527676 116.177322,42.034203 
	C116.451668,41.989681 116.777245,42.201878 117.031921,42.707634 
z"/>
<path fill="#F1F4FF" opacity="1.000000" stroke="none" 
	d="
M175.608765,167.566498 
	C150.938843,167.878632 125.961647,167.925873 100.523514,167.928467 
	C101.300262,167.588608 102.537399,167.038651 103.775742,167.035950 
	C126.968666,166.985413 150.161728,166.997406 173.354752,167.013245 
	C174.003723,167.013687 174.652573,167.201263 175.608765,167.566498 
z"/>
<path fill="#F1F4FF" opacity="1.000000" stroke="none" 
	d="
M96.301758,162.414093 
	C97.115509,162.137146 98.143761,162.087952 99.555557,162.089325 
	C98.798164,162.307220 97.657211,162.474548 96.301758,162.414093 
z"/>
<path fill="#E6E9FF" opacity="1.000000" stroke="none" 
	d="
M96.645119,84.047333 
	C96.969818,105.363167 96.965370,126.702393 96.934052,148.507126 
	C93.241447,149.645493 92.949997,147.510834 92.961899,144.623123 
	C93.041153,125.398170 93.006493,106.172737 92.997749,86.480118 
	C94.096413,85.365433 95.206192,84.718086 96.645119,84.047333 
z"/>
<path fill="#FFF3D8" opacity="1.000000" stroke="none" 
	d="
M188.270111,127.371826 
	C188.378204,128.162659 188.225052,128.737701 188.071899,129.312729 
	C187.019516,128.990448 185.967117,128.668152 183.991104,128.063019 
	C186.397202,130.588165 187.974899,132.243927 189.552612,133.899689 
	C188.618622,134.780884 187.681366,136.386459 186.751389,136.382233 
	C185.150360,136.375015 183.553894,135.365204 181.955505,134.776169 
	C182.076767,134.353668 182.198044,133.931152 182.319305,133.508652 
	C183.927292,133.674408 185.535263,133.840149 186.582306,133.948090 
	C185.288895,131.903107 183.227127,129.983734 183.100815,127.944473 
	C183.024155,126.706902 185.879028,124.890533 188.270111,127.371826 
z"/>
</svg>